G04 EAGLE Gerber RS-274X export*
G75*
%MOMM*%
%FSLAX34Y34*%
%LPD*%
%AMOC8*
5,1,8,0,0,1.08239X$1,22.5*%
G01*
%ADD10C,0.050800*%
%ADD11C,0.127000*%


D10*
X419679Y803533D02*
X425267Y803533D01*
X425267Y805086D01*
X425265Y805163D01*
X425259Y805241D01*
X425250Y805317D01*
X425236Y805394D01*
X425219Y805469D01*
X425198Y805543D01*
X425173Y805617D01*
X425145Y805689D01*
X425113Y805759D01*
X425078Y805828D01*
X425039Y805895D01*
X424997Y805960D01*
X424952Y806023D01*
X424904Y806084D01*
X424853Y806142D01*
X424799Y806197D01*
X424742Y806250D01*
X424683Y806299D01*
X424621Y806346D01*
X424557Y806390D01*
X424491Y806430D01*
X424423Y806467D01*
X424353Y806501D01*
X424282Y806531D01*
X424209Y806557D01*
X424135Y806580D01*
X424060Y806599D01*
X423985Y806614D01*
X423908Y806626D01*
X423831Y806634D01*
X423754Y806638D01*
X423676Y806638D01*
X423599Y806634D01*
X423522Y806626D01*
X423445Y806614D01*
X423370Y806599D01*
X423295Y806580D01*
X423221Y806557D01*
X423148Y806531D01*
X423077Y806501D01*
X423007Y806467D01*
X422939Y806430D01*
X422873Y806390D01*
X422809Y806346D01*
X422747Y806299D01*
X422688Y806250D01*
X422631Y806197D01*
X422577Y806142D01*
X422526Y806084D01*
X422478Y806023D01*
X422433Y805960D01*
X422391Y805895D01*
X422352Y805828D01*
X422317Y805759D01*
X422285Y805689D01*
X422257Y805617D01*
X422232Y805543D01*
X422211Y805469D01*
X422194Y805394D01*
X422180Y805317D01*
X422171Y805241D01*
X422165Y805163D01*
X422163Y805086D01*
X422162Y805086D02*
X422162Y803533D01*
X422162Y805396D02*
X419679Y806638D01*
X419679Y809178D02*
X419679Y811661D01*
X419679Y809178D02*
X425267Y809178D01*
X425267Y811661D01*
X422783Y811040D02*
X422783Y809178D01*
X419679Y815418D02*
X419681Y815488D01*
X419687Y815557D01*
X419697Y815626D01*
X419710Y815694D01*
X419728Y815762D01*
X419749Y815828D01*
X419774Y815893D01*
X419802Y815957D01*
X419834Y816019D01*
X419869Y816079D01*
X419908Y816137D01*
X419950Y816192D01*
X419995Y816246D01*
X420043Y816296D01*
X420093Y816344D01*
X420147Y816389D01*
X420202Y816431D01*
X420260Y816470D01*
X420320Y816505D01*
X420382Y816537D01*
X420446Y816565D01*
X420511Y816590D01*
X420577Y816611D01*
X420645Y816629D01*
X420713Y816642D01*
X420782Y816652D01*
X420851Y816658D01*
X420921Y816660D01*
X419679Y815418D02*
X419681Y815319D01*
X419686Y815221D01*
X419696Y815123D01*
X419709Y815025D01*
X419725Y814928D01*
X419745Y814831D01*
X419769Y814736D01*
X419797Y814641D01*
X419828Y814547D01*
X419862Y814455D01*
X419900Y814364D01*
X419941Y814274D01*
X419986Y814186D01*
X420034Y814100D01*
X420085Y814016D01*
X420139Y813934D01*
X420197Y813853D01*
X420257Y813775D01*
X420320Y813700D01*
X420386Y813626D01*
X420455Y813556D01*
X424025Y813711D02*
X424095Y813713D01*
X424164Y813719D01*
X424233Y813729D01*
X424301Y813742D01*
X424369Y813760D01*
X424435Y813781D01*
X424500Y813806D01*
X424564Y813834D01*
X424626Y813866D01*
X424686Y813901D01*
X424744Y813940D01*
X424799Y813982D01*
X424853Y814027D01*
X424903Y814075D01*
X424951Y814125D01*
X424996Y814179D01*
X425038Y814234D01*
X425077Y814292D01*
X425112Y814352D01*
X425144Y814414D01*
X425172Y814478D01*
X425197Y814543D01*
X425218Y814609D01*
X425236Y814677D01*
X425249Y814745D01*
X425259Y814814D01*
X425265Y814883D01*
X425267Y814953D01*
X425266Y814953D02*
X425264Y815047D01*
X425258Y815140D01*
X425249Y815233D01*
X425236Y815326D01*
X425219Y815418D01*
X425199Y815509D01*
X425174Y815600D01*
X425147Y815689D01*
X425115Y815777D01*
X425080Y815864D01*
X425042Y815950D01*
X425000Y816033D01*
X424955Y816115D01*
X424907Y816196D01*
X424855Y816274D01*
X424800Y816350D01*
X422939Y814332D02*
X422975Y814273D01*
X423015Y814217D01*
X423058Y814163D01*
X423103Y814111D01*
X423152Y814062D01*
X423203Y814016D01*
X423256Y813973D01*
X423312Y813932D01*
X423370Y813895D01*
X423430Y813860D01*
X423491Y813830D01*
X423554Y813802D01*
X423619Y813778D01*
X423685Y813758D01*
X423752Y813741D01*
X423819Y813728D01*
X423887Y813719D01*
X423956Y813713D01*
X424025Y813711D01*
X422007Y816039D02*
X421971Y816098D01*
X421931Y816154D01*
X421888Y816208D01*
X421843Y816260D01*
X421794Y816309D01*
X421743Y816355D01*
X421690Y816398D01*
X421634Y816439D01*
X421576Y816476D01*
X421516Y816511D01*
X421455Y816541D01*
X421392Y816569D01*
X421327Y816593D01*
X421261Y816613D01*
X421194Y816630D01*
X421127Y816643D01*
X421059Y816652D01*
X420990Y816658D01*
X420921Y816660D01*
X422007Y816039D02*
X422938Y814332D01*
X419679Y819053D02*
X419679Y821537D01*
X419679Y819053D02*
X425267Y819053D01*
X425267Y821537D01*
X422783Y820916D02*
X422783Y819053D01*
X425267Y824800D02*
X419679Y824800D01*
X425267Y823248D02*
X425267Y826353D01*
D11*
X391485Y815979D02*
X391485Y846459D01*
X391485Y815979D02*
X406725Y815979D01*
X406725Y846459D02*
X391485Y846459D01*
X406725Y846459D02*
X406725Y815979D01*
M02*
