G04 EAGLE Gerber RS-274X export*
G75*
%MOMM*%
%FSLAX34Y34*%
%LPD*%
%AMOC8*
5,1,8,0,0,1.08239X$1,22.5*%
G01*
%ADD10C,0.025400*%
%ADD11C,0.101600*%
%ADD12C,0.200000*%
%ADD13C,0.203200*%
%ADD14C,0.127000*%
%ADD15C,0.152400*%


D10*
X178413Y804123D02*
X178413Y803615D01*
X178411Y803571D01*
X178405Y803527D01*
X178396Y803484D01*
X178382Y803441D01*
X178365Y803400D01*
X178345Y803361D01*
X178321Y803324D01*
X178294Y803288D01*
X178264Y803256D01*
X178232Y803226D01*
X178196Y803199D01*
X178159Y803175D01*
X178120Y803155D01*
X178079Y803138D01*
X178036Y803124D01*
X177993Y803115D01*
X177949Y803109D01*
X177905Y803107D01*
X176635Y803107D01*
X176591Y803109D01*
X176547Y803115D01*
X176504Y803124D01*
X176461Y803138D01*
X176420Y803155D01*
X176381Y803175D01*
X176344Y803199D01*
X176308Y803226D01*
X176276Y803256D01*
X176246Y803288D01*
X176219Y803324D01*
X176195Y803361D01*
X176175Y803400D01*
X176158Y803441D01*
X176144Y803484D01*
X176135Y803527D01*
X176129Y803571D01*
X176127Y803615D01*
X176127Y804123D01*
X177778Y805019D02*
X177729Y805021D01*
X177681Y805026D01*
X177633Y805036D01*
X177586Y805049D01*
X177541Y805065D01*
X177496Y805085D01*
X177454Y805108D01*
X177413Y805135D01*
X177374Y805164D01*
X177338Y805196D01*
X177304Y805232D01*
X177273Y805269D01*
X177245Y805309D01*
X177220Y805351D01*
X177199Y805394D01*
X177180Y805439D01*
X177166Y805486D01*
X177155Y805533D01*
X177147Y805581D01*
X177143Y805630D01*
X177143Y805678D01*
X177147Y805727D01*
X177155Y805775D01*
X177166Y805822D01*
X177180Y805869D01*
X177199Y805914D01*
X177220Y805957D01*
X177245Y805999D01*
X177273Y806039D01*
X177304Y806076D01*
X177338Y806112D01*
X177374Y806144D01*
X177413Y806173D01*
X177454Y806200D01*
X177496Y806223D01*
X177541Y806243D01*
X177586Y806259D01*
X177633Y806272D01*
X177681Y806282D01*
X177729Y806287D01*
X177778Y806289D01*
X177827Y806287D01*
X177875Y806282D01*
X177923Y806272D01*
X177970Y806259D01*
X178015Y806243D01*
X178060Y806223D01*
X178102Y806200D01*
X178143Y806173D01*
X178182Y806144D01*
X178218Y806112D01*
X178252Y806076D01*
X178283Y806039D01*
X178311Y805999D01*
X178336Y805957D01*
X178357Y805914D01*
X178376Y805869D01*
X178390Y805822D01*
X178401Y805775D01*
X178409Y805727D01*
X178413Y805678D01*
X178413Y805630D01*
X178409Y805581D01*
X178401Y805533D01*
X178390Y805486D01*
X178376Y805439D01*
X178357Y805394D01*
X178336Y805351D01*
X178311Y805309D01*
X178283Y805269D01*
X178252Y805232D01*
X178218Y805196D01*
X178182Y805164D01*
X178143Y805135D01*
X178102Y805108D01*
X178060Y805085D01*
X178015Y805065D01*
X177970Y805049D01*
X177923Y805036D01*
X177875Y805026D01*
X177827Y805021D01*
X177778Y805019D01*
X176635Y805146D02*
X176591Y805148D01*
X176547Y805154D01*
X176504Y805163D01*
X176461Y805177D01*
X176420Y805194D01*
X176381Y805214D01*
X176344Y805238D01*
X176308Y805265D01*
X176276Y805295D01*
X176246Y805327D01*
X176219Y805363D01*
X176195Y805400D01*
X176175Y805439D01*
X176158Y805480D01*
X176144Y805523D01*
X176135Y805566D01*
X176129Y805610D01*
X176127Y805654D01*
X176129Y805698D01*
X176135Y805742D01*
X176144Y805785D01*
X176158Y805828D01*
X176175Y805869D01*
X176195Y805908D01*
X176219Y805945D01*
X176246Y805981D01*
X176276Y806013D01*
X176308Y806043D01*
X176344Y806070D01*
X176381Y806094D01*
X176420Y806114D01*
X176461Y806131D01*
X176504Y806145D01*
X176547Y806154D01*
X176591Y806160D01*
X176635Y806162D01*
X176679Y806160D01*
X176723Y806154D01*
X176766Y806145D01*
X176809Y806131D01*
X176850Y806114D01*
X176889Y806094D01*
X176926Y806070D01*
X176962Y806043D01*
X176994Y806013D01*
X177024Y805981D01*
X177051Y805945D01*
X177075Y805908D01*
X177095Y805869D01*
X177112Y805828D01*
X177126Y805785D01*
X177135Y805742D01*
X177141Y805698D01*
X177143Y805654D01*
X177141Y805610D01*
X177135Y805566D01*
X177126Y805523D01*
X177112Y805480D01*
X177095Y805439D01*
X177075Y805400D01*
X177051Y805363D01*
X177024Y805327D01*
X176994Y805295D01*
X176962Y805265D01*
X176926Y805238D01*
X176889Y805214D01*
X176850Y805194D01*
X176809Y805177D01*
X176766Y805163D01*
X176723Y805154D01*
X176679Y805148D01*
X176635Y805146D01*
X176635Y807305D02*
X176127Y807940D01*
X178413Y807940D01*
X178413Y807305D02*
X178413Y808575D01*
X146970Y805845D02*
X146970Y805337D01*
X146968Y805293D01*
X146962Y805249D01*
X146953Y805206D01*
X146939Y805163D01*
X146922Y805122D01*
X146902Y805083D01*
X146878Y805046D01*
X146851Y805010D01*
X146821Y804978D01*
X146789Y804948D01*
X146753Y804921D01*
X146716Y804897D01*
X146677Y804877D01*
X146636Y804860D01*
X146593Y804846D01*
X146550Y804837D01*
X146506Y804831D01*
X146462Y804829D01*
X145192Y804829D01*
X145148Y804831D01*
X145104Y804837D01*
X145061Y804846D01*
X145018Y804860D01*
X144977Y804877D01*
X144938Y804897D01*
X144901Y804921D01*
X144865Y804948D01*
X144833Y804978D01*
X144803Y805010D01*
X144776Y805046D01*
X144752Y805083D01*
X144732Y805122D01*
X144715Y805163D01*
X144701Y805206D01*
X144692Y805249D01*
X144686Y805293D01*
X144684Y805337D01*
X144684Y805845D01*
X146335Y806741D02*
X146286Y806743D01*
X146238Y806748D01*
X146190Y806758D01*
X146143Y806771D01*
X146098Y806787D01*
X146053Y806807D01*
X146011Y806830D01*
X145970Y806857D01*
X145931Y806886D01*
X145895Y806918D01*
X145861Y806954D01*
X145830Y806991D01*
X145802Y807031D01*
X145777Y807073D01*
X145756Y807116D01*
X145737Y807161D01*
X145723Y807208D01*
X145712Y807255D01*
X145704Y807303D01*
X145700Y807352D01*
X145700Y807400D01*
X145704Y807449D01*
X145712Y807497D01*
X145723Y807544D01*
X145737Y807591D01*
X145756Y807636D01*
X145777Y807679D01*
X145802Y807721D01*
X145830Y807761D01*
X145861Y807798D01*
X145895Y807834D01*
X145931Y807866D01*
X145970Y807895D01*
X146011Y807922D01*
X146053Y807945D01*
X146098Y807965D01*
X146143Y807981D01*
X146190Y807994D01*
X146238Y808004D01*
X146286Y808009D01*
X146335Y808011D01*
X146384Y808009D01*
X146432Y808004D01*
X146480Y807994D01*
X146527Y807981D01*
X146572Y807965D01*
X146617Y807945D01*
X146659Y807922D01*
X146700Y807895D01*
X146739Y807866D01*
X146775Y807834D01*
X146809Y807798D01*
X146840Y807761D01*
X146868Y807721D01*
X146893Y807679D01*
X146914Y807636D01*
X146933Y807591D01*
X146947Y807544D01*
X146958Y807497D01*
X146966Y807449D01*
X146970Y807400D01*
X146970Y807352D01*
X146966Y807303D01*
X146958Y807255D01*
X146947Y807208D01*
X146933Y807161D01*
X146914Y807116D01*
X146893Y807073D01*
X146868Y807031D01*
X146840Y806991D01*
X146809Y806954D01*
X146775Y806918D01*
X146739Y806886D01*
X146700Y806857D01*
X146659Y806830D01*
X146617Y806807D01*
X146572Y806787D01*
X146527Y806771D01*
X146480Y806758D01*
X146432Y806748D01*
X146384Y806743D01*
X146335Y806741D01*
X145192Y806868D02*
X145148Y806870D01*
X145104Y806876D01*
X145061Y806885D01*
X145018Y806899D01*
X144977Y806916D01*
X144938Y806936D01*
X144901Y806960D01*
X144865Y806987D01*
X144833Y807017D01*
X144803Y807049D01*
X144776Y807085D01*
X144752Y807122D01*
X144732Y807161D01*
X144715Y807202D01*
X144701Y807245D01*
X144692Y807288D01*
X144686Y807332D01*
X144684Y807376D01*
X144686Y807420D01*
X144692Y807464D01*
X144701Y807507D01*
X144715Y807550D01*
X144732Y807591D01*
X144752Y807630D01*
X144776Y807667D01*
X144803Y807703D01*
X144833Y807735D01*
X144865Y807765D01*
X144901Y807792D01*
X144938Y807816D01*
X144977Y807836D01*
X145018Y807853D01*
X145061Y807867D01*
X145104Y807876D01*
X145148Y807882D01*
X145192Y807884D01*
X145236Y807882D01*
X145280Y807876D01*
X145323Y807867D01*
X145366Y807853D01*
X145407Y807836D01*
X145446Y807816D01*
X145483Y807792D01*
X145519Y807765D01*
X145551Y807735D01*
X145581Y807703D01*
X145608Y807667D01*
X145632Y807630D01*
X145652Y807591D01*
X145669Y807550D01*
X145683Y807507D01*
X145692Y807464D01*
X145698Y807420D01*
X145700Y807376D01*
X145698Y807332D01*
X145692Y807288D01*
X145683Y807245D01*
X145669Y807202D01*
X145652Y807161D01*
X145632Y807122D01*
X145608Y807085D01*
X145581Y807049D01*
X145551Y807017D01*
X145519Y806987D01*
X145483Y806960D01*
X145446Y806936D01*
X145407Y806916D01*
X145366Y806899D01*
X145323Y806885D01*
X145280Y806876D01*
X145236Y806870D01*
X145192Y806868D01*
X144683Y809726D02*
X144685Y809771D01*
X144690Y809815D01*
X144699Y809860D01*
X144711Y809903D01*
X144727Y809945D01*
X144745Y809986D01*
X144767Y810025D01*
X144792Y810062D01*
X144820Y810097D01*
X144851Y810130D01*
X144884Y810161D01*
X144919Y810189D01*
X144956Y810214D01*
X144995Y810236D01*
X145036Y810254D01*
X145078Y810270D01*
X145121Y810282D01*
X145166Y810291D01*
X145210Y810296D01*
X145255Y810298D01*
X144684Y809726D02*
X144686Y809675D01*
X144691Y809624D01*
X144700Y809573D01*
X144712Y809524D01*
X144728Y809475D01*
X144748Y809427D01*
X144770Y809381D01*
X144796Y809337D01*
X144824Y809294D01*
X144856Y809254D01*
X144890Y809216D01*
X144927Y809180D01*
X144967Y809147D01*
X145008Y809117D01*
X145052Y809090D01*
X145097Y809066D01*
X145144Y809045D01*
X145192Y809028D01*
X145700Y810106D02*
X145667Y810138D01*
X145633Y810167D01*
X145596Y810194D01*
X145558Y810217D01*
X145517Y810238D01*
X145476Y810256D01*
X145433Y810271D01*
X145390Y810282D01*
X145345Y810290D01*
X145300Y810295D01*
X145255Y810297D01*
X145700Y810107D02*
X146970Y809027D01*
X146970Y810297D01*
X347524Y848716D02*
X348032Y848716D01*
X347524Y848716D02*
X347480Y848718D01*
X347436Y848724D01*
X347393Y848733D01*
X347350Y848747D01*
X347309Y848764D01*
X347270Y848784D01*
X347233Y848808D01*
X347197Y848835D01*
X347165Y848865D01*
X347135Y848897D01*
X347108Y848933D01*
X347084Y848970D01*
X347064Y849009D01*
X347047Y849050D01*
X347033Y849093D01*
X347024Y849136D01*
X347018Y849180D01*
X347016Y849224D01*
X347016Y850494D01*
X347018Y850538D01*
X347024Y850582D01*
X347033Y850625D01*
X347047Y850668D01*
X347064Y850709D01*
X347084Y850748D01*
X347108Y850785D01*
X347135Y850821D01*
X347165Y850853D01*
X347197Y850883D01*
X347233Y850910D01*
X347270Y850934D01*
X347309Y850954D01*
X347350Y850971D01*
X347393Y850985D01*
X347436Y850994D01*
X347480Y851000D01*
X347524Y851002D01*
X348032Y851002D01*
X348928Y849351D02*
X348930Y849400D01*
X348935Y849448D01*
X348945Y849496D01*
X348958Y849543D01*
X348974Y849588D01*
X348994Y849633D01*
X349017Y849675D01*
X349044Y849716D01*
X349073Y849755D01*
X349105Y849791D01*
X349141Y849825D01*
X349178Y849856D01*
X349218Y849884D01*
X349260Y849909D01*
X349303Y849930D01*
X349348Y849949D01*
X349395Y849963D01*
X349442Y849974D01*
X349490Y849982D01*
X349539Y849986D01*
X349587Y849986D01*
X349636Y849982D01*
X349684Y849974D01*
X349731Y849963D01*
X349778Y849949D01*
X349823Y849930D01*
X349866Y849909D01*
X349908Y849884D01*
X349948Y849856D01*
X349985Y849825D01*
X350021Y849791D01*
X350053Y849755D01*
X350082Y849716D01*
X350109Y849675D01*
X350132Y849633D01*
X350152Y849588D01*
X350168Y849543D01*
X350181Y849496D01*
X350191Y849448D01*
X350196Y849400D01*
X350198Y849351D01*
X350196Y849302D01*
X350191Y849254D01*
X350181Y849206D01*
X350168Y849159D01*
X350152Y849114D01*
X350132Y849069D01*
X350109Y849027D01*
X350082Y848986D01*
X350053Y848947D01*
X350021Y848911D01*
X349985Y848877D01*
X349948Y848846D01*
X349908Y848818D01*
X349866Y848793D01*
X349823Y848772D01*
X349778Y848753D01*
X349731Y848739D01*
X349684Y848728D01*
X349636Y848720D01*
X349587Y848716D01*
X349539Y848716D01*
X349490Y848720D01*
X349442Y848728D01*
X349395Y848739D01*
X349348Y848753D01*
X349303Y848772D01*
X349260Y848793D01*
X349218Y848818D01*
X349178Y848846D01*
X349141Y848877D01*
X349105Y848911D01*
X349073Y848947D01*
X349044Y848986D01*
X349017Y849027D01*
X348994Y849069D01*
X348974Y849114D01*
X348958Y849159D01*
X348945Y849206D01*
X348935Y849254D01*
X348930Y849302D01*
X348928Y849351D01*
X349055Y850494D02*
X349057Y850538D01*
X349063Y850582D01*
X349072Y850625D01*
X349086Y850668D01*
X349103Y850709D01*
X349123Y850748D01*
X349147Y850785D01*
X349174Y850821D01*
X349204Y850853D01*
X349236Y850883D01*
X349272Y850910D01*
X349309Y850934D01*
X349348Y850954D01*
X349389Y850971D01*
X349432Y850985D01*
X349475Y850994D01*
X349519Y851000D01*
X349563Y851002D01*
X349607Y851000D01*
X349651Y850994D01*
X349694Y850985D01*
X349737Y850971D01*
X349778Y850954D01*
X349817Y850934D01*
X349854Y850910D01*
X349890Y850883D01*
X349922Y850853D01*
X349952Y850821D01*
X349979Y850785D01*
X350003Y850748D01*
X350023Y850709D01*
X350040Y850668D01*
X350054Y850625D01*
X350063Y850582D01*
X350069Y850538D01*
X350071Y850494D01*
X350069Y850450D01*
X350063Y850406D01*
X350054Y850363D01*
X350040Y850320D01*
X350023Y850279D01*
X350003Y850240D01*
X349979Y850203D01*
X349952Y850167D01*
X349922Y850135D01*
X349890Y850105D01*
X349854Y850078D01*
X349817Y850054D01*
X349778Y850034D01*
X349737Y850017D01*
X349694Y850003D01*
X349651Y849994D01*
X349607Y849988D01*
X349563Y849986D01*
X349519Y849988D01*
X349475Y849994D01*
X349432Y850003D01*
X349389Y850017D01*
X349348Y850034D01*
X349309Y850054D01*
X349272Y850078D01*
X349236Y850105D01*
X349204Y850135D01*
X349174Y850167D01*
X349147Y850203D01*
X349123Y850240D01*
X349103Y850279D01*
X349086Y850320D01*
X349072Y850363D01*
X349063Y850406D01*
X349057Y850450D01*
X349055Y850494D01*
X351214Y848716D02*
X351849Y848716D01*
X351898Y848718D01*
X351946Y848723D01*
X351994Y848733D01*
X352041Y848746D01*
X352086Y848762D01*
X352131Y848782D01*
X352173Y848805D01*
X352214Y848832D01*
X352253Y848861D01*
X352289Y848893D01*
X352323Y848929D01*
X352354Y848966D01*
X352382Y849006D01*
X352407Y849048D01*
X352428Y849091D01*
X352447Y849136D01*
X352461Y849183D01*
X352472Y849230D01*
X352480Y849278D01*
X352484Y849327D01*
X352484Y849375D01*
X352480Y849424D01*
X352472Y849472D01*
X352461Y849519D01*
X352447Y849566D01*
X352428Y849611D01*
X352407Y849654D01*
X352382Y849696D01*
X352354Y849736D01*
X352323Y849773D01*
X352289Y849809D01*
X352253Y849841D01*
X352214Y849870D01*
X352173Y849897D01*
X352131Y849920D01*
X352086Y849940D01*
X352041Y849956D01*
X351994Y849969D01*
X351946Y849979D01*
X351898Y849984D01*
X351849Y849986D01*
X351976Y851002D02*
X351214Y851002D01*
X351976Y851002D02*
X352020Y851000D01*
X352064Y850994D01*
X352107Y850985D01*
X352150Y850971D01*
X352191Y850954D01*
X352230Y850934D01*
X352267Y850910D01*
X352303Y850883D01*
X352335Y850853D01*
X352365Y850821D01*
X352392Y850785D01*
X352416Y850748D01*
X352436Y850709D01*
X352453Y850668D01*
X352467Y850625D01*
X352476Y850582D01*
X352482Y850538D01*
X352484Y850494D01*
X352482Y850450D01*
X352476Y850406D01*
X352467Y850363D01*
X352453Y850320D01*
X352436Y850279D01*
X352416Y850240D01*
X352392Y850203D01*
X352365Y850167D01*
X352335Y850135D01*
X352303Y850105D01*
X352267Y850078D01*
X352230Y850054D01*
X352191Y850034D01*
X352150Y850017D01*
X352107Y850003D01*
X352064Y849994D01*
X352020Y849988D01*
X351976Y849986D01*
X351468Y849986D01*
D11*
X233192Y848084D02*
X233192Y859768D01*
X231894Y848084D02*
X234490Y848084D01*
X234490Y859768D02*
X231894Y859768D01*
X241654Y848084D02*
X244250Y848084D01*
X241654Y848085D02*
X241555Y848087D01*
X241455Y848093D01*
X241356Y848102D01*
X241258Y848115D01*
X241160Y848132D01*
X241062Y848153D01*
X240966Y848178D01*
X240871Y848206D01*
X240777Y848238D01*
X240684Y848273D01*
X240592Y848312D01*
X240502Y848355D01*
X240414Y848400D01*
X240327Y848450D01*
X240243Y848502D01*
X240160Y848558D01*
X240080Y848616D01*
X240002Y848678D01*
X239927Y848743D01*
X239854Y848811D01*
X239784Y848881D01*
X239716Y848954D01*
X239651Y849029D01*
X239589Y849107D01*
X239531Y849187D01*
X239475Y849270D01*
X239423Y849354D01*
X239373Y849441D01*
X239328Y849529D01*
X239285Y849619D01*
X239246Y849711D01*
X239211Y849804D01*
X239179Y849898D01*
X239151Y849993D01*
X239126Y850089D01*
X239105Y850187D01*
X239088Y850285D01*
X239075Y850383D01*
X239066Y850482D01*
X239060Y850582D01*
X239058Y850681D01*
X239057Y850681D02*
X239057Y857172D01*
X239058Y857172D02*
X239060Y857271D01*
X239066Y857371D01*
X239075Y857470D01*
X239088Y857568D01*
X239105Y857666D01*
X239126Y857764D01*
X239151Y857860D01*
X239179Y857955D01*
X239211Y858049D01*
X239246Y858142D01*
X239285Y858234D01*
X239328Y858324D01*
X239373Y858412D01*
X239423Y858499D01*
X239475Y858583D01*
X239531Y858666D01*
X239589Y858746D01*
X239651Y858824D01*
X239716Y858899D01*
X239784Y858972D01*
X239854Y859042D01*
X239927Y859110D01*
X240002Y859175D01*
X240080Y859237D01*
X240160Y859295D01*
X240243Y859351D01*
X240327Y859403D01*
X240414Y859453D01*
X240502Y859498D01*
X240592Y859541D01*
X240684Y859580D01*
X240776Y859615D01*
X240871Y859647D01*
X240966Y859675D01*
X241062Y859700D01*
X241160Y859721D01*
X241258Y859738D01*
X241356Y859751D01*
X241455Y859760D01*
X241555Y859766D01*
X241654Y859768D01*
X244250Y859768D01*
X248615Y857172D02*
X251861Y859768D01*
X251861Y848084D01*
X248615Y848084D02*
X255107Y848084D01*
D12*
X259500Y829306D02*
X227500Y829306D01*
X227500Y878546D01*
X259500Y878546D01*
X259500Y829306D01*
X263000Y828126D02*
X278250Y828126D01*
D13*
X295313Y932790D02*
X308013Y932790D01*
X314363Y926440D01*
X314363Y913740D02*
X308013Y907390D01*
X269913Y932790D02*
X263563Y926440D01*
X269913Y932790D02*
X282613Y932790D01*
X288963Y926440D01*
X288963Y913740D02*
X282613Y907390D01*
X269913Y907390D01*
X263563Y913740D01*
X288963Y926440D02*
X295313Y932790D01*
X288963Y913740D02*
X295313Y907390D01*
X308013Y907390D01*
X231813Y932790D02*
X219113Y932790D01*
X231813Y932790D02*
X238163Y926440D01*
X238163Y913740D02*
X231813Y907390D01*
X238163Y926440D02*
X244513Y932790D01*
X257213Y932790D01*
X263563Y926440D01*
X263563Y913740D02*
X257213Y907390D01*
X244513Y907390D01*
X238163Y913740D01*
X193713Y932790D02*
X187363Y926440D01*
X193713Y932790D02*
X206413Y932790D01*
X212763Y926440D01*
X212763Y913740D02*
X206413Y907390D01*
X193713Y907390D01*
X187363Y913740D01*
X212763Y926440D02*
X219113Y932790D01*
X212763Y913740D02*
X219113Y907390D01*
X231813Y907390D01*
X155613Y932790D02*
X142913Y932790D01*
X155613Y932790D02*
X161963Y926440D01*
X161963Y913740D02*
X155613Y907390D01*
X161963Y926440D02*
X168313Y932790D01*
X181013Y932790D01*
X187363Y926440D01*
X187363Y913740D02*
X181013Y907390D01*
X168313Y907390D01*
X161963Y913740D01*
X136563Y913740D02*
X136563Y926440D01*
X142913Y932790D01*
X136563Y913740D02*
X142913Y907390D01*
X155613Y907390D01*
X320713Y932790D02*
X333413Y932790D01*
X339763Y926440D01*
X339763Y913740D01*
X333413Y907390D01*
X314363Y926440D02*
X320713Y932790D01*
X314363Y913740D02*
X320713Y907390D01*
X333413Y907390D01*
D14*
X140246Y941553D02*
X140246Y950443D01*
X140246Y941553D02*
X140244Y941453D01*
X140238Y941354D01*
X140228Y941254D01*
X140215Y941156D01*
X140197Y941057D01*
X140176Y940960D01*
X140151Y940864D01*
X140122Y940768D01*
X140089Y940674D01*
X140053Y940581D01*
X140013Y940490D01*
X139969Y940400D01*
X139922Y940312D01*
X139872Y940226D01*
X139818Y940142D01*
X139761Y940060D01*
X139701Y939981D01*
X139637Y939903D01*
X139571Y939829D01*
X139502Y939757D01*
X139430Y939688D01*
X139356Y939622D01*
X139278Y939558D01*
X139199Y939498D01*
X139117Y939441D01*
X139033Y939387D01*
X138947Y939337D01*
X138859Y939290D01*
X138769Y939246D01*
X138678Y939206D01*
X138585Y939170D01*
X138491Y939137D01*
X138395Y939108D01*
X138299Y939083D01*
X138202Y939062D01*
X138103Y939044D01*
X138005Y939031D01*
X137905Y939021D01*
X137806Y939015D01*
X137706Y939013D01*
X136436Y939013D01*
X145655Y947903D02*
X148830Y950443D01*
X148830Y939013D01*
X145655Y939013D02*
X152005Y939013D01*
D13*
X58753Y849746D02*
X58753Y837046D01*
X58753Y849746D02*
X65103Y856096D01*
X77803Y856096D02*
X84153Y849746D01*
X65103Y856096D02*
X58753Y862446D01*
X58753Y875146D01*
X65103Y881496D01*
X77803Y881496D02*
X84153Y875146D01*
X84153Y862446D01*
X77803Y856096D01*
X77803Y830696D02*
X65103Y830696D01*
X58753Y837046D01*
X77803Y830696D02*
X84153Y837046D01*
X84153Y849746D01*
X77803Y881496D02*
X65103Y881496D01*
D14*
X52530Y830569D02*
X41100Y830569D01*
X41100Y833744D01*
X41102Y833855D01*
X41108Y833965D01*
X41117Y834076D01*
X41131Y834186D01*
X41148Y834295D01*
X41169Y834404D01*
X41194Y834512D01*
X41223Y834619D01*
X41255Y834725D01*
X41291Y834830D01*
X41331Y834933D01*
X41374Y835035D01*
X41421Y835136D01*
X41472Y835235D01*
X41525Y835332D01*
X41582Y835426D01*
X41643Y835519D01*
X41706Y835610D01*
X41773Y835699D01*
X41843Y835785D01*
X41916Y835868D01*
X41991Y835950D01*
X42069Y836028D01*
X42151Y836103D01*
X42234Y836176D01*
X42320Y836246D01*
X42409Y836313D01*
X42500Y836376D01*
X42593Y836437D01*
X42687Y836494D01*
X42784Y836547D01*
X42883Y836598D01*
X42984Y836645D01*
X43086Y836688D01*
X43189Y836728D01*
X43294Y836764D01*
X43400Y836796D01*
X43507Y836825D01*
X43615Y836850D01*
X43724Y836871D01*
X43833Y836888D01*
X43943Y836902D01*
X44054Y836911D01*
X44164Y836917D01*
X44275Y836919D01*
X44386Y836917D01*
X44496Y836911D01*
X44607Y836902D01*
X44717Y836888D01*
X44826Y836871D01*
X44935Y836850D01*
X45043Y836825D01*
X45150Y836796D01*
X45256Y836764D01*
X45361Y836728D01*
X45464Y836688D01*
X45566Y836645D01*
X45667Y836598D01*
X45766Y836547D01*
X45863Y836494D01*
X45957Y836437D01*
X46050Y836376D01*
X46141Y836313D01*
X46230Y836246D01*
X46316Y836176D01*
X46399Y836103D01*
X46481Y836028D01*
X46559Y835950D01*
X46634Y835868D01*
X46707Y835785D01*
X46777Y835699D01*
X46844Y835610D01*
X46907Y835519D01*
X46968Y835426D01*
X47025Y835332D01*
X47078Y835235D01*
X47129Y835136D01*
X47176Y835035D01*
X47219Y834933D01*
X47259Y834830D01*
X47295Y834725D01*
X47327Y834619D01*
X47356Y834512D01*
X47381Y834404D01*
X47402Y834295D01*
X47419Y834186D01*
X47433Y834076D01*
X47442Y833965D01*
X47448Y833855D01*
X47450Y833744D01*
X47450Y830569D01*
X49355Y841427D02*
X44275Y841427D01*
X44164Y841429D01*
X44054Y841435D01*
X43943Y841444D01*
X43833Y841458D01*
X43724Y841475D01*
X43615Y841496D01*
X43507Y841521D01*
X43400Y841550D01*
X43294Y841582D01*
X43189Y841618D01*
X43086Y841658D01*
X42984Y841701D01*
X42883Y841748D01*
X42784Y841799D01*
X42688Y841852D01*
X42593Y841909D01*
X42500Y841970D01*
X42409Y842033D01*
X42320Y842100D01*
X42234Y842170D01*
X42151Y842243D01*
X42069Y842318D01*
X41991Y842396D01*
X41916Y842478D01*
X41843Y842561D01*
X41773Y842647D01*
X41706Y842736D01*
X41643Y842827D01*
X41582Y842920D01*
X41525Y843015D01*
X41472Y843111D01*
X41421Y843210D01*
X41374Y843311D01*
X41331Y843413D01*
X41291Y843516D01*
X41255Y843621D01*
X41223Y843727D01*
X41194Y843834D01*
X41169Y843942D01*
X41148Y844051D01*
X41131Y844160D01*
X41117Y844270D01*
X41108Y844381D01*
X41102Y844491D01*
X41100Y844602D01*
X41102Y844713D01*
X41108Y844823D01*
X41117Y844934D01*
X41131Y845044D01*
X41148Y845153D01*
X41169Y845262D01*
X41194Y845370D01*
X41223Y845477D01*
X41255Y845583D01*
X41291Y845688D01*
X41331Y845791D01*
X41374Y845893D01*
X41421Y845994D01*
X41472Y846093D01*
X41525Y846190D01*
X41582Y846284D01*
X41643Y846377D01*
X41706Y846468D01*
X41773Y846557D01*
X41843Y846643D01*
X41916Y846726D01*
X41991Y846808D01*
X42069Y846886D01*
X42151Y846961D01*
X42234Y847034D01*
X42320Y847104D01*
X42409Y847171D01*
X42500Y847234D01*
X42593Y847295D01*
X42688Y847352D01*
X42784Y847405D01*
X42883Y847456D01*
X42984Y847503D01*
X43086Y847546D01*
X43189Y847586D01*
X43294Y847622D01*
X43400Y847654D01*
X43507Y847683D01*
X43615Y847708D01*
X43724Y847729D01*
X43833Y847746D01*
X43943Y847760D01*
X44054Y847769D01*
X44164Y847775D01*
X44275Y847777D01*
X49355Y847777D01*
X49466Y847775D01*
X49576Y847769D01*
X49687Y847760D01*
X49797Y847746D01*
X49906Y847729D01*
X50015Y847708D01*
X50123Y847683D01*
X50230Y847654D01*
X50336Y847622D01*
X50441Y847586D01*
X50544Y847546D01*
X50646Y847503D01*
X50747Y847456D01*
X50846Y847405D01*
X50943Y847352D01*
X51037Y847295D01*
X51130Y847234D01*
X51221Y847171D01*
X51310Y847104D01*
X51396Y847034D01*
X51479Y846961D01*
X51561Y846886D01*
X51639Y846808D01*
X51714Y846726D01*
X51787Y846643D01*
X51857Y846557D01*
X51924Y846468D01*
X51987Y846377D01*
X52048Y846284D01*
X52105Y846189D01*
X52158Y846093D01*
X52209Y845994D01*
X52256Y845893D01*
X52299Y845791D01*
X52339Y845688D01*
X52375Y845583D01*
X52407Y845477D01*
X52436Y845370D01*
X52461Y845262D01*
X52482Y845153D01*
X52499Y845044D01*
X52513Y844934D01*
X52522Y844823D01*
X52528Y844713D01*
X52530Y844602D01*
X52528Y844491D01*
X52522Y844381D01*
X52513Y844270D01*
X52499Y844160D01*
X52482Y844051D01*
X52461Y843942D01*
X52436Y843834D01*
X52407Y843727D01*
X52375Y843621D01*
X52339Y843516D01*
X52299Y843413D01*
X52256Y843311D01*
X52209Y843210D01*
X52158Y843111D01*
X52105Y843015D01*
X52048Y842920D01*
X51987Y842827D01*
X51924Y842736D01*
X51857Y842647D01*
X51787Y842561D01*
X51714Y842478D01*
X51639Y842396D01*
X51561Y842318D01*
X51479Y842243D01*
X51396Y842170D01*
X51310Y842100D01*
X51221Y842033D01*
X51130Y841970D01*
X51037Y841909D01*
X50942Y841852D01*
X50846Y841799D01*
X50747Y841748D01*
X50646Y841701D01*
X50544Y841658D01*
X50441Y841618D01*
X50336Y841582D01*
X50230Y841550D01*
X50123Y841521D01*
X50015Y841496D01*
X49906Y841475D01*
X49797Y841458D01*
X49687Y841444D01*
X49576Y841435D01*
X49466Y841429D01*
X49355Y841427D01*
X41100Y852476D02*
X52530Y855016D01*
X44910Y857556D01*
X52530Y860096D01*
X41100Y862636D01*
X52530Y867742D02*
X52530Y872822D01*
X52530Y867742D02*
X41100Y867742D01*
X41100Y872822D01*
X46180Y871552D02*
X46180Y867742D01*
X41100Y877705D02*
X52530Y877705D01*
X41100Y877705D02*
X41100Y880880D01*
X41102Y880991D01*
X41108Y881101D01*
X41117Y881212D01*
X41131Y881322D01*
X41148Y881431D01*
X41169Y881540D01*
X41194Y881648D01*
X41223Y881755D01*
X41255Y881861D01*
X41291Y881966D01*
X41331Y882069D01*
X41374Y882171D01*
X41421Y882272D01*
X41472Y882371D01*
X41525Y882468D01*
X41582Y882562D01*
X41643Y882655D01*
X41706Y882746D01*
X41773Y882835D01*
X41843Y882921D01*
X41916Y883004D01*
X41991Y883086D01*
X42069Y883164D01*
X42151Y883239D01*
X42234Y883312D01*
X42320Y883382D01*
X42409Y883449D01*
X42500Y883512D01*
X42593Y883573D01*
X42687Y883630D01*
X42784Y883683D01*
X42883Y883734D01*
X42984Y883781D01*
X43086Y883824D01*
X43189Y883864D01*
X43294Y883900D01*
X43400Y883932D01*
X43507Y883961D01*
X43615Y883986D01*
X43724Y884007D01*
X43833Y884024D01*
X43943Y884038D01*
X44054Y884047D01*
X44164Y884053D01*
X44275Y884055D01*
X44386Y884053D01*
X44496Y884047D01*
X44607Y884038D01*
X44717Y884024D01*
X44826Y884007D01*
X44935Y883986D01*
X45043Y883961D01*
X45150Y883932D01*
X45256Y883900D01*
X45361Y883864D01*
X45464Y883824D01*
X45566Y883781D01*
X45667Y883734D01*
X45766Y883683D01*
X45863Y883630D01*
X45957Y883573D01*
X46050Y883512D01*
X46141Y883449D01*
X46230Y883382D01*
X46316Y883312D01*
X46399Y883239D01*
X46481Y883164D01*
X46559Y883086D01*
X46634Y883004D01*
X46707Y882921D01*
X46777Y882835D01*
X46844Y882746D01*
X46907Y882655D01*
X46968Y882562D01*
X47025Y882468D01*
X47078Y882371D01*
X47129Y882272D01*
X47176Y882171D01*
X47219Y882069D01*
X47259Y881966D01*
X47295Y881861D01*
X47327Y881755D01*
X47356Y881648D01*
X47381Y881540D01*
X47402Y881431D01*
X47419Y881322D01*
X47433Y881212D01*
X47442Y881101D01*
X47448Y880991D01*
X47450Y880880D01*
X47450Y877705D01*
X47450Y881515D02*
X52530Y884055D01*
X48085Y889179D02*
X48085Y896799D01*
X52530Y902895D02*
X41100Y902895D01*
X52530Y901625D02*
X52530Y904165D01*
X41100Y904165D02*
X41100Y901625D01*
X41100Y909245D02*
X52530Y909245D01*
X52530Y915595D02*
X41100Y909245D01*
X41100Y915595D02*
X52530Y915595D01*
D15*
X321016Y807397D02*
X321016Y801397D01*
X333016Y801397D02*
X333016Y807397D01*
D10*
X318634Y796904D02*
X314824Y796904D01*
X314824Y797963D01*
X314825Y797963D02*
X314827Y798027D01*
X314833Y798091D01*
X314842Y798154D01*
X314856Y798216D01*
X314873Y798278D01*
X314894Y798338D01*
X314918Y798397D01*
X314946Y798455D01*
X314978Y798510D01*
X315012Y798564D01*
X315050Y798615D01*
X315091Y798665D01*
X315135Y798711D01*
X315181Y798755D01*
X315231Y798796D01*
X315282Y798834D01*
X315336Y798868D01*
X315391Y798900D01*
X315449Y798928D01*
X315508Y798952D01*
X315568Y798973D01*
X315630Y798990D01*
X315692Y799004D01*
X315755Y799013D01*
X315819Y799019D01*
X315883Y799021D01*
X315947Y799019D01*
X316011Y799013D01*
X316074Y799004D01*
X316136Y798990D01*
X316198Y798973D01*
X316258Y798952D01*
X316317Y798928D01*
X316375Y798900D01*
X316430Y798868D01*
X316484Y798834D01*
X316535Y798796D01*
X316585Y798755D01*
X316631Y798711D01*
X316675Y798665D01*
X316716Y798615D01*
X316754Y798564D01*
X316788Y798510D01*
X316820Y798455D01*
X316848Y798397D01*
X316872Y798338D01*
X316893Y798278D01*
X316910Y798216D01*
X316924Y798154D01*
X316933Y798091D01*
X316939Y798027D01*
X316941Y797963D01*
X316941Y796904D01*
X316941Y798174D02*
X318634Y799021D01*
X315671Y800541D02*
X314824Y801599D01*
X318634Y801599D01*
X318634Y800541D02*
X318634Y802658D01*
M02*
