G04 EAGLE Gerber RS-274X export*
G75*
%MOMM*%
%FSLAX34Y34*%
%LPD*%
%INSilkscreen Top*%
%IPPOS*%
%AMOC8*
5,1,8,0,0,1.08239X$1,22.5*%
G01*
%ADD10C,0.050800*%
%ADD11C,0.152400*%
%ADD12C,0.127000*%


D10*
X70848Y28014D02*
X69606Y28014D01*
X69536Y28016D01*
X69467Y28022D01*
X69398Y28032D01*
X69330Y28045D01*
X69262Y28063D01*
X69196Y28084D01*
X69131Y28109D01*
X69067Y28137D01*
X69005Y28169D01*
X68945Y28204D01*
X68887Y28243D01*
X68832Y28285D01*
X68778Y28330D01*
X68728Y28378D01*
X68680Y28428D01*
X68635Y28482D01*
X68593Y28537D01*
X68554Y28595D01*
X68519Y28655D01*
X68487Y28717D01*
X68459Y28781D01*
X68434Y28846D01*
X68413Y28912D01*
X68395Y28980D01*
X68382Y29048D01*
X68372Y29117D01*
X68366Y29186D01*
X68364Y29256D01*
X68364Y32360D01*
X68366Y32430D01*
X68372Y32499D01*
X68382Y32568D01*
X68395Y32636D01*
X68413Y32704D01*
X68434Y32770D01*
X68459Y32835D01*
X68487Y32899D01*
X68519Y32961D01*
X68554Y33021D01*
X68593Y33079D01*
X68635Y33134D01*
X68680Y33188D01*
X68728Y33238D01*
X68778Y33286D01*
X68832Y33331D01*
X68887Y33373D01*
X68945Y33412D01*
X69005Y33447D01*
X69067Y33479D01*
X69131Y33507D01*
X69196Y33532D01*
X69262Y33553D01*
X69330Y33571D01*
X69398Y33584D01*
X69467Y33594D01*
X69536Y33600D01*
X69606Y33602D01*
X70848Y33602D01*
X72952Y32360D02*
X74504Y33602D01*
X74504Y28014D01*
X72952Y28014D02*
X76057Y28014D01*
D11*
X38100Y107950D02*
X38100Y120650D01*
X38100Y107950D02*
X31750Y101600D01*
X19050Y101600D02*
X12700Y107950D01*
X31750Y101600D02*
X38100Y95250D01*
X38100Y82550D01*
X31750Y76200D01*
X19050Y76200D02*
X12700Y82550D01*
X12700Y95250D01*
X19050Y101600D01*
X19050Y127000D02*
X31750Y127000D01*
X38100Y120650D01*
X19050Y127000D02*
X12700Y120650D01*
X12700Y107950D01*
X31750Y76200D02*
X38100Y69850D01*
X38100Y57150D01*
X31750Y50800D01*
X19050Y50800D02*
X12700Y57150D01*
X12700Y69850D01*
X19050Y76200D01*
X38100Y44450D02*
X38100Y31750D01*
X31750Y25400D01*
X19050Y25400D01*
X12700Y31750D01*
X31750Y50800D02*
X38100Y44450D01*
X19050Y50800D02*
X12700Y44450D01*
X12700Y31750D01*
D12*
X22225Y131445D02*
X19685Y134620D01*
X31115Y134620D01*
X31115Y131445D02*
X31115Y137795D01*
X19685Y18415D02*
X28575Y15875D01*
X28575Y22225D01*
X26035Y20320D02*
X31115Y20320D01*
X53975Y101346D02*
X53973Y101446D01*
X53967Y101545D01*
X53957Y101645D01*
X53944Y101743D01*
X53926Y101842D01*
X53905Y101939D01*
X53880Y102035D01*
X53851Y102131D01*
X53818Y102225D01*
X53782Y102318D01*
X53742Y102409D01*
X53698Y102499D01*
X53651Y102587D01*
X53601Y102673D01*
X53547Y102757D01*
X53490Y102839D01*
X53430Y102918D01*
X53366Y102996D01*
X53300Y103070D01*
X53231Y103142D01*
X53159Y103211D01*
X53085Y103277D01*
X53007Y103341D01*
X52928Y103401D01*
X52846Y103458D01*
X52762Y103512D01*
X52676Y103562D01*
X52588Y103609D01*
X52498Y103653D01*
X52407Y103693D01*
X52314Y103729D01*
X52220Y103762D01*
X52124Y103791D01*
X52028Y103816D01*
X51931Y103837D01*
X51832Y103855D01*
X51734Y103868D01*
X51634Y103878D01*
X51535Y103884D01*
X51435Y103886D01*
X53975Y101346D02*
X53973Y101205D01*
X53968Y101064D01*
X53958Y100923D01*
X53945Y100782D01*
X53929Y100642D01*
X53908Y100502D01*
X53884Y100363D01*
X53856Y100224D01*
X53825Y100087D01*
X53790Y99950D01*
X53752Y99814D01*
X53710Y99679D01*
X53664Y99546D01*
X53615Y99413D01*
X53562Y99282D01*
X53506Y99153D01*
X53447Y99024D01*
X53384Y98898D01*
X53318Y98773D01*
X53249Y98650D01*
X53176Y98529D01*
X53100Y98410D01*
X53021Y98292D01*
X52940Y98177D01*
X52855Y98065D01*
X52767Y97954D01*
X52676Y97846D01*
X52583Y97740D01*
X52486Y97637D01*
X52387Y97536D01*
X45085Y97854D02*
X44985Y97856D01*
X44886Y97862D01*
X44786Y97872D01*
X44688Y97885D01*
X44589Y97903D01*
X44492Y97924D01*
X44396Y97949D01*
X44300Y97978D01*
X44206Y98011D01*
X44113Y98047D01*
X44022Y98087D01*
X43932Y98131D01*
X43844Y98178D01*
X43758Y98228D01*
X43674Y98282D01*
X43592Y98339D01*
X43513Y98399D01*
X43435Y98463D01*
X43361Y98529D01*
X43289Y98598D01*
X43220Y98670D01*
X43154Y98744D01*
X43090Y98822D01*
X43030Y98901D01*
X42973Y98983D01*
X42919Y99067D01*
X42869Y99153D01*
X42822Y99241D01*
X42778Y99331D01*
X42738Y99422D01*
X42702Y99515D01*
X42669Y99609D01*
X42640Y99705D01*
X42615Y99801D01*
X42594Y99898D01*
X42576Y99997D01*
X42563Y100095D01*
X42553Y100195D01*
X42547Y100294D01*
X42545Y100394D01*
X42547Y100527D01*
X42552Y100660D01*
X42562Y100793D01*
X42575Y100926D01*
X42592Y101058D01*
X42612Y101190D01*
X42636Y101321D01*
X42664Y101451D01*
X42695Y101581D01*
X42730Y101709D01*
X42769Y101837D01*
X42811Y101963D01*
X42857Y102088D01*
X42906Y102212D01*
X42958Y102335D01*
X43014Y102456D01*
X43074Y102575D01*
X43136Y102693D01*
X43202Y102808D01*
X43271Y102922D01*
X43344Y103034D01*
X43419Y103144D01*
X43498Y103252D01*
X47308Y99123D02*
X47256Y99039D01*
X47201Y98956D01*
X47142Y98876D01*
X47081Y98798D01*
X47017Y98723D01*
X46949Y98650D01*
X46879Y98579D01*
X46807Y98512D01*
X46732Y98447D01*
X46654Y98385D01*
X46574Y98326D01*
X46492Y98270D01*
X46408Y98218D01*
X46322Y98169D01*
X46234Y98123D01*
X46144Y98080D01*
X46053Y98041D01*
X45960Y98006D01*
X45866Y97974D01*
X45771Y97946D01*
X45675Y97921D01*
X45578Y97901D01*
X45480Y97883D01*
X45382Y97870D01*
X45283Y97861D01*
X45184Y97855D01*
X45085Y97853D01*
X49212Y102616D02*
X49264Y102700D01*
X49319Y102783D01*
X49378Y102863D01*
X49439Y102941D01*
X49503Y103016D01*
X49571Y103089D01*
X49641Y103160D01*
X49713Y103227D01*
X49788Y103292D01*
X49866Y103354D01*
X49946Y103413D01*
X50028Y103469D01*
X50112Y103521D01*
X50198Y103570D01*
X50286Y103616D01*
X50376Y103659D01*
X50467Y103698D01*
X50560Y103733D01*
X50654Y103765D01*
X50749Y103793D01*
X50845Y103818D01*
X50942Y103838D01*
X51040Y103856D01*
X51138Y103869D01*
X51237Y103878D01*
X51336Y103884D01*
X51435Y103886D01*
X49213Y102616D02*
X47308Y99124D01*
X42545Y107950D02*
X53975Y111760D01*
X42545Y115570D01*
X45085Y120015D02*
X42545Y123190D01*
X53975Y123190D01*
X53975Y120015D02*
X53975Y126365D01*
D11*
X135100Y101600D02*
X135100Y38100D01*
X135100Y101600D02*
X54650Y101600D01*
X54650Y101800D01*
X54650Y101600D02*
X54650Y38100D01*
X135100Y38100D01*
X128061Y42850D02*
X128063Y42956D01*
X128069Y43061D01*
X128079Y43166D01*
X128093Y43271D01*
X128111Y43375D01*
X128133Y43478D01*
X128158Y43580D01*
X128188Y43682D01*
X128221Y43782D01*
X128258Y43881D01*
X128299Y43978D01*
X128344Y44074D01*
X128392Y44168D01*
X128444Y44260D01*
X128499Y44350D01*
X128557Y44438D01*
X128619Y44523D01*
X128684Y44607D01*
X128752Y44687D01*
X128823Y44765D01*
X128897Y44841D01*
X128973Y44913D01*
X129053Y44983D01*
X129135Y45049D01*
X129219Y45113D01*
X129306Y45173D01*
X129395Y45229D01*
X129486Y45283D01*
X129579Y45333D01*
X129674Y45379D01*
X129771Y45422D01*
X129869Y45461D01*
X129968Y45496D01*
X130069Y45527D01*
X130171Y45555D01*
X130274Y45579D01*
X130377Y45599D01*
X130482Y45615D01*
X130586Y45627D01*
X130692Y45635D01*
X130797Y45639D01*
X130903Y45639D01*
X131008Y45635D01*
X131114Y45627D01*
X131218Y45615D01*
X131323Y45599D01*
X131426Y45579D01*
X131529Y45555D01*
X131631Y45527D01*
X131732Y45496D01*
X131831Y45461D01*
X131929Y45422D01*
X132026Y45379D01*
X132121Y45333D01*
X132214Y45283D01*
X132305Y45229D01*
X132394Y45173D01*
X132481Y45113D01*
X132565Y45049D01*
X132647Y44983D01*
X132727Y44913D01*
X132803Y44841D01*
X132877Y44765D01*
X132948Y44687D01*
X133016Y44607D01*
X133081Y44523D01*
X133143Y44438D01*
X133201Y44350D01*
X133256Y44260D01*
X133308Y44168D01*
X133356Y44074D01*
X133401Y43978D01*
X133442Y43881D01*
X133479Y43782D01*
X133512Y43682D01*
X133542Y43580D01*
X133567Y43478D01*
X133589Y43375D01*
X133607Y43271D01*
X133621Y43166D01*
X133631Y43061D01*
X133637Y42956D01*
X133639Y42850D01*
X133637Y42744D01*
X133631Y42639D01*
X133621Y42534D01*
X133607Y42429D01*
X133589Y42325D01*
X133567Y42222D01*
X133542Y42120D01*
X133512Y42018D01*
X133479Y41918D01*
X133442Y41819D01*
X133401Y41722D01*
X133356Y41626D01*
X133308Y41532D01*
X133256Y41440D01*
X133201Y41350D01*
X133143Y41262D01*
X133081Y41177D01*
X133016Y41093D01*
X132948Y41013D01*
X132877Y40935D01*
X132803Y40859D01*
X132727Y40787D01*
X132647Y40717D01*
X132565Y40651D01*
X132481Y40587D01*
X132394Y40527D01*
X132305Y40471D01*
X132214Y40417D01*
X132121Y40367D01*
X132026Y40321D01*
X131929Y40278D01*
X131831Y40239D01*
X131732Y40204D01*
X131631Y40173D01*
X131529Y40145D01*
X131426Y40121D01*
X131323Y40101D01*
X131218Y40085D01*
X131114Y40073D01*
X131008Y40065D01*
X130903Y40061D01*
X130797Y40061D01*
X130692Y40065D01*
X130586Y40073D01*
X130482Y40085D01*
X130377Y40101D01*
X130274Y40121D01*
X130171Y40145D01*
X130069Y40173D01*
X129968Y40204D01*
X129869Y40239D01*
X129771Y40278D01*
X129674Y40321D01*
X129579Y40367D01*
X129486Y40417D01*
X129395Y40471D01*
X129306Y40527D01*
X129219Y40587D01*
X129135Y40651D01*
X129053Y40717D01*
X128973Y40787D01*
X128897Y40859D01*
X128823Y40935D01*
X128752Y41013D01*
X128684Y41093D01*
X128619Y41177D01*
X128557Y41262D01*
X128499Y41350D01*
X128444Y41440D01*
X128392Y41532D01*
X128344Y41626D01*
X128299Y41722D01*
X128258Y41819D01*
X128221Y41918D01*
X128188Y42018D01*
X128158Y42120D01*
X128133Y42222D01*
X128111Y42325D01*
X128093Y42429D01*
X128079Y42534D01*
X128069Y42639D01*
X128063Y42744D01*
X128061Y42850D01*
D10*
X96117Y27296D02*
X96117Y23260D01*
X96118Y23260D02*
X96120Y23183D01*
X96126Y23105D01*
X96135Y23029D01*
X96149Y22952D01*
X96166Y22877D01*
X96187Y22803D01*
X96212Y22729D01*
X96240Y22657D01*
X96272Y22587D01*
X96307Y22518D01*
X96346Y22451D01*
X96388Y22386D01*
X96433Y22323D01*
X96481Y22262D01*
X96532Y22204D01*
X96586Y22149D01*
X96643Y22096D01*
X96702Y22047D01*
X96764Y22000D01*
X96828Y21956D01*
X96894Y21916D01*
X96962Y21879D01*
X97032Y21845D01*
X97103Y21815D01*
X97176Y21789D01*
X97250Y21766D01*
X97325Y21747D01*
X97400Y21732D01*
X97477Y21720D01*
X97554Y21712D01*
X97631Y21708D01*
X97709Y21708D01*
X97786Y21712D01*
X97863Y21720D01*
X97940Y21732D01*
X98015Y21747D01*
X98090Y21766D01*
X98164Y21789D01*
X98237Y21815D01*
X98308Y21845D01*
X98378Y21879D01*
X98446Y21916D01*
X98512Y21956D01*
X98576Y22000D01*
X98638Y22047D01*
X98697Y22096D01*
X98754Y22149D01*
X98808Y22204D01*
X98859Y22262D01*
X98907Y22323D01*
X98952Y22386D01*
X98994Y22451D01*
X99033Y22518D01*
X99068Y22587D01*
X99100Y22657D01*
X99128Y22729D01*
X99153Y22803D01*
X99174Y22877D01*
X99191Y22952D01*
X99205Y23029D01*
X99214Y23105D01*
X99220Y23183D01*
X99222Y23260D01*
X99222Y27296D01*
X102973Y27296D02*
X102973Y21708D01*
X102973Y24502D02*
X102197Y24968D01*
X102146Y25001D01*
X102097Y25037D01*
X102051Y25076D01*
X102008Y25119D01*
X101967Y25163D01*
X101929Y25211D01*
X101895Y25261D01*
X101864Y25313D01*
X101836Y25367D01*
X101812Y25422D01*
X101791Y25480D01*
X101775Y25538D01*
X101762Y25597D01*
X101753Y25657D01*
X101748Y25717D01*
X101747Y25778D01*
X101750Y25839D01*
X101757Y25899D01*
X101768Y25959D01*
X101783Y26017D01*
X101801Y26075D01*
X101823Y26132D01*
X101849Y26186D01*
X101879Y26239D01*
X101912Y26290D01*
X101948Y26339D01*
X101987Y26385D01*
X102029Y26429D01*
X102074Y26470D01*
X102121Y26507D01*
X102171Y26542D01*
X102223Y26573D01*
X102277Y26601D01*
X102333Y26625D01*
X102390Y26645D01*
X102448Y26662D01*
X102507Y26675D01*
X102508Y26675D02*
X102605Y26691D01*
X102703Y26703D01*
X102801Y26710D01*
X102900Y26714D01*
X102998Y26715D01*
X103097Y26711D01*
X103195Y26703D01*
X103293Y26691D01*
X103390Y26675D01*
X103486Y26656D01*
X103582Y26632D01*
X103677Y26605D01*
X103770Y26574D01*
X103862Y26539D01*
X103953Y26501D01*
X104042Y26459D01*
X104130Y26414D01*
X104215Y26365D01*
X102973Y24502D02*
X103749Y24036D01*
X103800Y24003D01*
X103849Y23967D01*
X103895Y23928D01*
X103938Y23885D01*
X103979Y23841D01*
X104017Y23793D01*
X104051Y23743D01*
X104082Y23691D01*
X104110Y23637D01*
X104134Y23582D01*
X104155Y23524D01*
X104171Y23466D01*
X104184Y23407D01*
X104193Y23347D01*
X104198Y23287D01*
X104199Y23226D01*
X104196Y23165D01*
X104189Y23105D01*
X104178Y23045D01*
X104163Y22987D01*
X104145Y22929D01*
X104123Y22872D01*
X104097Y22818D01*
X104067Y22765D01*
X104034Y22714D01*
X103998Y22665D01*
X103959Y22619D01*
X103917Y22575D01*
X103872Y22534D01*
X103825Y22497D01*
X103775Y22462D01*
X103723Y22431D01*
X103669Y22403D01*
X103613Y22379D01*
X103556Y22359D01*
X103498Y22342D01*
X103439Y22329D01*
X103342Y22313D01*
X103244Y22301D01*
X103146Y22294D01*
X103047Y22290D01*
X102949Y22289D01*
X102850Y22293D01*
X102752Y22301D01*
X102654Y22313D01*
X102557Y22329D01*
X102461Y22348D01*
X102365Y22372D01*
X102270Y22399D01*
X102177Y22430D01*
X102085Y22465D01*
X101994Y22503D01*
X101905Y22545D01*
X101817Y22590D01*
X101732Y22639D01*
X106542Y26054D02*
X108094Y27296D01*
X108094Y21708D01*
X106542Y21708D02*
X109646Y21708D01*
X27922Y110458D02*
X29785Y116046D01*
X31647Y110458D01*
X31182Y111855D02*
X28388Y111855D01*
X34905Y110458D02*
X34905Y116046D01*
X33353Y116046D02*
X36457Y116046D01*
X38668Y110458D02*
X41151Y110458D01*
X38668Y110458D02*
X38668Y116046D01*
X41151Y116046D01*
X40530Y113562D02*
X38668Y113562D01*
X44454Y110458D02*
X45696Y110458D01*
X44454Y110458D02*
X44384Y110460D01*
X44315Y110466D01*
X44246Y110476D01*
X44178Y110489D01*
X44110Y110507D01*
X44044Y110528D01*
X43979Y110553D01*
X43915Y110581D01*
X43853Y110613D01*
X43793Y110648D01*
X43735Y110687D01*
X43680Y110729D01*
X43626Y110774D01*
X43576Y110822D01*
X43528Y110872D01*
X43483Y110926D01*
X43441Y110981D01*
X43402Y111039D01*
X43367Y111099D01*
X43335Y111161D01*
X43307Y111225D01*
X43282Y111290D01*
X43261Y111356D01*
X43243Y111424D01*
X43230Y111492D01*
X43220Y111561D01*
X43214Y111630D01*
X43212Y111700D01*
X43212Y114804D01*
X43214Y114874D01*
X43220Y114943D01*
X43230Y115012D01*
X43243Y115080D01*
X43261Y115148D01*
X43282Y115214D01*
X43307Y115279D01*
X43335Y115343D01*
X43367Y115405D01*
X43402Y115465D01*
X43441Y115523D01*
X43483Y115578D01*
X43528Y115632D01*
X43576Y115682D01*
X43626Y115730D01*
X43680Y115775D01*
X43735Y115817D01*
X43793Y115856D01*
X43853Y115891D01*
X43915Y115923D01*
X43979Y115951D01*
X44044Y115976D01*
X44110Y115997D01*
X44178Y116015D01*
X44246Y116028D01*
X44315Y116038D01*
X44384Y116044D01*
X44454Y116046D01*
X45696Y116046D01*
X49026Y110458D02*
X50268Y110458D01*
X49026Y110458D02*
X48956Y110460D01*
X48887Y110466D01*
X48818Y110476D01*
X48750Y110489D01*
X48682Y110507D01*
X48616Y110528D01*
X48551Y110553D01*
X48487Y110581D01*
X48425Y110613D01*
X48365Y110648D01*
X48307Y110687D01*
X48252Y110729D01*
X48198Y110774D01*
X48148Y110822D01*
X48100Y110872D01*
X48055Y110926D01*
X48013Y110981D01*
X47974Y111039D01*
X47939Y111099D01*
X47907Y111161D01*
X47879Y111225D01*
X47854Y111290D01*
X47833Y111356D01*
X47815Y111424D01*
X47802Y111492D01*
X47792Y111561D01*
X47786Y111630D01*
X47784Y111700D01*
X47784Y114804D01*
X47786Y114874D01*
X47792Y114943D01*
X47802Y115012D01*
X47815Y115080D01*
X47833Y115148D01*
X47854Y115214D01*
X47879Y115279D01*
X47907Y115343D01*
X47939Y115405D01*
X47974Y115465D01*
X48013Y115523D01*
X48055Y115578D01*
X48100Y115632D01*
X48148Y115682D01*
X48198Y115730D01*
X48252Y115775D01*
X48307Y115817D01*
X48365Y115856D01*
X48425Y115891D01*
X48487Y115923D01*
X48551Y115951D01*
X48616Y115976D01*
X48682Y115997D01*
X48750Y116015D01*
X48818Y116028D01*
X48887Y116038D01*
X48956Y116044D01*
X49026Y116046D01*
X50268Y116046D01*
X52372Y113562D02*
X54235Y113562D01*
X54235Y113563D02*
X54305Y113561D01*
X54374Y113555D01*
X54443Y113545D01*
X54511Y113532D01*
X54579Y113514D01*
X54645Y113493D01*
X54710Y113468D01*
X54774Y113440D01*
X54836Y113408D01*
X54896Y113373D01*
X54954Y113334D01*
X55009Y113292D01*
X55063Y113247D01*
X55113Y113199D01*
X55161Y113149D01*
X55206Y113095D01*
X55248Y113040D01*
X55287Y112982D01*
X55322Y112922D01*
X55354Y112860D01*
X55382Y112796D01*
X55407Y112731D01*
X55428Y112665D01*
X55446Y112597D01*
X55459Y112529D01*
X55469Y112460D01*
X55475Y112391D01*
X55477Y112321D01*
X55477Y112010D01*
X55476Y112010D02*
X55474Y111933D01*
X55468Y111855D01*
X55459Y111779D01*
X55445Y111702D01*
X55428Y111627D01*
X55407Y111553D01*
X55382Y111479D01*
X55354Y111407D01*
X55322Y111337D01*
X55287Y111268D01*
X55248Y111201D01*
X55206Y111136D01*
X55161Y111073D01*
X55113Y111012D01*
X55062Y110954D01*
X55008Y110899D01*
X54951Y110846D01*
X54892Y110797D01*
X54830Y110750D01*
X54766Y110706D01*
X54700Y110666D01*
X54632Y110629D01*
X54562Y110595D01*
X54491Y110565D01*
X54418Y110539D01*
X54344Y110516D01*
X54269Y110497D01*
X54194Y110482D01*
X54117Y110470D01*
X54040Y110462D01*
X53963Y110458D01*
X53885Y110458D01*
X53808Y110462D01*
X53731Y110470D01*
X53654Y110482D01*
X53579Y110497D01*
X53504Y110516D01*
X53430Y110539D01*
X53357Y110565D01*
X53286Y110595D01*
X53216Y110629D01*
X53148Y110666D01*
X53082Y110706D01*
X53018Y110750D01*
X52956Y110797D01*
X52897Y110846D01*
X52840Y110899D01*
X52786Y110954D01*
X52735Y111012D01*
X52687Y111073D01*
X52642Y111136D01*
X52600Y111201D01*
X52561Y111268D01*
X52526Y111337D01*
X52494Y111407D01*
X52466Y111479D01*
X52441Y111553D01*
X52420Y111627D01*
X52403Y111702D01*
X52389Y111779D01*
X52380Y111855D01*
X52374Y111933D01*
X52372Y112010D01*
X52372Y113562D01*
X52374Y113660D01*
X52380Y113757D01*
X52389Y113854D01*
X52403Y113951D01*
X52420Y114047D01*
X52441Y114142D01*
X52465Y114236D01*
X52494Y114330D01*
X52526Y114422D01*
X52561Y114513D01*
X52600Y114602D01*
X52643Y114690D01*
X52689Y114776D01*
X52738Y114860D01*
X52791Y114942D01*
X52846Y115022D01*
X52905Y115100D01*
X52967Y115175D01*
X53032Y115248D01*
X53100Y115318D01*
X53170Y115386D01*
X53243Y115451D01*
X53318Y115513D01*
X53396Y115572D01*
X53476Y115627D01*
X53558Y115680D01*
X53642Y115729D01*
X53728Y115775D01*
X53816Y115818D01*
X53905Y115857D01*
X53996Y115892D01*
X54088Y115924D01*
X54182Y115953D01*
X54276Y115977D01*
X54371Y115998D01*
X54467Y116015D01*
X54564Y116029D01*
X54661Y116038D01*
X54758Y116044D01*
X54856Y116046D01*
X58325Y115270D02*
X58269Y115152D01*
X58217Y115032D01*
X58168Y114911D01*
X58123Y114789D01*
X58081Y114665D01*
X58043Y114540D01*
X58008Y114414D01*
X57977Y114287D01*
X57949Y114160D01*
X57925Y114032D01*
X57905Y113903D01*
X57889Y113773D01*
X57876Y113643D01*
X57866Y113513D01*
X57861Y113383D01*
X57859Y113252D01*
X58324Y115270D02*
X58347Y115330D01*
X58373Y115390D01*
X58402Y115447D01*
X58435Y115503D01*
X58471Y115557D01*
X58509Y115609D01*
X58551Y115659D01*
X58595Y115706D01*
X58642Y115751D01*
X58692Y115793D01*
X58743Y115832D01*
X58797Y115868D01*
X58853Y115901D01*
X58910Y115931D01*
X58969Y115958D01*
X59030Y115981D01*
X59091Y116001D01*
X59154Y116017D01*
X59218Y116030D01*
X59282Y116039D01*
X59346Y116044D01*
X59411Y116046D01*
X59476Y116044D01*
X59540Y116039D01*
X59604Y116030D01*
X59668Y116017D01*
X59731Y116001D01*
X59792Y115981D01*
X59853Y115958D01*
X59912Y115931D01*
X59969Y115901D01*
X60025Y115868D01*
X60079Y115832D01*
X60130Y115793D01*
X60180Y115751D01*
X60227Y115706D01*
X60271Y115659D01*
X60313Y115609D01*
X60351Y115557D01*
X60387Y115503D01*
X60420Y115447D01*
X60449Y115390D01*
X60475Y115330D01*
X60498Y115270D01*
X60497Y115270D02*
X60553Y115152D01*
X60605Y115032D01*
X60654Y114911D01*
X60699Y114789D01*
X60741Y114665D01*
X60779Y114540D01*
X60814Y114414D01*
X60845Y114288D01*
X60873Y114160D01*
X60897Y114032D01*
X60917Y113903D01*
X60933Y113773D01*
X60946Y113643D01*
X60956Y113513D01*
X60961Y113383D01*
X60963Y113252D01*
X57859Y113252D02*
X57861Y113121D01*
X57866Y112991D01*
X57876Y112861D01*
X57889Y112731D01*
X57905Y112601D01*
X57925Y112472D01*
X57949Y112344D01*
X57977Y112217D01*
X58008Y112090D01*
X58043Y111964D01*
X58081Y111839D01*
X58123Y111715D01*
X58168Y111593D01*
X58217Y111472D01*
X58269Y111352D01*
X58325Y111234D01*
X58324Y111234D02*
X58347Y111174D01*
X58373Y111114D01*
X58402Y111057D01*
X58435Y111001D01*
X58471Y110947D01*
X58509Y110895D01*
X58551Y110845D01*
X58595Y110798D01*
X58642Y110753D01*
X58692Y110711D01*
X58743Y110672D01*
X58797Y110636D01*
X58853Y110603D01*
X58910Y110573D01*
X58969Y110546D01*
X59030Y110523D01*
X59091Y110503D01*
X59154Y110487D01*
X59218Y110474D01*
X59282Y110465D01*
X59346Y110460D01*
X59411Y110458D01*
X60497Y111234D02*
X60553Y111352D01*
X60605Y111472D01*
X60654Y111593D01*
X60699Y111715D01*
X60741Y111839D01*
X60779Y111964D01*
X60814Y112090D01*
X60845Y112216D01*
X60873Y112344D01*
X60897Y112472D01*
X60917Y112601D01*
X60933Y112731D01*
X60946Y112861D01*
X60956Y112991D01*
X60961Y113121D01*
X60963Y113252D01*
X60498Y111234D02*
X60475Y111174D01*
X60449Y111114D01*
X60420Y111057D01*
X60387Y111001D01*
X60351Y110947D01*
X60313Y110895D01*
X60271Y110845D01*
X60227Y110798D01*
X60180Y110753D01*
X60130Y110711D01*
X60079Y110672D01*
X60025Y110636D01*
X59969Y110603D01*
X59912Y110573D01*
X59853Y110546D01*
X59792Y110523D01*
X59731Y110503D01*
X59668Y110487D01*
X59604Y110474D01*
X59540Y110465D01*
X59476Y110460D01*
X59411Y110458D01*
X58169Y111700D02*
X60653Y114804D01*
X63345Y112010D02*
X63347Y112087D01*
X63353Y112165D01*
X63362Y112241D01*
X63376Y112318D01*
X63393Y112393D01*
X63414Y112467D01*
X63439Y112541D01*
X63467Y112613D01*
X63499Y112683D01*
X63534Y112752D01*
X63573Y112819D01*
X63615Y112884D01*
X63660Y112947D01*
X63708Y113008D01*
X63759Y113066D01*
X63813Y113121D01*
X63870Y113174D01*
X63929Y113223D01*
X63991Y113270D01*
X64055Y113314D01*
X64121Y113354D01*
X64189Y113391D01*
X64259Y113425D01*
X64330Y113455D01*
X64403Y113481D01*
X64477Y113504D01*
X64552Y113523D01*
X64627Y113538D01*
X64704Y113550D01*
X64781Y113558D01*
X64858Y113562D01*
X64936Y113562D01*
X65013Y113558D01*
X65090Y113550D01*
X65167Y113538D01*
X65242Y113523D01*
X65317Y113504D01*
X65391Y113481D01*
X65464Y113455D01*
X65535Y113425D01*
X65605Y113391D01*
X65673Y113354D01*
X65739Y113314D01*
X65803Y113270D01*
X65865Y113223D01*
X65924Y113174D01*
X65981Y113121D01*
X66035Y113066D01*
X66086Y113008D01*
X66134Y112947D01*
X66179Y112884D01*
X66221Y112819D01*
X66260Y112752D01*
X66295Y112683D01*
X66327Y112613D01*
X66355Y112541D01*
X66380Y112467D01*
X66401Y112393D01*
X66418Y112318D01*
X66432Y112241D01*
X66441Y112165D01*
X66447Y112087D01*
X66449Y112010D01*
X66447Y111933D01*
X66441Y111855D01*
X66432Y111779D01*
X66418Y111702D01*
X66401Y111627D01*
X66380Y111553D01*
X66355Y111479D01*
X66327Y111407D01*
X66295Y111337D01*
X66260Y111268D01*
X66221Y111201D01*
X66179Y111136D01*
X66134Y111073D01*
X66086Y111012D01*
X66035Y110954D01*
X65981Y110899D01*
X65924Y110846D01*
X65865Y110797D01*
X65803Y110750D01*
X65739Y110706D01*
X65673Y110666D01*
X65605Y110629D01*
X65535Y110595D01*
X65464Y110565D01*
X65391Y110539D01*
X65317Y110516D01*
X65242Y110497D01*
X65167Y110482D01*
X65090Y110470D01*
X65013Y110462D01*
X64936Y110458D01*
X64858Y110458D01*
X64781Y110462D01*
X64704Y110470D01*
X64627Y110482D01*
X64552Y110497D01*
X64477Y110516D01*
X64403Y110539D01*
X64330Y110565D01*
X64259Y110595D01*
X64189Y110629D01*
X64121Y110666D01*
X64055Y110706D01*
X63991Y110750D01*
X63929Y110797D01*
X63870Y110846D01*
X63813Y110899D01*
X63759Y110954D01*
X63708Y111012D01*
X63660Y111073D01*
X63615Y111136D01*
X63573Y111201D01*
X63534Y111268D01*
X63499Y111337D01*
X63467Y111407D01*
X63439Y111479D01*
X63414Y111553D01*
X63393Y111627D01*
X63376Y111702D01*
X63362Y111779D01*
X63353Y111855D01*
X63347Y111933D01*
X63345Y112010D01*
X63655Y114804D02*
X63657Y114874D01*
X63663Y114943D01*
X63673Y115012D01*
X63686Y115080D01*
X63704Y115148D01*
X63725Y115214D01*
X63750Y115279D01*
X63778Y115343D01*
X63810Y115405D01*
X63845Y115465D01*
X63884Y115523D01*
X63926Y115578D01*
X63971Y115632D01*
X64019Y115682D01*
X64069Y115730D01*
X64123Y115775D01*
X64178Y115817D01*
X64236Y115856D01*
X64296Y115891D01*
X64358Y115923D01*
X64422Y115951D01*
X64487Y115976D01*
X64553Y115997D01*
X64621Y116015D01*
X64689Y116028D01*
X64758Y116038D01*
X64827Y116044D01*
X64897Y116046D01*
X64967Y116044D01*
X65036Y116038D01*
X65105Y116028D01*
X65173Y116015D01*
X65241Y115997D01*
X65307Y115976D01*
X65372Y115951D01*
X65436Y115923D01*
X65498Y115891D01*
X65558Y115856D01*
X65616Y115817D01*
X65671Y115775D01*
X65725Y115730D01*
X65775Y115682D01*
X65823Y115632D01*
X65868Y115578D01*
X65910Y115523D01*
X65949Y115465D01*
X65984Y115405D01*
X66016Y115343D01*
X66044Y115279D01*
X66069Y115214D01*
X66090Y115148D01*
X66108Y115080D01*
X66121Y115012D01*
X66131Y114943D01*
X66137Y114874D01*
X66139Y114804D01*
X66137Y114734D01*
X66131Y114665D01*
X66121Y114596D01*
X66108Y114528D01*
X66090Y114460D01*
X66069Y114394D01*
X66044Y114329D01*
X66016Y114265D01*
X65984Y114203D01*
X65949Y114143D01*
X65910Y114085D01*
X65868Y114030D01*
X65823Y113976D01*
X65775Y113926D01*
X65725Y113878D01*
X65671Y113833D01*
X65616Y113791D01*
X65558Y113752D01*
X65498Y113717D01*
X65436Y113685D01*
X65372Y113657D01*
X65307Y113632D01*
X65241Y113611D01*
X65173Y113593D01*
X65105Y113580D01*
X65036Y113570D01*
X64967Y113564D01*
X64897Y113562D01*
X64827Y113564D01*
X64758Y113570D01*
X64689Y113580D01*
X64621Y113593D01*
X64553Y113611D01*
X64487Y113632D01*
X64422Y113657D01*
X64358Y113685D01*
X64296Y113717D01*
X64236Y113752D01*
X64178Y113791D01*
X64123Y113833D01*
X64069Y113878D01*
X64019Y113926D01*
X63971Y113976D01*
X63926Y114030D01*
X63884Y114085D01*
X63845Y114143D01*
X63810Y114203D01*
X63778Y114265D01*
X63750Y114329D01*
X63725Y114394D01*
X63704Y114460D01*
X63686Y114528D01*
X63673Y114596D01*
X63663Y114665D01*
X63657Y114734D01*
X63655Y114804D01*
X68521Y110458D02*
X70384Y116046D01*
X72246Y110458D01*
X71781Y111855D02*
X68987Y111855D01*
X74373Y112631D02*
X78098Y112631D01*
X82215Y110458D02*
X82285Y110460D01*
X82354Y110466D01*
X82423Y110476D01*
X82491Y110489D01*
X82559Y110507D01*
X82625Y110528D01*
X82690Y110553D01*
X82754Y110581D01*
X82816Y110613D01*
X82876Y110648D01*
X82934Y110687D01*
X82989Y110729D01*
X83043Y110774D01*
X83093Y110822D01*
X83141Y110872D01*
X83186Y110926D01*
X83228Y110981D01*
X83267Y111039D01*
X83302Y111099D01*
X83334Y111161D01*
X83362Y111225D01*
X83387Y111290D01*
X83408Y111356D01*
X83426Y111424D01*
X83439Y111492D01*
X83449Y111561D01*
X83455Y111630D01*
X83457Y111700D01*
X82215Y110458D02*
X82116Y110460D01*
X82018Y110465D01*
X81920Y110475D01*
X81822Y110488D01*
X81725Y110504D01*
X81628Y110524D01*
X81533Y110548D01*
X81438Y110576D01*
X81344Y110607D01*
X81252Y110641D01*
X81161Y110679D01*
X81071Y110720D01*
X80983Y110765D01*
X80897Y110813D01*
X80813Y110864D01*
X80731Y110918D01*
X80650Y110976D01*
X80572Y111036D01*
X80497Y111099D01*
X80423Y111165D01*
X80353Y111234D01*
X80508Y114804D02*
X80510Y114874D01*
X80516Y114943D01*
X80526Y115012D01*
X80539Y115080D01*
X80557Y115148D01*
X80578Y115214D01*
X80603Y115279D01*
X80631Y115343D01*
X80663Y115405D01*
X80698Y115465D01*
X80737Y115523D01*
X80779Y115578D01*
X80824Y115632D01*
X80872Y115682D01*
X80922Y115730D01*
X80976Y115775D01*
X81031Y115817D01*
X81089Y115856D01*
X81149Y115891D01*
X81211Y115923D01*
X81275Y115951D01*
X81340Y115976D01*
X81406Y115997D01*
X81474Y116015D01*
X81542Y116028D01*
X81611Y116038D01*
X81680Y116044D01*
X81750Y116046D01*
X81844Y116044D01*
X81937Y116038D01*
X82030Y116029D01*
X82123Y116016D01*
X82215Y115999D01*
X82306Y115979D01*
X82397Y115954D01*
X82486Y115927D01*
X82574Y115895D01*
X82661Y115860D01*
X82747Y115822D01*
X82830Y115780D01*
X82912Y115735D01*
X82993Y115687D01*
X83071Y115635D01*
X83147Y115580D01*
X81129Y113718D02*
X81070Y113754D01*
X81014Y113794D01*
X80960Y113837D01*
X80908Y113882D01*
X80859Y113931D01*
X80813Y113982D01*
X80770Y114035D01*
X80729Y114091D01*
X80692Y114149D01*
X80657Y114209D01*
X80627Y114270D01*
X80599Y114333D01*
X80575Y114398D01*
X80555Y114464D01*
X80538Y114531D01*
X80525Y114598D01*
X80516Y114666D01*
X80510Y114735D01*
X80508Y114804D01*
X82836Y112786D02*
X82895Y112750D01*
X82951Y112710D01*
X83005Y112667D01*
X83057Y112622D01*
X83106Y112573D01*
X83152Y112522D01*
X83195Y112469D01*
X83236Y112413D01*
X83273Y112355D01*
X83308Y112295D01*
X83338Y112234D01*
X83366Y112171D01*
X83390Y112106D01*
X83410Y112040D01*
X83427Y111973D01*
X83440Y111906D01*
X83449Y111838D01*
X83455Y111769D01*
X83457Y111700D01*
X82836Y112786D02*
X81129Y113718D01*
X87336Y110458D02*
X87406Y110460D01*
X87475Y110466D01*
X87544Y110476D01*
X87612Y110489D01*
X87680Y110507D01*
X87746Y110528D01*
X87811Y110553D01*
X87875Y110581D01*
X87937Y110613D01*
X87997Y110648D01*
X88055Y110687D01*
X88110Y110729D01*
X88164Y110774D01*
X88214Y110822D01*
X88262Y110872D01*
X88307Y110926D01*
X88349Y110981D01*
X88388Y111039D01*
X88423Y111099D01*
X88455Y111161D01*
X88483Y111225D01*
X88508Y111290D01*
X88529Y111356D01*
X88547Y111424D01*
X88560Y111492D01*
X88570Y111561D01*
X88576Y111630D01*
X88578Y111700D01*
X87336Y110458D02*
X87237Y110460D01*
X87139Y110465D01*
X87041Y110475D01*
X86943Y110488D01*
X86846Y110504D01*
X86749Y110524D01*
X86654Y110548D01*
X86559Y110576D01*
X86465Y110607D01*
X86373Y110641D01*
X86282Y110679D01*
X86192Y110720D01*
X86104Y110765D01*
X86018Y110813D01*
X85934Y110864D01*
X85852Y110918D01*
X85771Y110976D01*
X85693Y111036D01*
X85618Y111099D01*
X85544Y111165D01*
X85474Y111234D01*
X85628Y114804D02*
X85630Y114874D01*
X85636Y114943D01*
X85646Y115012D01*
X85659Y115080D01*
X85677Y115148D01*
X85698Y115214D01*
X85723Y115279D01*
X85751Y115343D01*
X85783Y115405D01*
X85818Y115465D01*
X85857Y115523D01*
X85899Y115578D01*
X85944Y115632D01*
X85992Y115682D01*
X86042Y115730D01*
X86096Y115775D01*
X86151Y115817D01*
X86209Y115856D01*
X86269Y115891D01*
X86331Y115923D01*
X86395Y115951D01*
X86460Y115976D01*
X86526Y115997D01*
X86594Y116015D01*
X86662Y116028D01*
X86731Y116038D01*
X86800Y116044D01*
X86870Y116046D01*
X86964Y116044D01*
X87057Y116038D01*
X87150Y116029D01*
X87243Y116016D01*
X87335Y115999D01*
X87426Y115979D01*
X87517Y115954D01*
X87606Y115927D01*
X87694Y115895D01*
X87781Y115860D01*
X87867Y115822D01*
X87950Y115780D01*
X88032Y115735D01*
X88113Y115687D01*
X88191Y115635D01*
X88267Y115580D01*
X86250Y113718D02*
X86191Y113754D01*
X86135Y113794D01*
X86081Y113837D01*
X86029Y113882D01*
X85980Y113931D01*
X85934Y113982D01*
X85891Y114035D01*
X85850Y114091D01*
X85813Y114149D01*
X85778Y114209D01*
X85748Y114270D01*
X85720Y114333D01*
X85696Y114398D01*
X85676Y114464D01*
X85659Y114531D01*
X85646Y114598D01*
X85637Y114666D01*
X85631Y114735D01*
X85629Y114804D01*
X87957Y112786D02*
X88016Y112750D01*
X88072Y112710D01*
X88126Y112667D01*
X88178Y112622D01*
X88227Y112573D01*
X88273Y112522D01*
X88316Y112469D01*
X88357Y112413D01*
X88394Y112355D01*
X88429Y112295D01*
X88459Y112234D01*
X88487Y112171D01*
X88511Y112106D01*
X88531Y112040D01*
X88548Y111973D01*
X88561Y111906D01*
X88570Y111838D01*
X88576Y111769D01*
X88578Y111700D01*
X87957Y112786D02*
X86249Y113718D01*
X90960Y116046D02*
X90960Y110458D01*
X90960Y113562D02*
X94064Y113562D01*
X94064Y116046D02*
X94064Y110458D01*
X96812Y110458D02*
X96812Y116046D01*
X98364Y116046D01*
X98440Y116044D01*
X98516Y116039D01*
X98592Y116029D01*
X98667Y116016D01*
X98741Y115999D01*
X98815Y115979D01*
X98887Y115955D01*
X98958Y115928D01*
X99028Y115897D01*
X99096Y115863D01*
X99162Y115825D01*
X99226Y115784D01*
X99289Y115741D01*
X99349Y115694D01*
X99406Y115644D01*
X99461Y115591D01*
X99514Y115536D01*
X99564Y115479D01*
X99611Y115419D01*
X99654Y115356D01*
X99695Y115292D01*
X99733Y115226D01*
X99767Y115158D01*
X99798Y115088D01*
X99825Y115017D01*
X99849Y114944D01*
X99869Y114871D01*
X99886Y114797D01*
X99899Y114722D01*
X99909Y114646D01*
X99914Y114570D01*
X99916Y114494D01*
X99916Y112010D01*
X99914Y111931D01*
X99908Y111853D01*
X99898Y111775D01*
X99884Y111698D01*
X99866Y111621D01*
X99845Y111545D01*
X99819Y111471D01*
X99790Y111398D01*
X99757Y111327D01*
X99721Y111257D01*
X99681Y111189D01*
X99638Y111123D01*
X99591Y111060D01*
X99542Y110999D01*
X99489Y110941D01*
X99433Y110885D01*
X99375Y110832D01*
X99314Y110783D01*
X99251Y110736D01*
X99185Y110693D01*
X99117Y110653D01*
X99048Y110617D01*
X98976Y110584D01*
X98903Y110555D01*
X98829Y110529D01*
X98753Y110508D01*
X98676Y110490D01*
X98599Y110476D01*
X98521Y110466D01*
X98443Y110460D01*
X98364Y110458D01*
X96812Y110458D01*
X102171Y110458D02*
X104033Y116046D01*
X105896Y110458D01*
X105430Y111855D02*
X102636Y111855D01*
M02*
