G04 EAGLE Gerber RS-274X export*
G75*
%MOMM*%
%FSLAX34Y34*%
%LPD*%
%INSoldermask Top*%
%IPNEG*%
%AMOC8*
5,1,8,0,0,1.08239X$1,22.5*%
G01*
%ADD10C,0.238272*%
%ADD11C,1.625600*%
%ADD12C,0.165000*%


D10*
X74317Y10783D02*
X62683Y10783D01*
X62683Y24417D01*
X74317Y24417D01*
X74317Y10783D01*
X74317Y13047D02*
X62683Y13047D01*
X62683Y15311D02*
X74317Y15311D01*
X74317Y17575D02*
X62683Y17575D01*
X62683Y19839D02*
X74317Y19839D01*
X74317Y22103D02*
X62683Y22103D01*
X62683Y24367D02*
X74317Y24367D01*
X79683Y10783D02*
X91317Y10783D01*
X79683Y10783D02*
X79683Y24417D01*
X91317Y24417D01*
X91317Y10783D01*
X91317Y13047D02*
X79683Y13047D01*
X79683Y15311D02*
X91317Y15311D01*
X91317Y17575D02*
X79683Y17575D01*
X79683Y19839D02*
X91317Y19839D01*
X91317Y22103D02*
X79683Y22103D01*
X79683Y24367D02*
X91317Y24367D01*
D11*
X29210Y114300D02*
X21590Y114300D01*
X21590Y88900D02*
X29210Y88900D01*
X29210Y63500D02*
X21590Y63500D01*
X21590Y38100D02*
X29210Y38100D01*
D12*
X115175Y53275D02*
X129625Y53275D01*
X129625Y48325D01*
X115175Y48325D01*
X115175Y53275D01*
X115175Y49892D02*
X129625Y49892D01*
X129625Y51459D02*
X115175Y51459D01*
X115175Y53026D02*
X129625Y53026D01*
X129625Y65975D02*
X115175Y65975D01*
X129625Y65975D02*
X129625Y61025D01*
X115175Y61025D01*
X115175Y65975D01*
X115175Y62592D02*
X129625Y62592D01*
X129625Y64159D02*
X115175Y64159D01*
X115175Y65726D02*
X129625Y65726D01*
X129625Y78675D02*
X115175Y78675D01*
X129625Y78675D02*
X129625Y73725D01*
X115175Y73725D01*
X115175Y78675D01*
X115175Y75292D02*
X129625Y75292D01*
X129625Y76859D02*
X115175Y76859D01*
X115175Y78426D02*
X129625Y78426D01*
X129625Y91375D02*
X115175Y91375D01*
X129625Y91375D02*
X129625Y86425D01*
X115175Y86425D01*
X115175Y91375D01*
X115175Y87992D02*
X129625Y87992D01*
X129625Y89559D02*
X115175Y89559D01*
X115175Y91126D02*
X129625Y91126D01*
X75625Y53275D02*
X61175Y53275D01*
X75625Y53275D02*
X75625Y48325D01*
X61175Y48325D01*
X61175Y53275D01*
X61175Y49892D02*
X75625Y49892D01*
X75625Y51459D02*
X61175Y51459D01*
X61175Y53026D02*
X75625Y53026D01*
X75625Y65975D02*
X61175Y65975D01*
X75625Y65975D02*
X75625Y61025D01*
X61175Y61025D01*
X61175Y65975D01*
X61175Y62592D02*
X75625Y62592D01*
X75625Y64159D02*
X61175Y64159D01*
X61175Y65726D02*
X75625Y65726D01*
X75625Y78675D02*
X61175Y78675D01*
X75625Y78675D02*
X75625Y73725D01*
X61175Y73725D01*
X61175Y78675D01*
X61175Y75292D02*
X75625Y75292D01*
X75625Y76859D02*
X61175Y76859D01*
X61175Y78426D02*
X75625Y78426D01*
X75625Y91375D02*
X61175Y91375D01*
X75625Y91375D02*
X75625Y86425D01*
X61175Y86425D01*
X61175Y91375D01*
X61175Y87992D02*
X75625Y87992D01*
X75625Y89559D02*
X61175Y89559D01*
X61175Y91126D02*
X75625Y91126D01*
M02*
