G04 EAGLE Gerber RS-274X export*
G75*
%MOMM*%
%FSLAX34Y34*%
%LPD*%
%INSilkscreen Bottom*%
%IPPOS*%
%AMOC8*
5,1,8,0,0,1.08239X$1,22.5*%
G01*
%ADD10C,0.152400*%
%ADD11C,0.127000*%


D10*
X56000Y392350D02*
X56000Y405050D01*
X49650Y411400D01*
X36950Y411400D02*
X30600Y405050D01*
X49650Y411400D02*
X56000Y417750D01*
X56000Y430450D01*
X49650Y436800D01*
X36950Y436800D02*
X30600Y430450D01*
X30600Y417750D01*
X36950Y411400D01*
X36950Y386000D02*
X49650Y386000D01*
X56000Y392350D01*
X36950Y386000D02*
X30600Y392350D01*
X30600Y405050D01*
X49650Y436800D02*
X56000Y443150D01*
X56000Y455850D01*
X49650Y462200D01*
X36950Y462200D02*
X30600Y455850D01*
X30600Y443150D01*
X36950Y436800D01*
X56000Y468550D02*
X56000Y481250D01*
X49650Y487600D01*
X36950Y487600D01*
X30600Y481250D01*
X49650Y462200D02*
X56000Y468550D01*
X36950Y462200D02*
X30600Y468550D01*
X30600Y481250D01*
D11*
X49015Y378380D02*
X46475Y375205D01*
X49015Y378380D02*
X37585Y378380D01*
X37585Y375205D02*
X37585Y381555D01*
X40125Y490775D02*
X49015Y493315D01*
X40125Y490775D02*
X40125Y497125D01*
X42665Y495220D02*
X37585Y495220D01*
X60445Y386635D02*
X71875Y386635D01*
X66795Y386635D02*
X66795Y392985D01*
X71875Y392985D02*
X60445Y392985D01*
X69335Y398446D02*
X71875Y401621D01*
X60445Y401621D01*
X60445Y398446D02*
X60445Y404796D01*
M02*
