G04 EAGLE Gerber RS-274X export*
G75*
%MOMM*%
%FSLAX34Y34*%
%LPD*%
%INSolderpaste Top*%
%IPPOS*%
%AMOC8*
5,1,8,0,0,1.08239X$1,22.5*%
G01*
%ADD10R,1.170000X1.370000*%
%ADD11R,1.890000X0.990000*%


D10*
X149400Y425000D03*
X166400Y425000D03*
X183300Y395000D03*
X166300Y395000D03*
X151500Y226000D03*
X168500Y226000D03*
X278500Y226000D03*
X295500Y226000D03*
X401500Y226000D03*
X418500Y226000D03*
X526500Y226000D03*
X543500Y226000D03*
X651500Y226000D03*
X668500Y226000D03*
X680900Y194000D03*
X663900Y194000D03*
X556700Y194000D03*
X539700Y194000D03*
X432500Y194000D03*
X415500Y194000D03*
X308300Y194000D03*
X291300Y194000D03*
X276500Y425000D03*
X293500Y425000D03*
X178500Y194000D03*
X161500Y194000D03*
X150500Y24000D03*
X167500Y24000D03*
X275500Y24000D03*
X292500Y24000D03*
X400500Y24000D03*
X417500Y24000D03*
X527700Y22600D03*
X544700Y22600D03*
X649100Y23400D03*
X666100Y23400D03*
X401500Y425000D03*
X418500Y425000D03*
X525500Y425000D03*
X542500Y425000D03*
X652500Y425000D03*
X669500Y425000D03*
X679600Y395000D03*
X662600Y395000D03*
X555900Y395000D03*
X538900Y395000D03*
X431700Y395000D03*
X414700Y395000D03*
X308500Y395000D03*
X291500Y395000D03*
D11*
X270000Y377000D03*
X270000Y360000D03*
X270000Y343000D03*
X310000Y343000D03*
X310000Y360000D03*
X310000Y377000D03*
X145000Y377000D03*
X145000Y360000D03*
X145000Y343000D03*
X185000Y343000D03*
X185000Y360000D03*
X185000Y377000D03*
X185000Y243000D03*
X185000Y260000D03*
X185000Y277000D03*
X145000Y277000D03*
X145000Y260000D03*
X145000Y243000D03*
X310000Y243000D03*
X310000Y260000D03*
X310000Y277000D03*
X270000Y277000D03*
X270000Y260000D03*
X270000Y243000D03*
X435000Y243000D03*
X435000Y260000D03*
X435000Y277000D03*
X395000Y277000D03*
X395000Y260000D03*
X395000Y243000D03*
X560000Y243000D03*
X560000Y260000D03*
X560000Y277000D03*
X520000Y277000D03*
X520000Y260000D03*
X520000Y243000D03*
X685000Y243000D03*
X685000Y260000D03*
X685000Y277000D03*
X645000Y277000D03*
X645000Y260000D03*
X645000Y243000D03*
X645000Y177000D03*
X645000Y160000D03*
X645000Y143000D03*
X685000Y143000D03*
X685000Y160000D03*
X685000Y177000D03*
X520000Y177000D03*
X520000Y160000D03*
X520000Y143000D03*
X560000Y143000D03*
X560000Y160000D03*
X560000Y177000D03*
X395000Y177000D03*
X395000Y160000D03*
X395000Y143000D03*
X435000Y143000D03*
X435000Y160000D03*
X435000Y177000D03*
X185000Y443000D03*
X185000Y460000D03*
X185000Y477000D03*
X145000Y477000D03*
X145000Y460000D03*
X145000Y443000D03*
X270000Y177000D03*
X270000Y160000D03*
X270000Y143000D03*
X310000Y143000D03*
X310000Y160000D03*
X310000Y177000D03*
X145000Y177000D03*
X145000Y160000D03*
X145000Y143000D03*
X185000Y143000D03*
X185000Y160000D03*
X185000Y177000D03*
X185000Y43000D03*
X185000Y60000D03*
X185000Y77000D03*
X145000Y77000D03*
X145000Y60000D03*
X145000Y43000D03*
X310000Y43000D03*
X310000Y60000D03*
X310000Y77000D03*
X270000Y77000D03*
X270000Y60000D03*
X270000Y43000D03*
X435000Y43000D03*
X435000Y60000D03*
X435000Y77000D03*
X395000Y77000D03*
X395000Y60000D03*
X395000Y43000D03*
X560000Y43000D03*
X560000Y60000D03*
X560000Y77000D03*
X520000Y77000D03*
X520000Y60000D03*
X520000Y43000D03*
X685000Y43000D03*
X685000Y60000D03*
X685000Y77000D03*
X645000Y77000D03*
X645000Y60000D03*
X645000Y43000D03*
X310000Y443000D03*
X310000Y460000D03*
X310000Y477000D03*
X270000Y477000D03*
X270000Y460000D03*
X270000Y443000D03*
X435000Y443000D03*
X435000Y460000D03*
X435000Y477000D03*
X395000Y477000D03*
X395000Y460000D03*
X395000Y443000D03*
X560000Y443000D03*
X560000Y460000D03*
X560000Y477000D03*
X520000Y477000D03*
X520000Y460000D03*
X520000Y443000D03*
X685000Y443000D03*
X685000Y460000D03*
X685000Y477000D03*
X645000Y477000D03*
X645000Y460000D03*
X645000Y443000D03*
X645000Y377000D03*
X645000Y360000D03*
X645000Y343000D03*
X685000Y343000D03*
X685000Y360000D03*
X685000Y377000D03*
X520000Y377000D03*
X520000Y360000D03*
X520000Y343000D03*
X560000Y343000D03*
X560000Y360000D03*
X560000Y377000D03*
X395000Y377000D03*
X395000Y360000D03*
X395000Y343000D03*
X435000Y343000D03*
X435000Y360000D03*
X435000Y377000D03*
M02*
