G04 EAGLE Gerber RS-274X export*
G75*
%MOMM*%
%FSLAX34Y34*%
%LPD*%
%INSoldermask Top*%
%IPNEG*%
%AMOC8*
5,1,8,0,0,1.08239X$1,22.5*%
G01*
%ADD10C,0.238272*%
%ADD11C,1.625600*%
%ADD12C,0.216288*%


D10*
X155217Y418183D02*
X143583Y418183D01*
X143583Y431817D01*
X155217Y431817D01*
X155217Y418183D01*
X155217Y420447D02*
X143583Y420447D01*
X143583Y422711D02*
X155217Y422711D01*
X155217Y424975D02*
X143583Y424975D01*
X143583Y427239D02*
X155217Y427239D01*
X155217Y429503D02*
X143583Y429503D01*
X143583Y431767D02*
X155217Y431767D01*
X160583Y418183D02*
X172217Y418183D01*
X160583Y418183D02*
X160583Y431817D01*
X172217Y431817D01*
X172217Y418183D01*
X172217Y420447D02*
X160583Y420447D01*
X160583Y422711D02*
X172217Y422711D01*
X172217Y424975D02*
X160583Y424975D01*
X160583Y427239D02*
X172217Y427239D01*
X172217Y429503D02*
X160583Y429503D01*
X160583Y431767D02*
X172217Y431767D01*
X177483Y401817D02*
X189117Y401817D01*
X189117Y388183D01*
X177483Y388183D01*
X177483Y401817D01*
X177483Y390447D02*
X189117Y390447D01*
X189117Y392711D02*
X177483Y392711D01*
X177483Y394975D02*
X189117Y394975D01*
X189117Y397239D02*
X177483Y397239D01*
X177483Y399503D02*
X189117Y399503D01*
X189117Y401767D02*
X177483Y401767D01*
X172117Y401817D02*
X160483Y401817D01*
X172117Y401817D02*
X172117Y388183D01*
X160483Y388183D01*
X160483Y401817D01*
X160483Y390447D02*
X172117Y390447D01*
X172117Y392711D02*
X160483Y392711D01*
X160483Y394975D02*
X172117Y394975D01*
X172117Y397239D02*
X160483Y397239D01*
X160483Y399503D02*
X172117Y399503D01*
X172117Y401767D02*
X160483Y401767D01*
X157317Y219183D02*
X145683Y219183D01*
X145683Y232817D01*
X157317Y232817D01*
X157317Y219183D01*
X157317Y221447D02*
X145683Y221447D01*
X145683Y223711D02*
X157317Y223711D01*
X157317Y225975D02*
X145683Y225975D01*
X145683Y228239D02*
X157317Y228239D01*
X157317Y230503D02*
X145683Y230503D01*
X145683Y232767D02*
X157317Y232767D01*
X162683Y219183D02*
X174317Y219183D01*
X162683Y219183D02*
X162683Y232817D01*
X174317Y232817D01*
X174317Y219183D01*
X174317Y221447D02*
X162683Y221447D01*
X162683Y223711D02*
X174317Y223711D01*
X174317Y225975D02*
X162683Y225975D01*
X162683Y228239D02*
X174317Y228239D01*
X174317Y230503D02*
X162683Y230503D01*
X162683Y232767D02*
X174317Y232767D01*
X272683Y219183D02*
X284317Y219183D01*
X272683Y219183D02*
X272683Y232817D01*
X284317Y232817D01*
X284317Y219183D01*
X284317Y221447D02*
X272683Y221447D01*
X272683Y223711D02*
X284317Y223711D01*
X284317Y225975D02*
X272683Y225975D01*
X272683Y228239D02*
X284317Y228239D01*
X284317Y230503D02*
X272683Y230503D01*
X272683Y232767D02*
X284317Y232767D01*
X289683Y219183D02*
X301317Y219183D01*
X289683Y219183D02*
X289683Y232817D01*
X301317Y232817D01*
X301317Y219183D01*
X301317Y221447D02*
X289683Y221447D01*
X289683Y223711D02*
X301317Y223711D01*
X301317Y225975D02*
X289683Y225975D01*
X289683Y228239D02*
X301317Y228239D01*
X301317Y230503D02*
X289683Y230503D01*
X289683Y232767D02*
X301317Y232767D01*
X395683Y219183D02*
X407317Y219183D01*
X395683Y219183D02*
X395683Y232817D01*
X407317Y232817D01*
X407317Y219183D01*
X407317Y221447D02*
X395683Y221447D01*
X395683Y223711D02*
X407317Y223711D01*
X407317Y225975D02*
X395683Y225975D01*
X395683Y228239D02*
X407317Y228239D01*
X407317Y230503D02*
X395683Y230503D01*
X395683Y232767D02*
X407317Y232767D01*
X412683Y219183D02*
X424317Y219183D01*
X412683Y219183D02*
X412683Y232817D01*
X424317Y232817D01*
X424317Y219183D01*
X424317Y221447D02*
X412683Y221447D01*
X412683Y223711D02*
X424317Y223711D01*
X424317Y225975D02*
X412683Y225975D01*
X412683Y228239D02*
X424317Y228239D01*
X424317Y230503D02*
X412683Y230503D01*
X412683Y232767D02*
X424317Y232767D01*
X520683Y219183D02*
X532317Y219183D01*
X520683Y219183D02*
X520683Y232817D01*
X532317Y232817D01*
X532317Y219183D01*
X532317Y221447D02*
X520683Y221447D01*
X520683Y223711D02*
X532317Y223711D01*
X532317Y225975D02*
X520683Y225975D01*
X520683Y228239D02*
X532317Y228239D01*
X532317Y230503D02*
X520683Y230503D01*
X520683Y232767D02*
X532317Y232767D01*
X537683Y219183D02*
X549317Y219183D01*
X537683Y219183D02*
X537683Y232817D01*
X549317Y232817D01*
X549317Y219183D01*
X549317Y221447D02*
X537683Y221447D01*
X537683Y223711D02*
X549317Y223711D01*
X549317Y225975D02*
X537683Y225975D01*
X537683Y228239D02*
X549317Y228239D01*
X549317Y230503D02*
X537683Y230503D01*
X537683Y232767D02*
X549317Y232767D01*
X645683Y219183D02*
X657317Y219183D01*
X645683Y219183D02*
X645683Y232817D01*
X657317Y232817D01*
X657317Y219183D01*
X657317Y221447D02*
X645683Y221447D01*
X645683Y223711D02*
X657317Y223711D01*
X657317Y225975D02*
X645683Y225975D01*
X645683Y228239D02*
X657317Y228239D01*
X657317Y230503D02*
X645683Y230503D01*
X645683Y232767D02*
X657317Y232767D01*
X662683Y219183D02*
X674317Y219183D01*
X662683Y219183D02*
X662683Y232817D01*
X674317Y232817D01*
X674317Y219183D01*
X674317Y221447D02*
X662683Y221447D01*
X662683Y223711D02*
X674317Y223711D01*
X674317Y225975D02*
X662683Y225975D01*
X662683Y228239D02*
X674317Y228239D01*
X674317Y230503D02*
X662683Y230503D01*
X662683Y232767D02*
X674317Y232767D01*
X675083Y200817D02*
X686717Y200817D01*
X686717Y187183D01*
X675083Y187183D01*
X675083Y200817D01*
X675083Y189447D02*
X686717Y189447D01*
X686717Y191711D02*
X675083Y191711D01*
X675083Y193975D02*
X686717Y193975D01*
X686717Y196239D02*
X675083Y196239D01*
X675083Y198503D02*
X686717Y198503D01*
X686717Y200767D02*
X675083Y200767D01*
X669717Y200817D02*
X658083Y200817D01*
X669717Y200817D02*
X669717Y187183D01*
X658083Y187183D01*
X658083Y200817D01*
X658083Y189447D02*
X669717Y189447D01*
X669717Y191711D02*
X658083Y191711D01*
X658083Y193975D02*
X669717Y193975D01*
X669717Y196239D02*
X658083Y196239D01*
X658083Y198503D02*
X669717Y198503D01*
X669717Y200767D02*
X658083Y200767D01*
X562517Y200817D02*
X550883Y200817D01*
X562517Y200817D02*
X562517Y187183D01*
X550883Y187183D01*
X550883Y200817D01*
X550883Y189447D02*
X562517Y189447D01*
X562517Y191711D02*
X550883Y191711D01*
X550883Y193975D02*
X562517Y193975D01*
X562517Y196239D02*
X550883Y196239D01*
X550883Y198503D02*
X562517Y198503D01*
X562517Y200767D02*
X550883Y200767D01*
X545517Y200817D02*
X533883Y200817D01*
X545517Y200817D02*
X545517Y187183D01*
X533883Y187183D01*
X533883Y200817D01*
X533883Y189447D02*
X545517Y189447D01*
X545517Y191711D02*
X533883Y191711D01*
X533883Y193975D02*
X545517Y193975D01*
X545517Y196239D02*
X533883Y196239D01*
X533883Y198503D02*
X545517Y198503D01*
X545517Y200767D02*
X533883Y200767D01*
X438317Y200817D02*
X426683Y200817D01*
X438317Y200817D02*
X438317Y187183D01*
X426683Y187183D01*
X426683Y200817D01*
X426683Y189447D02*
X438317Y189447D01*
X438317Y191711D02*
X426683Y191711D01*
X426683Y193975D02*
X438317Y193975D01*
X438317Y196239D02*
X426683Y196239D01*
X426683Y198503D02*
X438317Y198503D01*
X438317Y200767D02*
X426683Y200767D01*
X421317Y200817D02*
X409683Y200817D01*
X421317Y200817D02*
X421317Y187183D01*
X409683Y187183D01*
X409683Y200817D01*
X409683Y189447D02*
X421317Y189447D01*
X421317Y191711D02*
X409683Y191711D01*
X409683Y193975D02*
X421317Y193975D01*
X421317Y196239D02*
X409683Y196239D01*
X409683Y198503D02*
X421317Y198503D01*
X421317Y200767D02*
X409683Y200767D01*
X314117Y200817D02*
X302483Y200817D01*
X314117Y200817D02*
X314117Y187183D01*
X302483Y187183D01*
X302483Y200817D01*
X302483Y189447D02*
X314117Y189447D01*
X314117Y191711D02*
X302483Y191711D01*
X302483Y193975D02*
X314117Y193975D01*
X314117Y196239D02*
X302483Y196239D01*
X302483Y198503D02*
X314117Y198503D01*
X314117Y200767D02*
X302483Y200767D01*
X297117Y200817D02*
X285483Y200817D01*
X297117Y200817D02*
X297117Y187183D01*
X285483Y187183D01*
X285483Y200817D01*
X285483Y189447D02*
X297117Y189447D01*
X297117Y191711D02*
X285483Y191711D01*
X285483Y193975D02*
X297117Y193975D01*
X297117Y196239D02*
X285483Y196239D01*
X285483Y198503D02*
X297117Y198503D01*
X297117Y200767D02*
X285483Y200767D01*
X282317Y418183D02*
X270683Y418183D01*
X270683Y431817D01*
X282317Y431817D01*
X282317Y418183D01*
X282317Y420447D02*
X270683Y420447D01*
X270683Y422711D02*
X282317Y422711D01*
X282317Y424975D02*
X270683Y424975D01*
X270683Y427239D02*
X282317Y427239D01*
X282317Y429503D02*
X270683Y429503D01*
X270683Y431767D02*
X282317Y431767D01*
X287683Y418183D02*
X299317Y418183D01*
X287683Y418183D02*
X287683Y431817D01*
X299317Y431817D01*
X299317Y418183D01*
X299317Y420447D02*
X287683Y420447D01*
X287683Y422711D02*
X299317Y422711D01*
X299317Y424975D02*
X287683Y424975D01*
X287683Y427239D02*
X299317Y427239D01*
X299317Y429503D02*
X287683Y429503D01*
X287683Y431767D02*
X299317Y431767D01*
X184317Y200817D02*
X172683Y200817D01*
X184317Y200817D02*
X184317Y187183D01*
X172683Y187183D01*
X172683Y200817D01*
X172683Y189447D02*
X184317Y189447D01*
X184317Y191711D02*
X172683Y191711D01*
X172683Y193975D02*
X184317Y193975D01*
X184317Y196239D02*
X172683Y196239D01*
X172683Y198503D02*
X184317Y198503D01*
X184317Y200767D02*
X172683Y200767D01*
X167317Y200817D02*
X155683Y200817D01*
X167317Y200817D02*
X167317Y187183D01*
X155683Y187183D01*
X155683Y200817D01*
X155683Y189447D02*
X167317Y189447D01*
X167317Y191711D02*
X155683Y191711D01*
X155683Y193975D02*
X167317Y193975D01*
X167317Y196239D02*
X155683Y196239D01*
X155683Y198503D02*
X167317Y198503D01*
X167317Y200767D02*
X155683Y200767D01*
X156317Y17183D02*
X144683Y17183D01*
X144683Y30817D01*
X156317Y30817D01*
X156317Y17183D01*
X156317Y19447D02*
X144683Y19447D01*
X144683Y21711D02*
X156317Y21711D01*
X156317Y23975D02*
X144683Y23975D01*
X144683Y26239D02*
X156317Y26239D01*
X156317Y28503D02*
X144683Y28503D01*
X144683Y30767D02*
X156317Y30767D01*
X161683Y17183D02*
X173317Y17183D01*
X161683Y17183D02*
X161683Y30817D01*
X173317Y30817D01*
X173317Y17183D01*
X173317Y19447D02*
X161683Y19447D01*
X161683Y21711D02*
X173317Y21711D01*
X173317Y23975D02*
X161683Y23975D01*
X161683Y26239D02*
X173317Y26239D01*
X173317Y28503D02*
X161683Y28503D01*
X161683Y30767D02*
X173317Y30767D01*
X269683Y17183D02*
X281317Y17183D01*
X269683Y17183D02*
X269683Y30817D01*
X281317Y30817D01*
X281317Y17183D01*
X281317Y19447D02*
X269683Y19447D01*
X269683Y21711D02*
X281317Y21711D01*
X281317Y23975D02*
X269683Y23975D01*
X269683Y26239D02*
X281317Y26239D01*
X281317Y28503D02*
X269683Y28503D01*
X269683Y30767D02*
X281317Y30767D01*
X286683Y17183D02*
X298317Y17183D01*
X286683Y17183D02*
X286683Y30817D01*
X298317Y30817D01*
X298317Y17183D01*
X298317Y19447D02*
X286683Y19447D01*
X286683Y21711D02*
X298317Y21711D01*
X298317Y23975D02*
X286683Y23975D01*
X286683Y26239D02*
X298317Y26239D01*
X298317Y28503D02*
X286683Y28503D01*
X286683Y30767D02*
X298317Y30767D01*
X394683Y17183D02*
X406317Y17183D01*
X394683Y17183D02*
X394683Y30817D01*
X406317Y30817D01*
X406317Y17183D01*
X406317Y19447D02*
X394683Y19447D01*
X394683Y21711D02*
X406317Y21711D01*
X406317Y23975D02*
X394683Y23975D01*
X394683Y26239D02*
X406317Y26239D01*
X406317Y28503D02*
X394683Y28503D01*
X394683Y30767D02*
X406317Y30767D01*
X411683Y17183D02*
X423317Y17183D01*
X411683Y17183D02*
X411683Y30817D01*
X423317Y30817D01*
X423317Y17183D01*
X423317Y19447D02*
X411683Y19447D01*
X411683Y21711D02*
X423317Y21711D01*
X423317Y23975D02*
X411683Y23975D01*
X411683Y26239D02*
X423317Y26239D01*
X423317Y28503D02*
X411683Y28503D01*
X411683Y30767D02*
X423317Y30767D01*
X521883Y15783D02*
X533517Y15783D01*
X521883Y15783D02*
X521883Y29417D01*
X533517Y29417D01*
X533517Y15783D01*
X533517Y18047D02*
X521883Y18047D01*
X521883Y20311D02*
X533517Y20311D01*
X533517Y22575D02*
X521883Y22575D01*
X521883Y24839D02*
X533517Y24839D01*
X533517Y27103D02*
X521883Y27103D01*
X521883Y29367D02*
X533517Y29367D01*
X538883Y15783D02*
X550517Y15783D01*
X538883Y15783D02*
X538883Y29417D01*
X550517Y29417D01*
X550517Y15783D01*
X550517Y18047D02*
X538883Y18047D01*
X538883Y20311D02*
X550517Y20311D01*
X550517Y22575D02*
X538883Y22575D01*
X538883Y24839D02*
X550517Y24839D01*
X550517Y27103D02*
X538883Y27103D01*
X538883Y29367D02*
X550517Y29367D01*
X643283Y16583D02*
X654917Y16583D01*
X643283Y16583D02*
X643283Y30217D01*
X654917Y30217D01*
X654917Y16583D01*
X654917Y18847D02*
X643283Y18847D01*
X643283Y21111D02*
X654917Y21111D01*
X654917Y23375D02*
X643283Y23375D01*
X643283Y25639D02*
X654917Y25639D01*
X654917Y27903D02*
X643283Y27903D01*
X643283Y30167D02*
X654917Y30167D01*
X660283Y16583D02*
X671917Y16583D01*
X660283Y16583D02*
X660283Y30217D01*
X671917Y30217D01*
X671917Y16583D01*
X671917Y18847D02*
X660283Y18847D01*
X660283Y21111D02*
X671917Y21111D01*
X671917Y23375D02*
X660283Y23375D01*
X660283Y25639D02*
X671917Y25639D01*
X671917Y27903D02*
X660283Y27903D01*
X660283Y30167D02*
X671917Y30167D01*
X407317Y418183D02*
X395683Y418183D01*
X395683Y431817D01*
X407317Y431817D01*
X407317Y418183D01*
X407317Y420447D02*
X395683Y420447D01*
X395683Y422711D02*
X407317Y422711D01*
X407317Y424975D02*
X395683Y424975D01*
X395683Y427239D02*
X407317Y427239D01*
X407317Y429503D02*
X395683Y429503D01*
X395683Y431767D02*
X407317Y431767D01*
X412683Y418183D02*
X424317Y418183D01*
X412683Y418183D02*
X412683Y431817D01*
X424317Y431817D01*
X424317Y418183D01*
X424317Y420447D02*
X412683Y420447D01*
X412683Y422711D02*
X424317Y422711D01*
X424317Y424975D02*
X412683Y424975D01*
X412683Y427239D02*
X424317Y427239D01*
X424317Y429503D02*
X412683Y429503D01*
X412683Y431767D02*
X424317Y431767D01*
X519683Y418183D02*
X531317Y418183D01*
X519683Y418183D02*
X519683Y431817D01*
X531317Y431817D01*
X531317Y418183D01*
X531317Y420447D02*
X519683Y420447D01*
X519683Y422711D02*
X531317Y422711D01*
X531317Y424975D02*
X519683Y424975D01*
X519683Y427239D02*
X531317Y427239D01*
X531317Y429503D02*
X519683Y429503D01*
X519683Y431767D02*
X531317Y431767D01*
X536683Y418183D02*
X548317Y418183D01*
X536683Y418183D02*
X536683Y431817D01*
X548317Y431817D01*
X548317Y418183D01*
X548317Y420447D02*
X536683Y420447D01*
X536683Y422711D02*
X548317Y422711D01*
X548317Y424975D02*
X536683Y424975D01*
X536683Y427239D02*
X548317Y427239D01*
X548317Y429503D02*
X536683Y429503D01*
X536683Y431767D02*
X548317Y431767D01*
X646683Y418183D02*
X658317Y418183D01*
X646683Y418183D02*
X646683Y431817D01*
X658317Y431817D01*
X658317Y418183D01*
X658317Y420447D02*
X646683Y420447D01*
X646683Y422711D02*
X658317Y422711D01*
X658317Y424975D02*
X646683Y424975D01*
X646683Y427239D02*
X658317Y427239D01*
X658317Y429503D02*
X646683Y429503D01*
X646683Y431767D02*
X658317Y431767D01*
X663683Y418183D02*
X675317Y418183D01*
X663683Y418183D02*
X663683Y431817D01*
X675317Y431817D01*
X675317Y418183D01*
X675317Y420447D02*
X663683Y420447D01*
X663683Y422711D02*
X675317Y422711D01*
X675317Y424975D02*
X663683Y424975D01*
X663683Y427239D02*
X675317Y427239D01*
X675317Y429503D02*
X663683Y429503D01*
X663683Y431767D02*
X675317Y431767D01*
X673783Y401817D02*
X685417Y401817D01*
X685417Y388183D01*
X673783Y388183D01*
X673783Y401817D01*
X673783Y390447D02*
X685417Y390447D01*
X685417Y392711D02*
X673783Y392711D01*
X673783Y394975D02*
X685417Y394975D01*
X685417Y397239D02*
X673783Y397239D01*
X673783Y399503D02*
X685417Y399503D01*
X685417Y401767D02*
X673783Y401767D01*
X668417Y401817D02*
X656783Y401817D01*
X668417Y401817D02*
X668417Y388183D01*
X656783Y388183D01*
X656783Y401817D01*
X656783Y390447D02*
X668417Y390447D01*
X668417Y392711D02*
X656783Y392711D01*
X656783Y394975D02*
X668417Y394975D01*
X668417Y397239D02*
X656783Y397239D01*
X656783Y399503D02*
X668417Y399503D01*
X668417Y401767D02*
X656783Y401767D01*
X561717Y401817D02*
X550083Y401817D01*
X561717Y401817D02*
X561717Y388183D01*
X550083Y388183D01*
X550083Y401817D01*
X550083Y390447D02*
X561717Y390447D01*
X561717Y392711D02*
X550083Y392711D01*
X550083Y394975D02*
X561717Y394975D01*
X561717Y397239D02*
X550083Y397239D01*
X550083Y399503D02*
X561717Y399503D01*
X561717Y401767D02*
X550083Y401767D01*
X544717Y401817D02*
X533083Y401817D01*
X544717Y401817D02*
X544717Y388183D01*
X533083Y388183D01*
X533083Y401817D01*
X533083Y390447D02*
X544717Y390447D01*
X544717Y392711D02*
X533083Y392711D01*
X533083Y394975D02*
X544717Y394975D01*
X544717Y397239D02*
X533083Y397239D01*
X533083Y399503D02*
X544717Y399503D01*
X544717Y401767D02*
X533083Y401767D01*
X437517Y401817D02*
X425883Y401817D01*
X437517Y401817D02*
X437517Y388183D01*
X425883Y388183D01*
X425883Y401817D01*
X425883Y390447D02*
X437517Y390447D01*
X437517Y392711D02*
X425883Y392711D01*
X425883Y394975D02*
X437517Y394975D01*
X437517Y397239D02*
X425883Y397239D01*
X425883Y399503D02*
X437517Y399503D01*
X437517Y401767D02*
X425883Y401767D01*
X420517Y401817D02*
X408883Y401817D01*
X420517Y401817D02*
X420517Y388183D01*
X408883Y388183D01*
X408883Y401817D01*
X408883Y390447D02*
X420517Y390447D01*
X420517Y392711D02*
X408883Y392711D01*
X408883Y394975D02*
X420517Y394975D01*
X420517Y397239D02*
X408883Y397239D01*
X408883Y399503D02*
X420517Y399503D01*
X420517Y401767D02*
X408883Y401767D01*
X314317Y401817D02*
X302683Y401817D01*
X314317Y401817D02*
X314317Y388183D01*
X302683Y388183D01*
X302683Y401817D01*
X302683Y390447D02*
X314317Y390447D01*
X314317Y392711D02*
X302683Y392711D01*
X302683Y394975D02*
X314317Y394975D01*
X314317Y397239D02*
X302683Y397239D01*
X302683Y399503D02*
X314317Y399503D01*
X314317Y401767D02*
X302683Y401767D01*
X297317Y401817D02*
X285683Y401817D01*
X297317Y401817D02*
X297317Y388183D01*
X285683Y388183D01*
X285683Y401817D01*
X285683Y390447D02*
X297317Y390447D01*
X297317Y392711D02*
X285683Y392711D01*
X285683Y394975D02*
X297317Y394975D01*
X297317Y397239D02*
X285683Y397239D01*
X285683Y399503D02*
X297317Y399503D01*
X297317Y401767D02*
X285683Y401767D01*
D11*
X47110Y398700D02*
X39490Y398700D01*
X39490Y424100D02*
X47110Y424100D01*
X47110Y449500D02*
X39490Y449500D01*
X39490Y474900D02*
X47110Y474900D01*
D12*
X260573Y372073D02*
X279427Y372073D01*
X260573Y372073D02*
X260573Y381927D01*
X279427Y381927D01*
X279427Y372073D01*
X279427Y374128D02*
X260573Y374128D01*
X260573Y376183D02*
X279427Y376183D01*
X279427Y378238D02*
X260573Y378238D01*
X260573Y380293D02*
X279427Y380293D01*
X279427Y355073D02*
X260573Y355073D01*
X260573Y364927D01*
X279427Y364927D01*
X279427Y355073D01*
X279427Y357128D02*
X260573Y357128D01*
X260573Y359183D02*
X279427Y359183D01*
X279427Y361238D02*
X260573Y361238D01*
X260573Y363293D02*
X279427Y363293D01*
X279427Y338073D02*
X260573Y338073D01*
X260573Y347927D01*
X279427Y347927D01*
X279427Y338073D01*
X279427Y340128D02*
X260573Y340128D01*
X260573Y342183D02*
X279427Y342183D01*
X279427Y344238D02*
X260573Y344238D01*
X260573Y346293D02*
X279427Y346293D01*
X300573Y338073D02*
X319427Y338073D01*
X300573Y338073D02*
X300573Y347927D01*
X319427Y347927D01*
X319427Y338073D01*
X319427Y340128D02*
X300573Y340128D01*
X300573Y342183D02*
X319427Y342183D01*
X319427Y344238D02*
X300573Y344238D01*
X300573Y346293D02*
X319427Y346293D01*
X319427Y355073D02*
X300573Y355073D01*
X300573Y364927D01*
X319427Y364927D01*
X319427Y355073D01*
X319427Y357128D02*
X300573Y357128D01*
X300573Y359183D02*
X319427Y359183D01*
X319427Y361238D02*
X300573Y361238D01*
X300573Y363293D02*
X319427Y363293D01*
X319427Y372073D02*
X300573Y372073D01*
X300573Y381927D01*
X319427Y381927D01*
X319427Y372073D01*
X319427Y374128D02*
X300573Y374128D01*
X300573Y376183D02*
X319427Y376183D01*
X319427Y378238D02*
X300573Y378238D01*
X300573Y380293D02*
X319427Y380293D01*
X154427Y372073D02*
X135573Y372073D01*
X135573Y381927D01*
X154427Y381927D01*
X154427Y372073D01*
X154427Y374128D02*
X135573Y374128D01*
X135573Y376183D02*
X154427Y376183D01*
X154427Y378238D02*
X135573Y378238D01*
X135573Y380293D02*
X154427Y380293D01*
X154427Y355073D02*
X135573Y355073D01*
X135573Y364927D01*
X154427Y364927D01*
X154427Y355073D01*
X154427Y357128D02*
X135573Y357128D01*
X135573Y359183D02*
X154427Y359183D01*
X154427Y361238D02*
X135573Y361238D01*
X135573Y363293D02*
X154427Y363293D01*
X154427Y338073D02*
X135573Y338073D01*
X135573Y347927D01*
X154427Y347927D01*
X154427Y338073D01*
X154427Y340128D02*
X135573Y340128D01*
X135573Y342183D02*
X154427Y342183D01*
X154427Y344238D02*
X135573Y344238D01*
X135573Y346293D02*
X154427Y346293D01*
X175573Y338073D02*
X194427Y338073D01*
X175573Y338073D02*
X175573Y347927D01*
X194427Y347927D01*
X194427Y338073D01*
X194427Y340128D02*
X175573Y340128D01*
X175573Y342183D02*
X194427Y342183D01*
X194427Y344238D02*
X175573Y344238D01*
X175573Y346293D02*
X194427Y346293D01*
X194427Y355073D02*
X175573Y355073D01*
X175573Y364927D01*
X194427Y364927D01*
X194427Y355073D01*
X194427Y357128D02*
X175573Y357128D01*
X175573Y359183D02*
X194427Y359183D01*
X194427Y361238D02*
X175573Y361238D01*
X175573Y363293D02*
X194427Y363293D01*
X194427Y372073D02*
X175573Y372073D01*
X175573Y381927D01*
X194427Y381927D01*
X194427Y372073D01*
X194427Y374128D02*
X175573Y374128D01*
X175573Y376183D02*
X194427Y376183D01*
X194427Y378238D02*
X175573Y378238D01*
X175573Y380293D02*
X194427Y380293D01*
X194427Y247927D02*
X175573Y247927D01*
X194427Y247927D02*
X194427Y238073D01*
X175573Y238073D01*
X175573Y247927D01*
X175573Y240128D02*
X194427Y240128D01*
X194427Y242183D02*
X175573Y242183D01*
X175573Y244238D02*
X194427Y244238D01*
X194427Y246293D02*
X175573Y246293D01*
X175573Y264927D02*
X194427Y264927D01*
X194427Y255073D01*
X175573Y255073D01*
X175573Y264927D01*
X175573Y257128D02*
X194427Y257128D01*
X194427Y259183D02*
X175573Y259183D01*
X175573Y261238D02*
X194427Y261238D01*
X194427Y263293D02*
X175573Y263293D01*
X175573Y281927D02*
X194427Y281927D01*
X194427Y272073D01*
X175573Y272073D01*
X175573Y281927D01*
X175573Y274128D02*
X194427Y274128D01*
X194427Y276183D02*
X175573Y276183D01*
X175573Y278238D02*
X194427Y278238D01*
X194427Y280293D02*
X175573Y280293D01*
X154427Y281927D02*
X135573Y281927D01*
X154427Y281927D02*
X154427Y272073D01*
X135573Y272073D01*
X135573Y281927D01*
X135573Y274128D02*
X154427Y274128D01*
X154427Y276183D02*
X135573Y276183D01*
X135573Y278238D02*
X154427Y278238D01*
X154427Y280293D02*
X135573Y280293D01*
X135573Y264927D02*
X154427Y264927D01*
X154427Y255073D01*
X135573Y255073D01*
X135573Y264927D01*
X135573Y257128D02*
X154427Y257128D01*
X154427Y259183D02*
X135573Y259183D01*
X135573Y261238D02*
X154427Y261238D01*
X154427Y263293D02*
X135573Y263293D01*
X135573Y247927D02*
X154427Y247927D01*
X154427Y238073D01*
X135573Y238073D01*
X135573Y247927D01*
X135573Y240128D02*
X154427Y240128D01*
X154427Y242183D02*
X135573Y242183D01*
X135573Y244238D02*
X154427Y244238D01*
X154427Y246293D02*
X135573Y246293D01*
X300573Y247927D02*
X319427Y247927D01*
X319427Y238073D01*
X300573Y238073D01*
X300573Y247927D01*
X300573Y240128D02*
X319427Y240128D01*
X319427Y242183D02*
X300573Y242183D01*
X300573Y244238D02*
X319427Y244238D01*
X319427Y246293D02*
X300573Y246293D01*
X300573Y264927D02*
X319427Y264927D01*
X319427Y255073D01*
X300573Y255073D01*
X300573Y264927D01*
X300573Y257128D02*
X319427Y257128D01*
X319427Y259183D02*
X300573Y259183D01*
X300573Y261238D02*
X319427Y261238D01*
X319427Y263293D02*
X300573Y263293D01*
X300573Y281927D02*
X319427Y281927D01*
X319427Y272073D01*
X300573Y272073D01*
X300573Y281927D01*
X300573Y274128D02*
X319427Y274128D01*
X319427Y276183D02*
X300573Y276183D01*
X300573Y278238D02*
X319427Y278238D01*
X319427Y280293D02*
X300573Y280293D01*
X279427Y281927D02*
X260573Y281927D01*
X279427Y281927D02*
X279427Y272073D01*
X260573Y272073D01*
X260573Y281927D01*
X260573Y274128D02*
X279427Y274128D01*
X279427Y276183D02*
X260573Y276183D01*
X260573Y278238D02*
X279427Y278238D01*
X279427Y280293D02*
X260573Y280293D01*
X260573Y264927D02*
X279427Y264927D01*
X279427Y255073D01*
X260573Y255073D01*
X260573Y264927D01*
X260573Y257128D02*
X279427Y257128D01*
X279427Y259183D02*
X260573Y259183D01*
X260573Y261238D02*
X279427Y261238D01*
X279427Y263293D02*
X260573Y263293D01*
X260573Y247927D02*
X279427Y247927D01*
X279427Y238073D01*
X260573Y238073D01*
X260573Y247927D01*
X260573Y240128D02*
X279427Y240128D01*
X279427Y242183D02*
X260573Y242183D01*
X260573Y244238D02*
X279427Y244238D01*
X279427Y246293D02*
X260573Y246293D01*
X425573Y247927D02*
X444427Y247927D01*
X444427Y238073D01*
X425573Y238073D01*
X425573Y247927D01*
X425573Y240128D02*
X444427Y240128D01*
X444427Y242183D02*
X425573Y242183D01*
X425573Y244238D02*
X444427Y244238D01*
X444427Y246293D02*
X425573Y246293D01*
X425573Y264927D02*
X444427Y264927D01*
X444427Y255073D01*
X425573Y255073D01*
X425573Y264927D01*
X425573Y257128D02*
X444427Y257128D01*
X444427Y259183D02*
X425573Y259183D01*
X425573Y261238D02*
X444427Y261238D01*
X444427Y263293D02*
X425573Y263293D01*
X425573Y281927D02*
X444427Y281927D01*
X444427Y272073D01*
X425573Y272073D01*
X425573Y281927D01*
X425573Y274128D02*
X444427Y274128D01*
X444427Y276183D02*
X425573Y276183D01*
X425573Y278238D02*
X444427Y278238D01*
X444427Y280293D02*
X425573Y280293D01*
X404427Y281927D02*
X385573Y281927D01*
X404427Y281927D02*
X404427Y272073D01*
X385573Y272073D01*
X385573Y281927D01*
X385573Y274128D02*
X404427Y274128D01*
X404427Y276183D02*
X385573Y276183D01*
X385573Y278238D02*
X404427Y278238D01*
X404427Y280293D02*
X385573Y280293D01*
X385573Y264927D02*
X404427Y264927D01*
X404427Y255073D01*
X385573Y255073D01*
X385573Y264927D01*
X385573Y257128D02*
X404427Y257128D01*
X404427Y259183D02*
X385573Y259183D01*
X385573Y261238D02*
X404427Y261238D01*
X404427Y263293D02*
X385573Y263293D01*
X385573Y247927D02*
X404427Y247927D01*
X404427Y238073D01*
X385573Y238073D01*
X385573Y247927D01*
X385573Y240128D02*
X404427Y240128D01*
X404427Y242183D02*
X385573Y242183D01*
X385573Y244238D02*
X404427Y244238D01*
X404427Y246293D02*
X385573Y246293D01*
X550573Y247927D02*
X569427Y247927D01*
X569427Y238073D01*
X550573Y238073D01*
X550573Y247927D01*
X550573Y240128D02*
X569427Y240128D01*
X569427Y242183D02*
X550573Y242183D01*
X550573Y244238D02*
X569427Y244238D01*
X569427Y246293D02*
X550573Y246293D01*
X550573Y264927D02*
X569427Y264927D01*
X569427Y255073D01*
X550573Y255073D01*
X550573Y264927D01*
X550573Y257128D02*
X569427Y257128D01*
X569427Y259183D02*
X550573Y259183D01*
X550573Y261238D02*
X569427Y261238D01*
X569427Y263293D02*
X550573Y263293D01*
X550573Y281927D02*
X569427Y281927D01*
X569427Y272073D01*
X550573Y272073D01*
X550573Y281927D01*
X550573Y274128D02*
X569427Y274128D01*
X569427Y276183D02*
X550573Y276183D01*
X550573Y278238D02*
X569427Y278238D01*
X569427Y280293D02*
X550573Y280293D01*
X529427Y281927D02*
X510573Y281927D01*
X529427Y281927D02*
X529427Y272073D01*
X510573Y272073D01*
X510573Y281927D01*
X510573Y274128D02*
X529427Y274128D01*
X529427Y276183D02*
X510573Y276183D01*
X510573Y278238D02*
X529427Y278238D01*
X529427Y280293D02*
X510573Y280293D01*
X510573Y264927D02*
X529427Y264927D01*
X529427Y255073D01*
X510573Y255073D01*
X510573Y264927D01*
X510573Y257128D02*
X529427Y257128D01*
X529427Y259183D02*
X510573Y259183D01*
X510573Y261238D02*
X529427Y261238D01*
X529427Y263293D02*
X510573Y263293D01*
X510573Y247927D02*
X529427Y247927D01*
X529427Y238073D01*
X510573Y238073D01*
X510573Y247927D01*
X510573Y240128D02*
X529427Y240128D01*
X529427Y242183D02*
X510573Y242183D01*
X510573Y244238D02*
X529427Y244238D01*
X529427Y246293D02*
X510573Y246293D01*
X675573Y247927D02*
X694427Y247927D01*
X694427Y238073D01*
X675573Y238073D01*
X675573Y247927D01*
X675573Y240128D02*
X694427Y240128D01*
X694427Y242183D02*
X675573Y242183D01*
X675573Y244238D02*
X694427Y244238D01*
X694427Y246293D02*
X675573Y246293D01*
X675573Y264927D02*
X694427Y264927D01*
X694427Y255073D01*
X675573Y255073D01*
X675573Y264927D01*
X675573Y257128D02*
X694427Y257128D01*
X694427Y259183D02*
X675573Y259183D01*
X675573Y261238D02*
X694427Y261238D01*
X694427Y263293D02*
X675573Y263293D01*
X675573Y281927D02*
X694427Y281927D01*
X694427Y272073D01*
X675573Y272073D01*
X675573Y281927D01*
X675573Y274128D02*
X694427Y274128D01*
X694427Y276183D02*
X675573Y276183D01*
X675573Y278238D02*
X694427Y278238D01*
X694427Y280293D02*
X675573Y280293D01*
X654427Y281927D02*
X635573Y281927D01*
X654427Y281927D02*
X654427Y272073D01*
X635573Y272073D01*
X635573Y281927D01*
X635573Y274128D02*
X654427Y274128D01*
X654427Y276183D02*
X635573Y276183D01*
X635573Y278238D02*
X654427Y278238D01*
X654427Y280293D02*
X635573Y280293D01*
X635573Y264927D02*
X654427Y264927D01*
X654427Y255073D01*
X635573Y255073D01*
X635573Y264927D01*
X635573Y257128D02*
X654427Y257128D01*
X654427Y259183D02*
X635573Y259183D01*
X635573Y261238D02*
X654427Y261238D01*
X654427Y263293D02*
X635573Y263293D01*
X635573Y247927D02*
X654427Y247927D01*
X654427Y238073D01*
X635573Y238073D01*
X635573Y247927D01*
X635573Y240128D02*
X654427Y240128D01*
X654427Y242183D02*
X635573Y242183D01*
X635573Y244238D02*
X654427Y244238D01*
X654427Y246293D02*
X635573Y246293D01*
X635573Y172073D02*
X654427Y172073D01*
X635573Y172073D02*
X635573Y181927D01*
X654427Y181927D01*
X654427Y172073D01*
X654427Y174128D02*
X635573Y174128D01*
X635573Y176183D02*
X654427Y176183D01*
X654427Y178238D02*
X635573Y178238D01*
X635573Y180293D02*
X654427Y180293D01*
X654427Y155073D02*
X635573Y155073D01*
X635573Y164927D01*
X654427Y164927D01*
X654427Y155073D01*
X654427Y157128D02*
X635573Y157128D01*
X635573Y159183D02*
X654427Y159183D01*
X654427Y161238D02*
X635573Y161238D01*
X635573Y163293D02*
X654427Y163293D01*
X654427Y138073D02*
X635573Y138073D01*
X635573Y147927D01*
X654427Y147927D01*
X654427Y138073D01*
X654427Y140128D02*
X635573Y140128D01*
X635573Y142183D02*
X654427Y142183D01*
X654427Y144238D02*
X635573Y144238D01*
X635573Y146293D02*
X654427Y146293D01*
X675573Y138073D02*
X694427Y138073D01*
X675573Y138073D02*
X675573Y147927D01*
X694427Y147927D01*
X694427Y138073D01*
X694427Y140128D02*
X675573Y140128D01*
X675573Y142183D02*
X694427Y142183D01*
X694427Y144238D02*
X675573Y144238D01*
X675573Y146293D02*
X694427Y146293D01*
X694427Y155073D02*
X675573Y155073D01*
X675573Y164927D01*
X694427Y164927D01*
X694427Y155073D01*
X694427Y157128D02*
X675573Y157128D01*
X675573Y159183D02*
X694427Y159183D01*
X694427Y161238D02*
X675573Y161238D01*
X675573Y163293D02*
X694427Y163293D01*
X694427Y172073D02*
X675573Y172073D01*
X675573Y181927D01*
X694427Y181927D01*
X694427Y172073D01*
X694427Y174128D02*
X675573Y174128D01*
X675573Y176183D02*
X694427Y176183D01*
X694427Y178238D02*
X675573Y178238D01*
X675573Y180293D02*
X694427Y180293D01*
X529427Y172073D02*
X510573Y172073D01*
X510573Y181927D01*
X529427Y181927D01*
X529427Y172073D01*
X529427Y174128D02*
X510573Y174128D01*
X510573Y176183D02*
X529427Y176183D01*
X529427Y178238D02*
X510573Y178238D01*
X510573Y180293D02*
X529427Y180293D01*
X529427Y155073D02*
X510573Y155073D01*
X510573Y164927D01*
X529427Y164927D01*
X529427Y155073D01*
X529427Y157128D02*
X510573Y157128D01*
X510573Y159183D02*
X529427Y159183D01*
X529427Y161238D02*
X510573Y161238D01*
X510573Y163293D02*
X529427Y163293D01*
X529427Y138073D02*
X510573Y138073D01*
X510573Y147927D01*
X529427Y147927D01*
X529427Y138073D01*
X529427Y140128D02*
X510573Y140128D01*
X510573Y142183D02*
X529427Y142183D01*
X529427Y144238D02*
X510573Y144238D01*
X510573Y146293D02*
X529427Y146293D01*
X550573Y138073D02*
X569427Y138073D01*
X550573Y138073D02*
X550573Y147927D01*
X569427Y147927D01*
X569427Y138073D01*
X569427Y140128D02*
X550573Y140128D01*
X550573Y142183D02*
X569427Y142183D01*
X569427Y144238D02*
X550573Y144238D01*
X550573Y146293D02*
X569427Y146293D01*
X569427Y155073D02*
X550573Y155073D01*
X550573Y164927D01*
X569427Y164927D01*
X569427Y155073D01*
X569427Y157128D02*
X550573Y157128D01*
X550573Y159183D02*
X569427Y159183D01*
X569427Y161238D02*
X550573Y161238D01*
X550573Y163293D02*
X569427Y163293D01*
X569427Y172073D02*
X550573Y172073D01*
X550573Y181927D01*
X569427Y181927D01*
X569427Y172073D01*
X569427Y174128D02*
X550573Y174128D01*
X550573Y176183D02*
X569427Y176183D01*
X569427Y178238D02*
X550573Y178238D01*
X550573Y180293D02*
X569427Y180293D01*
X404427Y172073D02*
X385573Y172073D01*
X385573Y181927D01*
X404427Y181927D01*
X404427Y172073D01*
X404427Y174128D02*
X385573Y174128D01*
X385573Y176183D02*
X404427Y176183D01*
X404427Y178238D02*
X385573Y178238D01*
X385573Y180293D02*
X404427Y180293D01*
X404427Y155073D02*
X385573Y155073D01*
X385573Y164927D01*
X404427Y164927D01*
X404427Y155073D01*
X404427Y157128D02*
X385573Y157128D01*
X385573Y159183D02*
X404427Y159183D01*
X404427Y161238D02*
X385573Y161238D01*
X385573Y163293D02*
X404427Y163293D01*
X404427Y138073D02*
X385573Y138073D01*
X385573Y147927D01*
X404427Y147927D01*
X404427Y138073D01*
X404427Y140128D02*
X385573Y140128D01*
X385573Y142183D02*
X404427Y142183D01*
X404427Y144238D02*
X385573Y144238D01*
X385573Y146293D02*
X404427Y146293D01*
X425573Y138073D02*
X444427Y138073D01*
X425573Y138073D02*
X425573Y147927D01*
X444427Y147927D01*
X444427Y138073D01*
X444427Y140128D02*
X425573Y140128D01*
X425573Y142183D02*
X444427Y142183D01*
X444427Y144238D02*
X425573Y144238D01*
X425573Y146293D02*
X444427Y146293D01*
X444427Y155073D02*
X425573Y155073D01*
X425573Y164927D01*
X444427Y164927D01*
X444427Y155073D01*
X444427Y157128D02*
X425573Y157128D01*
X425573Y159183D02*
X444427Y159183D01*
X444427Y161238D02*
X425573Y161238D01*
X425573Y163293D02*
X444427Y163293D01*
X444427Y172073D02*
X425573Y172073D01*
X425573Y181927D01*
X444427Y181927D01*
X444427Y172073D01*
X444427Y174128D02*
X425573Y174128D01*
X425573Y176183D02*
X444427Y176183D01*
X444427Y178238D02*
X425573Y178238D01*
X425573Y180293D02*
X444427Y180293D01*
X194427Y447927D02*
X175573Y447927D01*
X194427Y447927D02*
X194427Y438073D01*
X175573Y438073D01*
X175573Y447927D01*
X175573Y440128D02*
X194427Y440128D01*
X194427Y442183D02*
X175573Y442183D01*
X175573Y444238D02*
X194427Y444238D01*
X194427Y446293D02*
X175573Y446293D01*
X175573Y464927D02*
X194427Y464927D01*
X194427Y455073D01*
X175573Y455073D01*
X175573Y464927D01*
X175573Y457128D02*
X194427Y457128D01*
X194427Y459183D02*
X175573Y459183D01*
X175573Y461238D02*
X194427Y461238D01*
X194427Y463293D02*
X175573Y463293D01*
X175573Y481927D02*
X194427Y481927D01*
X194427Y472073D01*
X175573Y472073D01*
X175573Y481927D01*
X175573Y474128D02*
X194427Y474128D01*
X194427Y476183D02*
X175573Y476183D01*
X175573Y478238D02*
X194427Y478238D01*
X194427Y480293D02*
X175573Y480293D01*
X154427Y481927D02*
X135573Y481927D01*
X154427Y481927D02*
X154427Y472073D01*
X135573Y472073D01*
X135573Y481927D01*
X135573Y474128D02*
X154427Y474128D01*
X154427Y476183D02*
X135573Y476183D01*
X135573Y478238D02*
X154427Y478238D01*
X154427Y480293D02*
X135573Y480293D01*
X135573Y464927D02*
X154427Y464927D01*
X154427Y455073D01*
X135573Y455073D01*
X135573Y464927D01*
X135573Y457128D02*
X154427Y457128D01*
X154427Y459183D02*
X135573Y459183D01*
X135573Y461238D02*
X154427Y461238D01*
X154427Y463293D02*
X135573Y463293D01*
X135573Y447927D02*
X154427Y447927D01*
X154427Y438073D01*
X135573Y438073D01*
X135573Y447927D01*
X135573Y440128D02*
X154427Y440128D01*
X154427Y442183D02*
X135573Y442183D01*
X135573Y444238D02*
X154427Y444238D01*
X154427Y446293D02*
X135573Y446293D01*
X260573Y172073D02*
X279427Y172073D01*
X260573Y172073D02*
X260573Y181927D01*
X279427Y181927D01*
X279427Y172073D01*
X279427Y174128D02*
X260573Y174128D01*
X260573Y176183D02*
X279427Y176183D01*
X279427Y178238D02*
X260573Y178238D01*
X260573Y180293D02*
X279427Y180293D01*
X279427Y155073D02*
X260573Y155073D01*
X260573Y164927D01*
X279427Y164927D01*
X279427Y155073D01*
X279427Y157128D02*
X260573Y157128D01*
X260573Y159183D02*
X279427Y159183D01*
X279427Y161238D02*
X260573Y161238D01*
X260573Y163293D02*
X279427Y163293D01*
X279427Y138073D02*
X260573Y138073D01*
X260573Y147927D01*
X279427Y147927D01*
X279427Y138073D01*
X279427Y140128D02*
X260573Y140128D01*
X260573Y142183D02*
X279427Y142183D01*
X279427Y144238D02*
X260573Y144238D01*
X260573Y146293D02*
X279427Y146293D01*
X300573Y138073D02*
X319427Y138073D01*
X300573Y138073D02*
X300573Y147927D01*
X319427Y147927D01*
X319427Y138073D01*
X319427Y140128D02*
X300573Y140128D01*
X300573Y142183D02*
X319427Y142183D01*
X319427Y144238D02*
X300573Y144238D01*
X300573Y146293D02*
X319427Y146293D01*
X319427Y155073D02*
X300573Y155073D01*
X300573Y164927D01*
X319427Y164927D01*
X319427Y155073D01*
X319427Y157128D02*
X300573Y157128D01*
X300573Y159183D02*
X319427Y159183D01*
X319427Y161238D02*
X300573Y161238D01*
X300573Y163293D02*
X319427Y163293D01*
X319427Y172073D02*
X300573Y172073D01*
X300573Y181927D01*
X319427Y181927D01*
X319427Y172073D01*
X319427Y174128D02*
X300573Y174128D01*
X300573Y176183D02*
X319427Y176183D01*
X319427Y178238D02*
X300573Y178238D01*
X300573Y180293D02*
X319427Y180293D01*
X154427Y172073D02*
X135573Y172073D01*
X135573Y181927D01*
X154427Y181927D01*
X154427Y172073D01*
X154427Y174128D02*
X135573Y174128D01*
X135573Y176183D02*
X154427Y176183D01*
X154427Y178238D02*
X135573Y178238D01*
X135573Y180293D02*
X154427Y180293D01*
X154427Y155073D02*
X135573Y155073D01*
X135573Y164927D01*
X154427Y164927D01*
X154427Y155073D01*
X154427Y157128D02*
X135573Y157128D01*
X135573Y159183D02*
X154427Y159183D01*
X154427Y161238D02*
X135573Y161238D01*
X135573Y163293D02*
X154427Y163293D01*
X154427Y138073D02*
X135573Y138073D01*
X135573Y147927D01*
X154427Y147927D01*
X154427Y138073D01*
X154427Y140128D02*
X135573Y140128D01*
X135573Y142183D02*
X154427Y142183D01*
X154427Y144238D02*
X135573Y144238D01*
X135573Y146293D02*
X154427Y146293D01*
X175573Y138073D02*
X194427Y138073D01*
X175573Y138073D02*
X175573Y147927D01*
X194427Y147927D01*
X194427Y138073D01*
X194427Y140128D02*
X175573Y140128D01*
X175573Y142183D02*
X194427Y142183D01*
X194427Y144238D02*
X175573Y144238D01*
X175573Y146293D02*
X194427Y146293D01*
X194427Y155073D02*
X175573Y155073D01*
X175573Y164927D01*
X194427Y164927D01*
X194427Y155073D01*
X194427Y157128D02*
X175573Y157128D01*
X175573Y159183D02*
X194427Y159183D01*
X194427Y161238D02*
X175573Y161238D01*
X175573Y163293D02*
X194427Y163293D01*
X194427Y172073D02*
X175573Y172073D01*
X175573Y181927D01*
X194427Y181927D01*
X194427Y172073D01*
X194427Y174128D02*
X175573Y174128D01*
X175573Y176183D02*
X194427Y176183D01*
X194427Y178238D02*
X175573Y178238D01*
X175573Y180293D02*
X194427Y180293D01*
X194427Y47927D02*
X175573Y47927D01*
X194427Y47927D02*
X194427Y38073D01*
X175573Y38073D01*
X175573Y47927D01*
X175573Y40128D02*
X194427Y40128D01*
X194427Y42183D02*
X175573Y42183D01*
X175573Y44238D02*
X194427Y44238D01*
X194427Y46293D02*
X175573Y46293D01*
X175573Y64927D02*
X194427Y64927D01*
X194427Y55073D01*
X175573Y55073D01*
X175573Y64927D01*
X175573Y57128D02*
X194427Y57128D01*
X194427Y59183D02*
X175573Y59183D01*
X175573Y61238D02*
X194427Y61238D01*
X194427Y63293D02*
X175573Y63293D01*
X175573Y81927D02*
X194427Y81927D01*
X194427Y72073D01*
X175573Y72073D01*
X175573Y81927D01*
X175573Y74128D02*
X194427Y74128D01*
X194427Y76183D02*
X175573Y76183D01*
X175573Y78238D02*
X194427Y78238D01*
X194427Y80293D02*
X175573Y80293D01*
X154427Y81927D02*
X135573Y81927D01*
X154427Y81927D02*
X154427Y72073D01*
X135573Y72073D01*
X135573Y81927D01*
X135573Y74128D02*
X154427Y74128D01*
X154427Y76183D02*
X135573Y76183D01*
X135573Y78238D02*
X154427Y78238D01*
X154427Y80293D02*
X135573Y80293D01*
X135573Y64927D02*
X154427Y64927D01*
X154427Y55073D01*
X135573Y55073D01*
X135573Y64927D01*
X135573Y57128D02*
X154427Y57128D01*
X154427Y59183D02*
X135573Y59183D01*
X135573Y61238D02*
X154427Y61238D01*
X154427Y63293D02*
X135573Y63293D01*
X135573Y47927D02*
X154427Y47927D01*
X154427Y38073D01*
X135573Y38073D01*
X135573Y47927D01*
X135573Y40128D02*
X154427Y40128D01*
X154427Y42183D02*
X135573Y42183D01*
X135573Y44238D02*
X154427Y44238D01*
X154427Y46293D02*
X135573Y46293D01*
X300573Y47927D02*
X319427Y47927D01*
X319427Y38073D01*
X300573Y38073D01*
X300573Y47927D01*
X300573Y40128D02*
X319427Y40128D01*
X319427Y42183D02*
X300573Y42183D01*
X300573Y44238D02*
X319427Y44238D01*
X319427Y46293D02*
X300573Y46293D01*
X300573Y64927D02*
X319427Y64927D01*
X319427Y55073D01*
X300573Y55073D01*
X300573Y64927D01*
X300573Y57128D02*
X319427Y57128D01*
X319427Y59183D02*
X300573Y59183D01*
X300573Y61238D02*
X319427Y61238D01*
X319427Y63293D02*
X300573Y63293D01*
X300573Y81927D02*
X319427Y81927D01*
X319427Y72073D01*
X300573Y72073D01*
X300573Y81927D01*
X300573Y74128D02*
X319427Y74128D01*
X319427Y76183D02*
X300573Y76183D01*
X300573Y78238D02*
X319427Y78238D01*
X319427Y80293D02*
X300573Y80293D01*
X279427Y81927D02*
X260573Y81927D01*
X279427Y81927D02*
X279427Y72073D01*
X260573Y72073D01*
X260573Y81927D01*
X260573Y74128D02*
X279427Y74128D01*
X279427Y76183D02*
X260573Y76183D01*
X260573Y78238D02*
X279427Y78238D01*
X279427Y80293D02*
X260573Y80293D01*
X260573Y64927D02*
X279427Y64927D01*
X279427Y55073D01*
X260573Y55073D01*
X260573Y64927D01*
X260573Y57128D02*
X279427Y57128D01*
X279427Y59183D02*
X260573Y59183D01*
X260573Y61238D02*
X279427Y61238D01*
X279427Y63293D02*
X260573Y63293D01*
X260573Y47927D02*
X279427Y47927D01*
X279427Y38073D01*
X260573Y38073D01*
X260573Y47927D01*
X260573Y40128D02*
X279427Y40128D01*
X279427Y42183D02*
X260573Y42183D01*
X260573Y44238D02*
X279427Y44238D01*
X279427Y46293D02*
X260573Y46293D01*
X425573Y47927D02*
X444427Y47927D01*
X444427Y38073D01*
X425573Y38073D01*
X425573Y47927D01*
X425573Y40128D02*
X444427Y40128D01*
X444427Y42183D02*
X425573Y42183D01*
X425573Y44238D02*
X444427Y44238D01*
X444427Y46293D02*
X425573Y46293D01*
X425573Y64927D02*
X444427Y64927D01*
X444427Y55073D01*
X425573Y55073D01*
X425573Y64927D01*
X425573Y57128D02*
X444427Y57128D01*
X444427Y59183D02*
X425573Y59183D01*
X425573Y61238D02*
X444427Y61238D01*
X444427Y63293D02*
X425573Y63293D01*
X425573Y81927D02*
X444427Y81927D01*
X444427Y72073D01*
X425573Y72073D01*
X425573Y81927D01*
X425573Y74128D02*
X444427Y74128D01*
X444427Y76183D02*
X425573Y76183D01*
X425573Y78238D02*
X444427Y78238D01*
X444427Y80293D02*
X425573Y80293D01*
X404427Y81927D02*
X385573Y81927D01*
X404427Y81927D02*
X404427Y72073D01*
X385573Y72073D01*
X385573Y81927D01*
X385573Y74128D02*
X404427Y74128D01*
X404427Y76183D02*
X385573Y76183D01*
X385573Y78238D02*
X404427Y78238D01*
X404427Y80293D02*
X385573Y80293D01*
X385573Y64927D02*
X404427Y64927D01*
X404427Y55073D01*
X385573Y55073D01*
X385573Y64927D01*
X385573Y57128D02*
X404427Y57128D01*
X404427Y59183D02*
X385573Y59183D01*
X385573Y61238D02*
X404427Y61238D01*
X404427Y63293D02*
X385573Y63293D01*
X385573Y47927D02*
X404427Y47927D01*
X404427Y38073D01*
X385573Y38073D01*
X385573Y47927D01*
X385573Y40128D02*
X404427Y40128D01*
X404427Y42183D02*
X385573Y42183D01*
X385573Y44238D02*
X404427Y44238D01*
X404427Y46293D02*
X385573Y46293D01*
X550573Y47927D02*
X569427Y47927D01*
X569427Y38073D01*
X550573Y38073D01*
X550573Y47927D01*
X550573Y40128D02*
X569427Y40128D01*
X569427Y42183D02*
X550573Y42183D01*
X550573Y44238D02*
X569427Y44238D01*
X569427Y46293D02*
X550573Y46293D01*
X550573Y64927D02*
X569427Y64927D01*
X569427Y55073D01*
X550573Y55073D01*
X550573Y64927D01*
X550573Y57128D02*
X569427Y57128D01*
X569427Y59183D02*
X550573Y59183D01*
X550573Y61238D02*
X569427Y61238D01*
X569427Y63293D02*
X550573Y63293D01*
X550573Y81927D02*
X569427Y81927D01*
X569427Y72073D01*
X550573Y72073D01*
X550573Y81927D01*
X550573Y74128D02*
X569427Y74128D01*
X569427Y76183D02*
X550573Y76183D01*
X550573Y78238D02*
X569427Y78238D01*
X569427Y80293D02*
X550573Y80293D01*
X529427Y81927D02*
X510573Y81927D01*
X529427Y81927D02*
X529427Y72073D01*
X510573Y72073D01*
X510573Y81927D01*
X510573Y74128D02*
X529427Y74128D01*
X529427Y76183D02*
X510573Y76183D01*
X510573Y78238D02*
X529427Y78238D01*
X529427Y80293D02*
X510573Y80293D01*
X510573Y64927D02*
X529427Y64927D01*
X529427Y55073D01*
X510573Y55073D01*
X510573Y64927D01*
X510573Y57128D02*
X529427Y57128D01*
X529427Y59183D02*
X510573Y59183D01*
X510573Y61238D02*
X529427Y61238D01*
X529427Y63293D02*
X510573Y63293D01*
X510573Y47927D02*
X529427Y47927D01*
X529427Y38073D01*
X510573Y38073D01*
X510573Y47927D01*
X510573Y40128D02*
X529427Y40128D01*
X529427Y42183D02*
X510573Y42183D01*
X510573Y44238D02*
X529427Y44238D01*
X529427Y46293D02*
X510573Y46293D01*
X675573Y47927D02*
X694427Y47927D01*
X694427Y38073D01*
X675573Y38073D01*
X675573Y47927D01*
X675573Y40128D02*
X694427Y40128D01*
X694427Y42183D02*
X675573Y42183D01*
X675573Y44238D02*
X694427Y44238D01*
X694427Y46293D02*
X675573Y46293D01*
X675573Y64927D02*
X694427Y64927D01*
X694427Y55073D01*
X675573Y55073D01*
X675573Y64927D01*
X675573Y57128D02*
X694427Y57128D01*
X694427Y59183D02*
X675573Y59183D01*
X675573Y61238D02*
X694427Y61238D01*
X694427Y63293D02*
X675573Y63293D01*
X675573Y81927D02*
X694427Y81927D01*
X694427Y72073D01*
X675573Y72073D01*
X675573Y81927D01*
X675573Y74128D02*
X694427Y74128D01*
X694427Y76183D02*
X675573Y76183D01*
X675573Y78238D02*
X694427Y78238D01*
X694427Y80293D02*
X675573Y80293D01*
X654427Y81927D02*
X635573Y81927D01*
X654427Y81927D02*
X654427Y72073D01*
X635573Y72073D01*
X635573Y81927D01*
X635573Y74128D02*
X654427Y74128D01*
X654427Y76183D02*
X635573Y76183D01*
X635573Y78238D02*
X654427Y78238D01*
X654427Y80293D02*
X635573Y80293D01*
X635573Y64927D02*
X654427Y64927D01*
X654427Y55073D01*
X635573Y55073D01*
X635573Y64927D01*
X635573Y57128D02*
X654427Y57128D01*
X654427Y59183D02*
X635573Y59183D01*
X635573Y61238D02*
X654427Y61238D01*
X654427Y63293D02*
X635573Y63293D01*
X635573Y47927D02*
X654427Y47927D01*
X654427Y38073D01*
X635573Y38073D01*
X635573Y47927D01*
X635573Y40128D02*
X654427Y40128D01*
X654427Y42183D02*
X635573Y42183D01*
X635573Y44238D02*
X654427Y44238D01*
X654427Y46293D02*
X635573Y46293D01*
X319427Y447927D02*
X300573Y447927D01*
X319427Y447927D02*
X319427Y438073D01*
X300573Y438073D01*
X300573Y447927D01*
X300573Y440128D02*
X319427Y440128D01*
X319427Y442183D02*
X300573Y442183D01*
X300573Y444238D02*
X319427Y444238D01*
X319427Y446293D02*
X300573Y446293D01*
X300573Y464927D02*
X319427Y464927D01*
X319427Y455073D01*
X300573Y455073D01*
X300573Y464927D01*
X300573Y457128D02*
X319427Y457128D01*
X319427Y459183D02*
X300573Y459183D01*
X300573Y461238D02*
X319427Y461238D01*
X319427Y463293D02*
X300573Y463293D01*
X300573Y481927D02*
X319427Y481927D01*
X319427Y472073D01*
X300573Y472073D01*
X300573Y481927D01*
X300573Y474128D02*
X319427Y474128D01*
X319427Y476183D02*
X300573Y476183D01*
X300573Y478238D02*
X319427Y478238D01*
X319427Y480293D02*
X300573Y480293D01*
X279427Y481927D02*
X260573Y481927D01*
X279427Y481927D02*
X279427Y472073D01*
X260573Y472073D01*
X260573Y481927D01*
X260573Y474128D02*
X279427Y474128D01*
X279427Y476183D02*
X260573Y476183D01*
X260573Y478238D02*
X279427Y478238D01*
X279427Y480293D02*
X260573Y480293D01*
X260573Y464927D02*
X279427Y464927D01*
X279427Y455073D01*
X260573Y455073D01*
X260573Y464927D01*
X260573Y457128D02*
X279427Y457128D01*
X279427Y459183D02*
X260573Y459183D01*
X260573Y461238D02*
X279427Y461238D01*
X279427Y463293D02*
X260573Y463293D01*
X260573Y447927D02*
X279427Y447927D01*
X279427Y438073D01*
X260573Y438073D01*
X260573Y447927D01*
X260573Y440128D02*
X279427Y440128D01*
X279427Y442183D02*
X260573Y442183D01*
X260573Y444238D02*
X279427Y444238D01*
X279427Y446293D02*
X260573Y446293D01*
X425573Y447927D02*
X444427Y447927D01*
X444427Y438073D01*
X425573Y438073D01*
X425573Y447927D01*
X425573Y440128D02*
X444427Y440128D01*
X444427Y442183D02*
X425573Y442183D01*
X425573Y444238D02*
X444427Y444238D01*
X444427Y446293D02*
X425573Y446293D01*
X425573Y464927D02*
X444427Y464927D01*
X444427Y455073D01*
X425573Y455073D01*
X425573Y464927D01*
X425573Y457128D02*
X444427Y457128D01*
X444427Y459183D02*
X425573Y459183D01*
X425573Y461238D02*
X444427Y461238D01*
X444427Y463293D02*
X425573Y463293D01*
X425573Y481927D02*
X444427Y481927D01*
X444427Y472073D01*
X425573Y472073D01*
X425573Y481927D01*
X425573Y474128D02*
X444427Y474128D01*
X444427Y476183D02*
X425573Y476183D01*
X425573Y478238D02*
X444427Y478238D01*
X444427Y480293D02*
X425573Y480293D01*
X404427Y481927D02*
X385573Y481927D01*
X404427Y481927D02*
X404427Y472073D01*
X385573Y472073D01*
X385573Y481927D01*
X385573Y474128D02*
X404427Y474128D01*
X404427Y476183D02*
X385573Y476183D01*
X385573Y478238D02*
X404427Y478238D01*
X404427Y480293D02*
X385573Y480293D01*
X385573Y464927D02*
X404427Y464927D01*
X404427Y455073D01*
X385573Y455073D01*
X385573Y464927D01*
X385573Y457128D02*
X404427Y457128D01*
X404427Y459183D02*
X385573Y459183D01*
X385573Y461238D02*
X404427Y461238D01*
X404427Y463293D02*
X385573Y463293D01*
X385573Y447927D02*
X404427Y447927D01*
X404427Y438073D01*
X385573Y438073D01*
X385573Y447927D01*
X385573Y440128D02*
X404427Y440128D01*
X404427Y442183D02*
X385573Y442183D01*
X385573Y444238D02*
X404427Y444238D01*
X404427Y446293D02*
X385573Y446293D01*
X550573Y447927D02*
X569427Y447927D01*
X569427Y438073D01*
X550573Y438073D01*
X550573Y447927D01*
X550573Y440128D02*
X569427Y440128D01*
X569427Y442183D02*
X550573Y442183D01*
X550573Y444238D02*
X569427Y444238D01*
X569427Y446293D02*
X550573Y446293D01*
X550573Y464927D02*
X569427Y464927D01*
X569427Y455073D01*
X550573Y455073D01*
X550573Y464927D01*
X550573Y457128D02*
X569427Y457128D01*
X569427Y459183D02*
X550573Y459183D01*
X550573Y461238D02*
X569427Y461238D01*
X569427Y463293D02*
X550573Y463293D01*
X550573Y481927D02*
X569427Y481927D01*
X569427Y472073D01*
X550573Y472073D01*
X550573Y481927D01*
X550573Y474128D02*
X569427Y474128D01*
X569427Y476183D02*
X550573Y476183D01*
X550573Y478238D02*
X569427Y478238D01*
X569427Y480293D02*
X550573Y480293D01*
X529427Y481927D02*
X510573Y481927D01*
X529427Y481927D02*
X529427Y472073D01*
X510573Y472073D01*
X510573Y481927D01*
X510573Y474128D02*
X529427Y474128D01*
X529427Y476183D02*
X510573Y476183D01*
X510573Y478238D02*
X529427Y478238D01*
X529427Y480293D02*
X510573Y480293D01*
X510573Y464927D02*
X529427Y464927D01*
X529427Y455073D01*
X510573Y455073D01*
X510573Y464927D01*
X510573Y457128D02*
X529427Y457128D01*
X529427Y459183D02*
X510573Y459183D01*
X510573Y461238D02*
X529427Y461238D01*
X529427Y463293D02*
X510573Y463293D01*
X510573Y447927D02*
X529427Y447927D01*
X529427Y438073D01*
X510573Y438073D01*
X510573Y447927D01*
X510573Y440128D02*
X529427Y440128D01*
X529427Y442183D02*
X510573Y442183D01*
X510573Y444238D02*
X529427Y444238D01*
X529427Y446293D02*
X510573Y446293D01*
X675573Y447927D02*
X694427Y447927D01*
X694427Y438073D01*
X675573Y438073D01*
X675573Y447927D01*
X675573Y440128D02*
X694427Y440128D01*
X694427Y442183D02*
X675573Y442183D01*
X675573Y444238D02*
X694427Y444238D01*
X694427Y446293D02*
X675573Y446293D01*
X675573Y464927D02*
X694427Y464927D01*
X694427Y455073D01*
X675573Y455073D01*
X675573Y464927D01*
X675573Y457128D02*
X694427Y457128D01*
X694427Y459183D02*
X675573Y459183D01*
X675573Y461238D02*
X694427Y461238D01*
X694427Y463293D02*
X675573Y463293D01*
X675573Y481927D02*
X694427Y481927D01*
X694427Y472073D01*
X675573Y472073D01*
X675573Y481927D01*
X675573Y474128D02*
X694427Y474128D01*
X694427Y476183D02*
X675573Y476183D01*
X675573Y478238D02*
X694427Y478238D01*
X694427Y480293D02*
X675573Y480293D01*
X654427Y481927D02*
X635573Y481927D01*
X654427Y481927D02*
X654427Y472073D01*
X635573Y472073D01*
X635573Y481927D01*
X635573Y474128D02*
X654427Y474128D01*
X654427Y476183D02*
X635573Y476183D01*
X635573Y478238D02*
X654427Y478238D01*
X654427Y480293D02*
X635573Y480293D01*
X635573Y464927D02*
X654427Y464927D01*
X654427Y455073D01*
X635573Y455073D01*
X635573Y464927D01*
X635573Y457128D02*
X654427Y457128D01*
X654427Y459183D02*
X635573Y459183D01*
X635573Y461238D02*
X654427Y461238D01*
X654427Y463293D02*
X635573Y463293D01*
X635573Y447927D02*
X654427Y447927D01*
X654427Y438073D01*
X635573Y438073D01*
X635573Y447927D01*
X635573Y440128D02*
X654427Y440128D01*
X654427Y442183D02*
X635573Y442183D01*
X635573Y444238D02*
X654427Y444238D01*
X654427Y446293D02*
X635573Y446293D01*
X635573Y372073D02*
X654427Y372073D01*
X635573Y372073D02*
X635573Y381927D01*
X654427Y381927D01*
X654427Y372073D01*
X654427Y374128D02*
X635573Y374128D01*
X635573Y376183D02*
X654427Y376183D01*
X654427Y378238D02*
X635573Y378238D01*
X635573Y380293D02*
X654427Y380293D01*
X654427Y355073D02*
X635573Y355073D01*
X635573Y364927D01*
X654427Y364927D01*
X654427Y355073D01*
X654427Y357128D02*
X635573Y357128D01*
X635573Y359183D02*
X654427Y359183D01*
X654427Y361238D02*
X635573Y361238D01*
X635573Y363293D02*
X654427Y363293D01*
X654427Y338073D02*
X635573Y338073D01*
X635573Y347927D01*
X654427Y347927D01*
X654427Y338073D01*
X654427Y340128D02*
X635573Y340128D01*
X635573Y342183D02*
X654427Y342183D01*
X654427Y344238D02*
X635573Y344238D01*
X635573Y346293D02*
X654427Y346293D01*
X675573Y338073D02*
X694427Y338073D01*
X675573Y338073D02*
X675573Y347927D01*
X694427Y347927D01*
X694427Y338073D01*
X694427Y340128D02*
X675573Y340128D01*
X675573Y342183D02*
X694427Y342183D01*
X694427Y344238D02*
X675573Y344238D01*
X675573Y346293D02*
X694427Y346293D01*
X694427Y355073D02*
X675573Y355073D01*
X675573Y364927D01*
X694427Y364927D01*
X694427Y355073D01*
X694427Y357128D02*
X675573Y357128D01*
X675573Y359183D02*
X694427Y359183D01*
X694427Y361238D02*
X675573Y361238D01*
X675573Y363293D02*
X694427Y363293D01*
X694427Y372073D02*
X675573Y372073D01*
X675573Y381927D01*
X694427Y381927D01*
X694427Y372073D01*
X694427Y374128D02*
X675573Y374128D01*
X675573Y376183D02*
X694427Y376183D01*
X694427Y378238D02*
X675573Y378238D01*
X675573Y380293D02*
X694427Y380293D01*
X529427Y372073D02*
X510573Y372073D01*
X510573Y381927D01*
X529427Y381927D01*
X529427Y372073D01*
X529427Y374128D02*
X510573Y374128D01*
X510573Y376183D02*
X529427Y376183D01*
X529427Y378238D02*
X510573Y378238D01*
X510573Y380293D02*
X529427Y380293D01*
X529427Y355073D02*
X510573Y355073D01*
X510573Y364927D01*
X529427Y364927D01*
X529427Y355073D01*
X529427Y357128D02*
X510573Y357128D01*
X510573Y359183D02*
X529427Y359183D01*
X529427Y361238D02*
X510573Y361238D01*
X510573Y363293D02*
X529427Y363293D01*
X529427Y338073D02*
X510573Y338073D01*
X510573Y347927D01*
X529427Y347927D01*
X529427Y338073D01*
X529427Y340128D02*
X510573Y340128D01*
X510573Y342183D02*
X529427Y342183D01*
X529427Y344238D02*
X510573Y344238D01*
X510573Y346293D02*
X529427Y346293D01*
X550573Y338073D02*
X569427Y338073D01*
X550573Y338073D02*
X550573Y347927D01*
X569427Y347927D01*
X569427Y338073D01*
X569427Y340128D02*
X550573Y340128D01*
X550573Y342183D02*
X569427Y342183D01*
X569427Y344238D02*
X550573Y344238D01*
X550573Y346293D02*
X569427Y346293D01*
X569427Y355073D02*
X550573Y355073D01*
X550573Y364927D01*
X569427Y364927D01*
X569427Y355073D01*
X569427Y357128D02*
X550573Y357128D01*
X550573Y359183D02*
X569427Y359183D01*
X569427Y361238D02*
X550573Y361238D01*
X550573Y363293D02*
X569427Y363293D01*
X569427Y372073D02*
X550573Y372073D01*
X550573Y381927D01*
X569427Y381927D01*
X569427Y372073D01*
X569427Y374128D02*
X550573Y374128D01*
X550573Y376183D02*
X569427Y376183D01*
X569427Y378238D02*
X550573Y378238D01*
X550573Y380293D02*
X569427Y380293D01*
X404427Y372073D02*
X385573Y372073D01*
X385573Y381927D01*
X404427Y381927D01*
X404427Y372073D01*
X404427Y374128D02*
X385573Y374128D01*
X385573Y376183D02*
X404427Y376183D01*
X404427Y378238D02*
X385573Y378238D01*
X385573Y380293D02*
X404427Y380293D01*
X404427Y355073D02*
X385573Y355073D01*
X385573Y364927D01*
X404427Y364927D01*
X404427Y355073D01*
X404427Y357128D02*
X385573Y357128D01*
X385573Y359183D02*
X404427Y359183D01*
X404427Y361238D02*
X385573Y361238D01*
X385573Y363293D02*
X404427Y363293D01*
X404427Y338073D02*
X385573Y338073D01*
X385573Y347927D01*
X404427Y347927D01*
X404427Y338073D01*
X404427Y340128D02*
X385573Y340128D01*
X385573Y342183D02*
X404427Y342183D01*
X404427Y344238D02*
X385573Y344238D01*
X385573Y346293D02*
X404427Y346293D01*
X425573Y338073D02*
X444427Y338073D01*
X425573Y338073D02*
X425573Y347927D01*
X444427Y347927D01*
X444427Y338073D01*
X444427Y340128D02*
X425573Y340128D01*
X425573Y342183D02*
X444427Y342183D01*
X444427Y344238D02*
X425573Y344238D01*
X425573Y346293D02*
X444427Y346293D01*
X444427Y355073D02*
X425573Y355073D01*
X425573Y364927D01*
X444427Y364927D01*
X444427Y355073D01*
X444427Y357128D02*
X425573Y357128D01*
X425573Y359183D02*
X444427Y359183D01*
X444427Y361238D02*
X425573Y361238D01*
X425573Y363293D02*
X444427Y363293D01*
X444427Y372073D02*
X425573Y372073D01*
X425573Y381927D01*
X444427Y381927D01*
X444427Y372073D01*
X444427Y374128D02*
X425573Y374128D01*
X425573Y376183D02*
X444427Y376183D01*
X444427Y378238D02*
X425573Y378238D01*
X425573Y380293D02*
X444427Y380293D01*
M02*
