G04 EAGLE Gerber RS-274X export*
G75*
%MOMM*%
%FSLAX34Y34*%
%LPD*%
%INBottom Copper*%
%IPPOS*%
%AMOC8*
5,1,8,0,0,1.08239X$1,22.5*%
G01*
%ADD10R,1.879600X1.879600*%
%ADD11C,1.879600*%
%ADD12C,0.406400*%

G36*
X93972Y73861D02*
X93972Y73861D01*
X93974Y73903D01*
X93952Y73970D01*
X93940Y74040D01*
X93918Y74076D01*
X93905Y74117D01*
X93851Y74189D01*
X93825Y74233D01*
X93809Y74246D01*
X93793Y74267D01*
X91412Y76648D01*
X91377Y76673D01*
X91349Y76704D01*
X91286Y76736D01*
X91228Y76777D01*
X91187Y76787D01*
X91149Y76807D01*
X91060Y76820D01*
X91011Y76833D01*
X90990Y76830D01*
X90964Y76834D01*
X51276Y76834D01*
X51234Y76827D01*
X51192Y76829D01*
X51125Y76807D01*
X51055Y76795D01*
X51019Y76773D01*
X50978Y76760D01*
X50906Y76706D01*
X50862Y76680D01*
X50849Y76664D01*
X50828Y76648D01*
X48447Y74267D01*
X48422Y74232D01*
X48391Y74204D01*
X48359Y74141D01*
X48318Y74083D01*
X48308Y74042D01*
X48288Y74004D01*
X48275Y73915D01*
X48263Y73866D01*
X48265Y73845D01*
X48261Y73819D01*
X48261Y34131D01*
X48268Y34089D01*
X48266Y34047D01*
X48288Y33980D01*
X48300Y33910D01*
X48322Y33874D01*
X48335Y33833D01*
X48389Y33761D01*
X48415Y33717D01*
X48431Y33704D01*
X48447Y33683D01*
X50828Y31302D01*
X50863Y31277D01*
X50891Y31246D01*
X50954Y31214D01*
X51012Y31173D01*
X51053Y31163D01*
X51091Y31143D01*
X51181Y31130D01*
X51229Y31118D01*
X51250Y31120D01*
X51276Y31116D01*
X90964Y31116D01*
X91006Y31123D01*
X91048Y31121D01*
X91115Y31143D01*
X91185Y31155D01*
X91221Y31177D01*
X91262Y31190D01*
X91334Y31244D01*
X91378Y31270D01*
X91391Y31286D01*
X91412Y31302D01*
X93793Y33683D01*
X93818Y33718D01*
X93849Y33746D01*
X93881Y33809D01*
X93922Y33867D01*
X93932Y33908D01*
X93952Y33946D01*
X93965Y34036D01*
X93978Y34084D01*
X93975Y34105D01*
X93979Y34131D01*
X93979Y73819D01*
X93972Y73861D01*
G37*
%LPC*%
G36*
X56687Y58578D02*
X56687Y58578D01*
X55667Y58748D01*
X54844Y59241D01*
X54179Y59907D01*
X53672Y60920D01*
X53498Y61965D01*
X53498Y66630D01*
X53672Y67848D01*
X54161Y68663D01*
X54844Y69346D01*
X55667Y69839D01*
X56687Y70010D01*
X62548Y70010D01*
X62548Y58578D01*
X56687Y58578D01*
G37*
%LPD*%
%LPC*%
G36*
X63830Y40322D02*
X63830Y40322D01*
X62810Y40492D01*
X61988Y40985D01*
X61305Y41668D01*
X60816Y42484D01*
X60642Y43701D01*
X60642Y48366D01*
X60816Y49411D01*
X61323Y50424D01*
X61988Y51090D01*
X62810Y51583D01*
X63830Y51753D01*
X69692Y51753D01*
X69692Y40322D01*
X63830Y40322D01*
G37*
%LPD*%
%LPC*%
G36*
X68299Y70010D02*
X68299Y70010D01*
X70526Y64071D01*
X70582Y63977D01*
X70638Y63881D01*
X70640Y63880D01*
X70641Y63878D01*
X70727Y63809D01*
X70812Y63739D01*
X70814Y63739D01*
X70816Y63737D01*
X70921Y63702D01*
X71024Y63667D01*
X71026Y63667D01*
X71028Y63666D01*
X71140Y63670D01*
X71249Y63673D01*
X71250Y63673D01*
X71253Y63674D01*
X71355Y63716D01*
X71457Y63756D01*
X71458Y63758D01*
X71460Y63758D01*
X71540Y63832D01*
X71623Y63907D01*
X71624Y63909D01*
X71625Y63910D01*
X71632Y63924D01*
X71714Y64071D01*
X73941Y70010D01*
X77336Y70010D01*
X77336Y58578D01*
X74929Y58578D01*
X74929Y64294D01*
X74927Y64305D01*
X74929Y64315D01*
X74917Y64371D01*
X74916Y64413D01*
X74902Y64448D01*
X74890Y64515D01*
X74884Y64524D01*
X74882Y64535D01*
X74840Y64601D01*
X74831Y64621D01*
X74818Y64635D01*
X74775Y64708D01*
X74767Y64715D01*
X74761Y64724D01*
X74684Y64782D01*
X74680Y64787D01*
X74676Y64789D01*
X74601Y64849D01*
X74591Y64853D01*
X74582Y64859D01*
X74485Y64889D01*
X74389Y64921D01*
X74378Y64921D01*
X74367Y64924D01*
X74266Y64917D01*
X74164Y64914D01*
X74154Y64910D01*
X74144Y64910D01*
X74050Y64868D01*
X73957Y64830D01*
X73949Y64823D01*
X73939Y64818D01*
X73889Y64770D01*
X73877Y64763D01*
X73860Y64742D01*
X73791Y64679D01*
X73786Y64669D01*
X73778Y64661D01*
X73750Y64607D01*
X73736Y64589D01*
X73725Y64557D01*
X73693Y64494D01*
X72250Y60166D01*
X69990Y60166D01*
X68547Y64494D01*
X68542Y64504D01*
X68540Y64515D01*
X68503Y64576D01*
X68485Y64621D01*
X68466Y64641D01*
X68439Y64691D01*
X68431Y64698D01*
X68425Y64708D01*
X68349Y64770D01*
X68334Y64787D01*
X68324Y64792D01*
X68270Y64838D01*
X68260Y64842D01*
X68251Y64849D01*
X68155Y64882D01*
X68060Y64918D01*
X68049Y64918D01*
X68039Y64921D01*
X67938Y64918D01*
X67836Y64919D01*
X67825Y64915D01*
X67814Y64914D01*
X67721Y64876D01*
X67625Y64841D01*
X67617Y64834D01*
X67607Y64830D01*
X67537Y64767D01*
X67531Y64763D01*
X67526Y64757D01*
X67454Y64696D01*
X67449Y64686D01*
X67441Y64679D01*
X67404Y64606D01*
X67390Y64589D01*
X67382Y64565D01*
X67345Y64500D01*
X67343Y64489D01*
X67338Y64479D01*
X67327Y64405D01*
X67318Y64376D01*
X67319Y64346D01*
X67311Y64294D01*
X67311Y58578D01*
X64904Y58578D01*
X64904Y70010D01*
X68299Y70010D01*
G37*
%LPD*%
%LPC*%
G36*
X75167Y40322D02*
X75167Y40322D01*
X74573Y40470D01*
X73918Y40962D01*
X73262Y41618D01*
X72548Y43759D01*
X72548Y48316D01*
X73262Y50457D01*
X73918Y51113D01*
X74573Y51605D01*
X75167Y51753D01*
X77392Y51753D01*
X77986Y51605D01*
X78641Y51113D01*
X79297Y50457D01*
X80011Y48316D01*
X80011Y43759D01*
X79297Y41618D01*
X78641Y40962D01*
X77986Y40470D01*
X77392Y40322D01*
X75167Y40322D01*
G37*
%LPD*%
%LPC*%
G36*
X82073Y40322D02*
X82073Y40322D01*
X82073Y42728D01*
X88583Y42728D01*
X88623Y42736D01*
X88683Y42736D01*
X89278Y42832D01*
X89340Y42853D01*
X89405Y42865D01*
X89445Y42890D01*
X89490Y42906D01*
X89541Y42948D01*
X89597Y42981D01*
X89626Y43019D01*
X89663Y43049D01*
X89695Y43106D01*
X89736Y43157D01*
X89755Y43209D01*
X89775Y43243D01*
X89781Y43282D01*
X89800Y43333D01*
X89998Y44326D01*
X89998Y44335D01*
X90001Y44341D01*
X90000Y44376D01*
X90011Y44450D01*
X90011Y47625D01*
X90002Y47673D01*
X89998Y47749D01*
X89800Y48742D01*
X89776Y48803D01*
X89761Y48867D01*
X89735Y48906D01*
X89718Y48950D01*
X89674Y48999D01*
X89638Y49054D01*
X89599Y49082D01*
X89568Y49117D01*
X89510Y49148D01*
X89457Y49187D01*
X89404Y49204D01*
X89369Y49222D01*
X89330Y49227D01*
X89278Y49243D01*
X88683Y49339D01*
X88641Y49338D01*
X88583Y49347D01*
X82073Y49347D01*
X82073Y51753D01*
X88728Y51753D01*
X89749Y51583D01*
X90571Y51090D01*
X91236Y50424D01*
X91743Y49411D01*
X91917Y48366D01*
X91917Y43701D01*
X91743Y42484D01*
X91254Y41668D01*
X90571Y40985D01*
X89749Y40492D01*
X88728Y40322D01*
X82073Y40322D01*
G37*
%LPD*%
%LPC*%
G36*
X79692Y58578D02*
X79692Y58578D01*
X79692Y60985D01*
X84908Y60985D01*
X84948Y60992D01*
X85008Y60992D01*
X85603Y61088D01*
X85665Y61110D01*
X85730Y61122D01*
X85770Y61146D01*
X85815Y61162D01*
X85866Y61204D01*
X85922Y61238D01*
X85951Y61275D01*
X85988Y61305D01*
X86020Y61362D01*
X86061Y61413D01*
X86080Y61465D01*
X86100Y61499D01*
X86106Y61538D01*
X86125Y61590D01*
X86323Y62582D01*
X86324Y62598D01*
X86329Y62613D01*
X86328Y62633D01*
X86333Y62653D01*
X86331Y62677D01*
X86336Y62706D01*
X86336Y65881D01*
X86327Y65929D01*
X86323Y66006D01*
X86125Y66998D01*
X86091Y67084D01*
X86063Y67171D01*
X86049Y67190D01*
X86043Y67207D01*
X86009Y67244D01*
X85951Y67322D01*
X85856Y67417D01*
X85821Y67441D01*
X85792Y67473D01*
X85730Y67505D01*
X85672Y67545D01*
X85631Y67556D01*
X85593Y67575D01*
X85503Y67589D01*
X85455Y67601D01*
X85434Y67599D01*
X85408Y67603D01*
X79692Y67603D01*
X79692Y70010D01*
X86052Y70010D01*
X87413Y69329D01*
X88079Y68663D01*
X88568Y67848D01*
X88742Y66630D01*
X88742Y61965D01*
X88568Y60920D01*
X88061Y59907D01*
X87413Y59259D01*
X86052Y58578D01*
X79692Y58578D01*
G37*
%LPD*%
%LPC*%
G36*
X50323Y40322D02*
X50323Y40322D01*
X50323Y42228D01*
X55245Y42228D01*
X55310Y42240D01*
X55376Y42242D01*
X55419Y42260D01*
X55466Y42268D01*
X55523Y42301D01*
X55583Y42326D01*
X55618Y42358D01*
X55659Y42382D01*
X55701Y42433D01*
X55749Y42478D01*
X55771Y42520D01*
X55800Y42556D01*
X55821Y42619D01*
X55852Y42677D01*
X55860Y42732D01*
X55872Y42769D01*
X55871Y42808D01*
X55879Y42863D01*
X55879Y44450D01*
X55868Y44515D01*
X55866Y44581D01*
X55848Y44624D01*
X55840Y44671D01*
X55806Y44728D01*
X55781Y44788D01*
X55750Y44823D01*
X55725Y44864D01*
X55674Y44906D01*
X55630Y44954D01*
X55588Y44976D01*
X55551Y45005D01*
X55489Y45026D01*
X55430Y45057D01*
X55376Y45065D01*
X55339Y45077D01*
X55299Y45076D01*
X55245Y45084D01*
X50323Y45084D01*
X50323Y46991D01*
X55245Y46991D01*
X55310Y47002D01*
X55376Y47004D01*
X55419Y47022D01*
X55466Y47030D01*
X55523Y47064D01*
X55583Y47089D01*
X55618Y47120D01*
X55659Y47145D01*
X55701Y47196D01*
X55749Y47240D01*
X55771Y47282D01*
X55800Y47319D01*
X55821Y47381D01*
X55852Y47440D01*
X55860Y47494D01*
X55872Y47531D01*
X55871Y47571D01*
X55879Y47625D01*
X55879Y49213D01*
X55868Y49277D01*
X55866Y49343D01*
X55848Y49387D01*
X55840Y49433D01*
X55806Y49490D01*
X55781Y49551D01*
X55750Y49586D01*
X55725Y49627D01*
X55674Y49668D01*
X55630Y49717D01*
X55588Y49738D01*
X55551Y49768D01*
X55489Y49789D01*
X55430Y49819D01*
X55376Y49827D01*
X55339Y49840D01*
X55299Y49839D01*
X55245Y49847D01*
X50323Y49847D01*
X50323Y51753D01*
X57786Y51753D01*
X57786Y40322D01*
X50323Y40322D01*
G37*
%LPD*%
G36*
X66716Y42240D02*
X66716Y42240D01*
X66782Y42242D01*
X66826Y42260D01*
X66872Y42268D01*
X66929Y42301D01*
X66990Y42326D01*
X67025Y42358D01*
X67065Y42382D01*
X67107Y42433D01*
X67155Y42478D01*
X67177Y42520D01*
X67207Y42556D01*
X67228Y42619D01*
X67258Y42677D01*
X67266Y42732D01*
X67279Y42769D01*
X67277Y42808D01*
X67286Y42863D01*
X67286Y49213D01*
X67274Y49277D01*
X67272Y49343D01*
X67254Y49387D01*
X67246Y49433D01*
X67212Y49490D01*
X67188Y49551D01*
X67156Y49586D01*
X67132Y49627D01*
X67081Y49668D01*
X67036Y49717D01*
X66994Y49738D01*
X66958Y49768D01*
X66895Y49789D01*
X66837Y49819D01*
X66782Y49827D01*
X66745Y49840D01*
X66706Y49839D01*
X66651Y49847D01*
X63976Y49847D01*
X63934Y49839D01*
X63892Y49841D01*
X63825Y49820D01*
X63755Y49807D01*
X63719Y49786D01*
X63678Y49773D01*
X63606Y49719D01*
X63562Y49693D01*
X63557Y49687D01*
X63555Y49685D01*
X63545Y49674D01*
X63528Y49661D01*
X62932Y49066D01*
X62880Y48990D01*
X62823Y48918D01*
X62815Y48896D01*
X62804Y48881D01*
X62792Y48833D01*
X62759Y48742D01*
X62561Y47749D01*
X62560Y47701D01*
X62548Y47625D01*
X62548Y44450D01*
X62557Y44402D01*
X62561Y44326D01*
X62759Y43333D01*
X62793Y43248D01*
X62821Y43160D01*
X62835Y43142D01*
X62841Y43125D01*
X62875Y43087D01*
X62932Y43009D01*
X63528Y42414D01*
X63563Y42390D01*
X63591Y42358D01*
X63654Y42326D01*
X63712Y42286D01*
X63753Y42275D01*
X63791Y42256D01*
X63881Y42243D01*
X63929Y42230D01*
X63950Y42232D01*
X63976Y42228D01*
X66651Y42228D01*
X66716Y42240D01*
G37*
G36*
X59572Y60496D02*
X59572Y60496D01*
X59638Y60498D01*
X59682Y60516D01*
X59728Y60524D01*
X59785Y60558D01*
X59846Y60582D01*
X59881Y60614D01*
X59922Y60638D01*
X59963Y60689D01*
X60012Y60734D01*
X60033Y60776D01*
X60063Y60813D01*
X60084Y60875D01*
X60114Y60933D01*
X60122Y60988D01*
X60135Y61025D01*
X60134Y61064D01*
X60142Y61119D01*
X60142Y67469D01*
X60130Y67534D01*
X60128Y67599D01*
X60110Y67643D01*
X60102Y67690D01*
X60069Y67746D01*
X60044Y67807D01*
X60012Y67842D01*
X59988Y67883D01*
X59937Y67924D01*
X59892Y67973D01*
X59850Y67994D01*
X59814Y68024D01*
X59752Y68045D01*
X59693Y68075D01*
X59638Y68083D01*
X59601Y68096D01*
X59562Y68095D01*
X59508Y68103D01*
X57333Y68103D01*
X57291Y68096D01*
X57248Y68097D01*
X57181Y68076D01*
X57112Y68063D01*
X57075Y68042D01*
X57035Y68029D01*
X56962Y67975D01*
X56918Y67949D01*
X56914Y67943D01*
X56911Y67942D01*
X56902Y67930D01*
X56884Y67917D01*
X56289Y67322D01*
X56264Y67286D01*
X56219Y67239D01*
X55520Y66246D01*
X55478Y66156D01*
X55432Y66067D01*
X55430Y66053D01*
X55425Y66043D01*
X55422Y65997D01*
X55405Y65881D01*
X55405Y62706D01*
X55413Y62659D01*
X55417Y62582D01*
X55615Y61590D01*
X55649Y61504D01*
X55677Y61416D01*
X55691Y61398D01*
X55697Y61381D01*
X55731Y61343D01*
X55789Y61266D01*
X56384Y60670D01*
X56419Y60646D01*
X56448Y60615D01*
X56510Y60582D01*
X56568Y60542D01*
X56609Y60532D01*
X56647Y60512D01*
X56737Y60499D01*
X56786Y60486D01*
X56806Y60488D01*
X56833Y60485D01*
X59508Y60485D01*
X59572Y60496D01*
G37*
G36*
X76708Y42234D02*
X76708Y42234D01*
X76739Y42231D01*
X76817Y42254D01*
X76897Y42268D01*
X76924Y42284D01*
X76955Y42293D01*
X77020Y42341D01*
X77090Y42382D01*
X77110Y42407D01*
X77136Y42425D01*
X77202Y42520D01*
X77232Y42556D01*
X77235Y42567D01*
X77244Y42579D01*
X78037Y44166D01*
X78052Y44217D01*
X78077Y44265D01*
X78087Y44337D01*
X78101Y44382D01*
X78098Y44411D01*
X78104Y44450D01*
X78104Y47625D01*
X78095Y47677D01*
X78095Y47730D01*
X78073Y47800D01*
X78065Y47846D01*
X78049Y47872D01*
X78037Y47909D01*
X77244Y49496D01*
X77226Y49520D01*
X77216Y49543D01*
X77215Y49545D01*
X77213Y49551D01*
X77158Y49611D01*
X77109Y49676D01*
X77083Y49693D01*
X77061Y49717D01*
X76989Y49754D01*
X76921Y49798D01*
X76890Y49805D01*
X76862Y49819D01*
X76748Y49836D01*
X76702Y49846D01*
X76690Y49845D01*
X76676Y49847D01*
X75883Y49847D01*
X75875Y49845D01*
X75867Y49847D01*
X75765Y49826D01*
X75662Y49807D01*
X75655Y49803D01*
X75647Y49802D01*
X75559Y49746D01*
X75468Y49693D01*
X75464Y49687D01*
X75457Y49683D01*
X75393Y49600D01*
X75327Y49519D01*
X75325Y49511D01*
X75320Y49505D01*
X75259Y49328D01*
X74965Y47740D01*
X74965Y47694D01*
X74955Y47625D01*
X74955Y44450D01*
X74963Y44405D01*
X74965Y44335D01*
X75259Y42747D01*
X75262Y42740D01*
X75262Y42732D01*
X75301Y42636D01*
X75338Y42537D01*
X75343Y42531D01*
X75346Y42524D01*
X75417Y42447D01*
X75485Y42368D01*
X75492Y42364D01*
X75498Y42358D01*
X75591Y42311D01*
X75682Y42261D01*
X75690Y42260D01*
X75697Y42256D01*
X75883Y42228D01*
X76676Y42228D01*
X76708Y42234D01*
G37*
D10*
X13970Y13970D03*
D11*
X13970Y39370D03*
X13970Y64770D03*
X13970Y90170D03*
X125730Y82550D03*
X125730Y57150D03*
D12*
X71120Y76994D02*
X71120Y84138D01*
X85408Y84138D02*
X85408Y76994D01*
X78264Y76994D02*
X78264Y84138D01*
X63976Y84138D02*
X63976Y76994D01*
X56833Y76994D02*
X56833Y84138D01*
X71120Y30956D02*
X71120Y23813D01*
X85408Y23813D02*
X85408Y30956D01*
X78264Y30956D02*
X78264Y23813D01*
X63976Y23813D02*
X63976Y30956D01*
X56833Y30956D02*
X56833Y23813D01*
X94139Y53975D02*
X101283Y53975D01*
X101283Y39688D02*
X94139Y39688D01*
X94139Y46831D02*
X101283Y46831D01*
X101283Y61119D02*
X94139Y61119D01*
X94139Y68263D02*
X101283Y68263D01*
X48101Y53975D02*
X40958Y53975D01*
X40958Y39688D02*
X48101Y39688D01*
X48101Y46831D02*
X40958Y46831D01*
X40958Y61119D02*
X48101Y61119D01*
X48101Y68263D02*
X40958Y68263D01*
M02*
