G04 EAGLE Gerber RS-274X export*
G75*
%MOMM*%
%FSLAX34Y34*%
%LPD*%
%INTop Copper*%
%IPPOS*%
%AMOC8*
5,1,8,0,0,1.08239X$1,22.5*%
G01*
%ADD10C,0.130000*%
%ADD11R,1.879600X1.879600*%
%ADD12C,1.879600*%
%ADD13C,0.110000*%
%ADD14C,0.508000*%
%ADD15C,0.812800*%


D10*
X79080Y30210D02*
X90780Y30210D01*
X90780Y15510D01*
X79080Y15510D01*
X79080Y30210D01*
X79080Y16745D02*
X90780Y16745D01*
X90780Y17980D02*
X79080Y17980D01*
X79080Y19215D02*
X90780Y19215D01*
X90780Y20450D02*
X79080Y20450D01*
X79080Y21685D02*
X90780Y21685D01*
X90780Y22920D02*
X79080Y22920D01*
X79080Y24155D02*
X90780Y24155D01*
X90780Y25390D02*
X79080Y25390D01*
X79080Y26625D02*
X90780Y26625D01*
X90780Y27860D02*
X79080Y27860D01*
X79080Y29095D02*
X90780Y29095D01*
X70780Y30210D02*
X59080Y30210D01*
X70780Y30210D02*
X70780Y15510D01*
X59080Y15510D01*
X59080Y30210D01*
X59080Y16745D02*
X70780Y16745D01*
X70780Y17980D02*
X59080Y17980D01*
X59080Y19215D02*
X70780Y19215D01*
X70780Y20450D02*
X59080Y20450D01*
X59080Y21685D02*
X70780Y21685D01*
X70780Y22920D02*
X59080Y22920D01*
X59080Y24155D02*
X70780Y24155D01*
X70780Y25390D02*
X59080Y25390D01*
X59080Y26625D02*
X70780Y26625D01*
X70780Y27860D02*
X59080Y27860D01*
X59080Y29095D02*
X70780Y29095D01*
D11*
X13970Y13970D03*
D12*
X13970Y39370D03*
X13970Y64770D03*
X13970Y90170D03*
X116840Y82550D03*
X116840Y57150D03*
D13*
X94220Y47640D02*
X75320Y47640D01*
X94220Y47640D02*
X94220Y37740D01*
X75320Y37740D01*
X75320Y47640D01*
X75320Y38785D02*
X94220Y38785D01*
X94220Y39830D02*
X75320Y39830D01*
X75320Y40875D02*
X94220Y40875D01*
X94220Y41920D02*
X75320Y41920D01*
X75320Y42965D02*
X94220Y42965D01*
X94220Y44010D02*
X75320Y44010D01*
X75320Y45055D02*
X94220Y45055D01*
X94220Y46100D02*
X75320Y46100D01*
X75320Y47145D02*
X94220Y47145D01*
X94220Y64640D02*
X75320Y64640D01*
X94220Y64640D02*
X94220Y54740D01*
X75320Y54740D01*
X75320Y64640D01*
X75320Y55785D02*
X94220Y55785D01*
X94220Y56830D02*
X75320Y56830D01*
X75320Y57875D02*
X94220Y57875D01*
X94220Y58920D02*
X75320Y58920D01*
X75320Y59965D02*
X94220Y59965D01*
X94220Y61010D02*
X75320Y61010D01*
X75320Y62055D02*
X94220Y62055D01*
X94220Y63100D02*
X75320Y63100D01*
X75320Y64145D02*
X94220Y64145D01*
X94220Y81640D02*
X75320Y81640D01*
X94220Y81640D02*
X94220Y71740D01*
X75320Y71740D01*
X75320Y81640D01*
X75320Y72785D02*
X94220Y72785D01*
X94220Y73830D02*
X75320Y73830D01*
X75320Y74875D02*
X94220Y74875D01*
X94220Y75920D02*
X75320Y75920D01*
X75320Y76965D02*
X94220Y76965D01*
X94220Y78010D02*
X75320Y78010D01*
X75320Y79055D02*
X94220Y79055D01*
X94220Y80100D02*
X75320Y80100D01*
X75320Y81145D02*
X94220Y81145D01*
X54220Y81640D02*
X35320Y81640D01*
X54220Y81640D02*
X54220Y71740D01*
X35320Y71740D01*
X35320Y81640D01*
X35320Y72785D02*
X54220Y72785D01*
X54220Y73830D02*
X35320Y73830D01*
X35320Y74875D02*
X54220Y74875D01*
X54220Y75920D02*
X35320Y75920D01*
X35320Y76965D02*
X54220Y76965D01*
X54220Y78010D02*
X35320Y78010D01*
X35320Y79055D02*
X54220Y79055D01*
X54220Y80100D02*
X35320Y80100D01*
X35320Y81145D02*
X54220Y81145D01*
X54220Y64640D02*
X35320Y64640D01*
X54220Y64640D02*
X54220Y54740D01*
X35320Y54740D01*
X35320Y64640D01*
X35320Y55785D02*
X54220Y55785D01*
X54220Y56830D02*
X35320Y56830D01*
X35320Y57875D02*
X54220Y57875D01*
X54220Y58920D02*
X35320Y58920D01*
X35320Y59965D02*
X54220Y59965D01*
X54220Y61010D02*
X35320Y61010D01*
X35320Y62055D02*
X54220Y62055D01*
X54220Y63100D02*
X35320Y63100D01*
X35320Y64145D02*
X54220Y64145D01*
X54220Y47640D02*
X35320Y47640D01*
X54220Y47640D02*
X54220Y37740D01*
X35320Y37740D01*
X35320Y47640D01*
X35320Y38785D02*
X54220Y38785D01*
X54220Y39830D02*
X35320Y39830D01*
X35320Y40875D02*
X54220Y40875D01*
X54220Y41920D02*
X35320Y41920D01*
X35320Y42965D02*
X54220Y42965D01*
X54220Y44010D02*
X35320Y44010D01*
X35320Y45055D02*
X54220Y45055D01*
X54220Y46100D02*
X35320Y46100D01*
X35320Y47145D02*
X54220Y47145D01*
D14*
X84770Y42690D02*
X84930Y42530D01*
D15*
X29210Y13970D02*
X13970Y13970D01*
X84930Y11270D02*
X84930Y22860D01*
X36830Y6350D02*
X29210Y13970D01*
X36830Y6350D02*
X80010Y6350D01*
X84930Y11270D01*
X84930Y22860D02*
X84930Y42530D01*
X44770Y42690D02*
X44770Y26350D01*
X48260Y22860D01*
X64930Y22860D01*
X41450Y39370D02*
X13970Y39370D01*
X41450Y39370D02*
X44770Y42690D01*
X84770Y76690D02*
X90630Y82550D01*
X116840Y82550D01*
X114300Y59690D02*
X84770Y59690D01*
X114300Y59690D02*
X116840Y57150D01*
X44770Y76690D02*
X31290Y90170D01*
X13970Y90170D01*
X13970Y64770D02*
X16510Y64770D01*
X21590Y59690D01*
X44770Y59690D01*
M02*
