G04 EAGLE Gerber RS-274X export*
G75*
%MOMM*%
%FSLAX34Y34*%
%LPD*%
%INTop Copper*%
%IPPOS*%
%AMOC8*
5,1,8,0,0,1.08239X$1,22.5*%
G01*
%ADD10R,1.300000X1.600000*%
%ADD11R,1.879600X1.879600*%
%ADD12C,1.879600*%
%ADD13R,2.000000X1.100000*%
%ADD14C,0.812800*%
%ADD15C,0.609600*%
%ADD16C,0.406400*%


D10*
G36*
X52581Y27312D02*
X61774Y18119D01*
X50461Y6806D01*
X41268Y15999D01*
X52581Y27312D01*
G37*
G36*
X38439Y41454D02*
X47632Y32261D01*
X36319Y20948D01*
X27126Y30141D01*
X38439Y41454D01*
G37*
D11*
X13970Y13970D03*
D12*
X13970Y39370D03*
X13970Y64770D03*
X13970Y90170D03*
D13*
G36*
X69020Y44797D02*
X83161Y30656D01*
X75382Y22877D01*
X61241Y37018D01*
X69020Y44797D01*
G37*
G36*
X81041Y56818D02*
X95182Y42677D01*
X87403Y34898D01*
X73262Y49039D01*
X81041Y56818D01*
G37*
G36*
X93062Y68839D02*
X107203Y54698D01*
X99424Y46919D01*
X85283Y61060D01*
X93062Y68839D01*
G37*
G36*
X64778Y97123D02*
X78919Y82982D01*
X71140Y75203D01*
X56999Y89344D01*
X64778Y97123D01*
G37*
G36*
X52757Y85102D02*
X66898Y70961D01*
X59119Y63182D01*
X44978Y77323D01*
X52757Y85102D01*
G37*
G36*
X40736Y73081D02*
X54877Y58940D01*
X47098Y51161D01*
X32957Y65302D01*
X40736Y73081D01*
G37*
D11*
X125000Y90170D03*
D12*
X125000Y64770D03*
X125000Y39370D03*
X125000Y13970D03*
D14*
X72201Y33837D02*
X70839Y33837D01*
D15*
X48432Y13970D02*
X13970Y13970D01*
X48432Y13970D02*
X51521Y17059D01*
X54061Y17059D01*
X70839Y33837D01*
X56601Y17059D02*
X51521Y17059D01*
X56601Y17059D02*
X59690Y13970D01*
X125000Y13970D01*
X29210Y39370D02*
X13970Y39370D01*
X29210Y39370D02*
X37379Y31201D01*
X37379Y55583D01*
X43917Y62121D01*
X13970Y90170D02*
X20320Y96520D01*
X57602Y96520D02*
X67959Y86163D01*
X57602Y96520D02*
X20320Y96520D01*
X21590Y72390D02*
X13970Y64770D01*
X26670Y72390D02*
X36830Y82550D01*
X47530Y82550D01*
X55938Y74142D01*
X26670Y72390D02*
X21590Y72390D01*
D16*
X96243Y75923D02*
X96243Y57879D01*
X96243Y75923D02*
X110490Y90170D01*
X125000Y90170D01*
X84222Y45858D02*
X91980Y38100D01*
X113223Y52203D02*
X113223Y52263D01*
X125000Y64770D01*
X113223Y52203D02*
X99120Y38100D01*
X91980Y38100D01*
M02*
