G04 EAGLE Gerber RS-274X export*
G75*
%MOMM*%
%FSLAX34Y34*%
%LPD*%
%INBottom Copper*%
%IPPOS*%
%AMOC8*
5,1,8,0,0,1.08239X$1,22.5*%
G01*
%ADD10R,1.879600X1.879600*%
%ADD11C,1.879600*%
%ADD12C,0.406400*%

G36*
X116508Y3822D02*
X116508Y3822D01*
X116580Y3824D01*
X116629Y3842D01*
X116680Y3850D01*
X116744Y3884D01*
X116811Y3909D01*
X116852Y3941D01*
X116898Y3966D01*
X116947Y4018D01*
X117003Y4062D01*
X117031Y4106D01*
X117067Y4144D01*
X117097Y4209D01*
X117136Y4269D01*
X117149Y4320D01*
X117171Y4367D01*
X117179Y4438D01*
X117196Y4508D01*
X117192Y4560D01*
X117198Y4611D01*
X117183Y4682D01*
X117177Y4753D01*
X117157Y4801D01*
X117146Y4852D01*
X117109Y4913D01*
X117081Y4979D01*
X117036Y5035D01*
X117019Y5063D01*
X117002Y5078D01*
X116976Y5110D01*
X114879Y7207D01*
X113061Y11595D01*
X113061Y16345D01*
X114879Y20733D01*
X118237Y24091D01*
X122625Y25909D01*
X127375Y25909D01*
X131763Y24091D01*
X133810Y22044D01*
X133868Y22002D01*
X133920Y21953D01*
X133967Y21931D01*
X134009Y21901D01*
X134078Y21880D01*
X134143Y21849D01*
X134195Y21844D01*
X134245Y21828D01*
X134316Y21830D01*
X134387Y21822D01*
X134438Y21833D01*
X134490Y21835D01*
X134558Y21859D01*
X134628Y21874D01*
X134673Y21901D01*
X134721Y21919D01*
X134777Y21964D01*
X134839Y22001D01*
X134873Y22040D01*
X134913Y22073D01*
X134952Y22133D01*
X134999Y22188D01*
X135018Y22236D01*
X135046Y22280D01*
X135064Y22349D01*
X135091Y22416D01*
X135099Y22487D01*
X135107Y22518D01*
X135105Y22542D01*
X135109Y22582D01*
X135109Y30758D01*
X135098Y30828D01*
X135096Y30900D01*
X135078Y30949D01*
X135070Y31000D01*
X135036Y31064D01*
X135011Y31131D01*
X134979Y31172D01*
X134954Y31218D01*
X134902Y31267D01*
X134858Y31323D01*
X134814Y31351D01*
X134776Y31387D01*
X134711Y31417D01*
X134651Y31456D01*
X134600Y31469D01*
X134553Y31491D01*
X134482Y31499D01*
X134412Y31516D01*
X134360Y31512D01*
X134309Y31518D01*
X134238Y31503D01*
X134167Y31497D01*
X134119Y31477D01*
X134068Y31466D01*
X134007Y31429D01*
X133941Y31401D01*
X133885Y31356D01*
X133857Y31339D01*
X133842Y31322D01*
X133810Y31296D01*
X132778Y30264D01*
X131257Y29159D01*
X129583Y28306D01*
X127796Y27725D01*
X126523Y27524D01*
X126523Y38608D01*
X126520Y38628D01*
X126522Y38647D01*
X126500Y38749D01*
X126483Y38851D01*
X126474Y38868D01*
X126470Y38888D01*
X126417Y38977D01*
X126368Y39068D01*
X126354Y39082D01*
X126344Y39099D01*
X126265Y39166D01*
X126190Y39237D01*
X126172Y39246D01*
X126157Y39259D01*
X126061Y39297D01*
X125967Y39341D01*
X125947Y39343D01*
X125929Y39351D01*
X125762Y39369D01*
X124999Y39369D01*
X124999Y39371D01*
X125762Y39371D01*
X125782Y39374D01*
X125801Y39372D01*
X125903Y39394D01*
X126005Y39411D01*
X126022Y39420D01*
X126042Y39424D01*
X126131Y39477D01*
X126222Y39526D01*
X126236Y39540D01*
X126253Y39550D01*
X126320Y39629D01*
X126391Y39704D01*
X126400Y39722D01*
X126413Y39737D01*
X126452Y39833D01*
X126495Y39927D01*
X126497Y39947D01*
X126505Y39965D01*
X126523Y40132D01*
X126523Y51216D01*
X127796Y51015D01*
X129583Y50434D01*
X131257Y49581D01*
X132778Y48476D01*
X133810Y47444D01*
X133868Y47402D01*
X133920Y47353D01*
X133967Y47331D01*
X134009Y47301D01*
X134078Y47280D01*
X134143Y47249D01*
X134195Y47244D01*
X134245Y47228D01*
X134316Y47230D01*
X134387Y47222D01*
X134438Y47233D01*
X134490Y47235D01*
X134558Y47259D01*
X134628Y47274D01*
X134673Y47301D01*
X134721Y47319D01*
X134777Y47364D01*
X134839Y47401D01*
X134873Y47440D01*
X134913Y47473D01*
X134952Y47533D01*
X134999Y47588D01*
X135018Y47636D01*
X135046Y47680D01*
X135064Y47749D01*
X135091Y47816D01*
X135099Y47887D01*
X135107Y47918D01*
X135105Y47942D01*
X135109Y47982D01*
X135109Y56158D01*
X135098Y56228D01*
X135096Y56300D01*
X135078Y56349D01*
X135070Y56400D01*
X135036Y56464D01*
X135011Y56531D01*
X134979Y56572D01*
X134954Y56618D01*
X134902Y56667D01*
X134858Y56723D01*
X134814Y56751D01*
X134776Y56787D01*
X134711Y56817D01*
X134651Y56856D01*
X134600Y56869D01*
X134553Y56891D01*
X134482Y56899D01*
X134412Y56916D01*
X134360Y56912D01*
X134309Y56918D01*
X134238Y56903D01*
X134167Y56897D01*
X134119Y56877D01*
X134068Y56866D01*
X134007Y56829D01*
X133941Y56801D01*
X133885Y56756D01*
X133857Y56739D01*
X133842Y56722D01*
X133810Y56696D01*
X131763Y54649D01*
X127375Y52831D01*
X122625Y52831D01*
X118237Y54649D01*
X114879Y58007D01*
X113061Y62395D01*
X113061Y67145D01*
X114879Y71533D01*
X118237Y74891D01*
X122625Y76709D01*
X127375Y76709D01*
X131763Y74891D01*
X133810Y72844D01*
X133868Y72802D01*
X133920Y72753D01*
X133967Y72731D01*
X134009Y72701D01*
X134078Y72680D01*
X134143Y72649D01*
X134195Y72644D01*
X134245Y72628D01*
X134316Y72630D01*
X134387Y72622D01*
X134438Y72633D01*
X134490Y72635D01*
X134558Y72659D01*
X134628Y72674D01*
X134673Y72701D01*
X134721Y72719D01*
X134777Y72764D01*
X134839Y72801D01*
X134873Y72840D01*
X134913Y72873D01*
X134952Y72933D01*
X134999Y72988D01*
X135018Y73036D01*
X135046Y73080D01*
X135064Y73149D01*
X135091Y73216D01*
X135099Y73287D01*
X135107Y73318D01*
X135105Y73342D01*
X135109Y73382D01*
X135109Y77470D01*
X135106Y77490D01*
X135108Y77509D01*
X135086Y77611D01*
X135070Y77713D01*
X135060Y77730D01*
X135056Y77750D01*
X135003Y77839D01*
X134954Y77930D01*
X134940Y77944D01*
X134930Y77961D01*
X134851Y78028D01*
X134776Y78100D01*
X134758Y78108D01*
X134743Y78121D01*
X134647Y78160D01*
X134553Y78203D01*
X134533Y78205D01*
X134515Y78213D01*
X134348Y78231D01*
X114550Y78231D01*
X113061Y79720D01*
X113061Y100188D01*
X113058Y100208D01*
X113060Y100227D01*
X113038Y100329D01*
X113022Y100431D01*
X113012Y100448D01*
X113008Y100468D01*
X112955Y100557D01*
X112906Y100648D01*
X112892Y100662D01*
X112882Y100679D01*
X112803Y100746D01*
X112728Y100818D01*
X112710Y100826D01*
X112695Y100839D01*
X112599Y100878D01*
X112505Y100921D01*
X112485Y100923D01*
X112467Y100931D01*
X112300Y100949D01*
X21912Y100949D01*
X21842Y100938D01*
X21770Y100936D01*
X21721Y100918D01*
X21670Y100910D01*
X21606Y100876D01*
X21539Y100851D01*
X21498Y100819D01*
X21452Y100794D01*
X21403Y100742D01*
X21347Y100698D01*
X21319Y100654D01*
X21283Y100616D01*
X21253Y100551D01*
X21214Y100491D01*
X21201Y100440D01*
X21179Y100393D01*
X21171Y100322D01*
X21154Y100252D01*
X21158Y100200D01*
X21152Y100149D01*
X21167Y100078D01*
X21173Y100007D01*
X21193Y99959D01*
X21204Y99908D01*
X21241Y99847D01*
X21269Y99781D01*
X21314Y99725D01*
X21331Y99697D01*
X21348Y99682D01*
X21374Y99650D01*
X24091Y96933D01*
X25909Y92545D01*
X25909Y87795D01*
X24091Y83407D01*
X20733Y80049D01*
X16345Y78231D01*
X11595Y78231D01*
X7207Y80049D01*
X5110Y82146D01*
X5052Y82188D01*
X5000Y82237D01*
X4953Y82259D01*
X4911Y82289D01*
X4842Y82310D01*
X4777Y82341D01*
X4725Y82346D01*
X4675Y82362D01*
X4604Y82360D01*
X4533Y82368D01*
X4482Y82357D01*
X4430Y82355D01*
X4362Y82331D01*
X4292Y82316D01*
X4247Y82289D01*
X4199Y82271D01*
X4143Y82226D01*
X4081Y82189D01*
X4047Y82150D01*
X4007Y82117D01*
X3968Y82057D01*
X3921Y82002D01*
X3902Y81954D01*
X3874Y81910D01*
X3856Y81841D01*
X3829Y81774D01*
X3821Y81703D01*
X3813Y81672D01*
X3815Y81648D01*
X3811Y81608D01*
X3811Y73332D01*
X3822Y73262D01*
X3824Y73190D01*
X3842Y73141D01*
X3850Y73090D01*
X3884Y73026D01*
X3909Y72959D01*
X3941Y72918D01*
X3966Y72872D01*
X4018Y72823D01*
X4062Y72767D01*
X4106Y72739D01*
X4144Y72703D01*
X4209Y72673D01*
X4269Y72634D01*
X4320Y72621D01*
X4367Y72599D01*
X4438Y72591D01*
X4508Y72574D01*
X4560Y72578D01*
X4611Y72572D01*
X4682Y72587D01*
X4753Y72593D01*
X4801Y72613D01*
X4852Y72624D01*
X4913Y72661D01*
X4979Y72689D01*
X5035Y72734D01*
X5063Y72751D01*
X5078Y72768D01*
X5110Y72794D01*
X7207Y74891D01*
X11595Y76709D01*
X16345Y76709D01*
X20733Y74891D01*
X24091Y71533D01*
X25909Y67145D01*
X25909Y62395D01*
X24091Y58007D01*
X20733Y54649D01*
X16345Y52831D01*
X11595Y52831D01*
X7207Y54649D01*
X5110Y56746D01*
X5052Y56788D01*
X5000Y56837D01*
X4953Y56859D01*
X4911Y56889D01*
X4842Y56910D01*
X4777Y56941D01*
X4725Y56946D01*
X4675Y56962D01*
X4604Y56960D01*
X4533Y56968D01*
X4482Y56957D01*
X4430Y56955D01*
X4362Y56931D01*
X4292Y56916D01*
X4247Y56889D01*
X4199Y56871D01*
X4143Y56826D01*
X4081Y56789D01*
X4047Y56750D01*
X4007Y56717D01*
X3968Y56657D01*
X3921Y56602D01*
X3902Y56554D01*
X3874Y56510D01*
X3856Y56441D01*
X3829Y56374D01*
X3821Y56303D01*
X3813Y56272D01*
X3815Y56248D01*
X3811Y56208D01*
X3811Y47932D01*
X3812Y47925D01*
X3812Y47924D01*
X3813Y47916D01*
X3822Y47862D01*
X3824Y47790D01*
X3842Y47741D01*
X3850Y47690D01*
X3884Y47626D01*
X3909Y47559D01*
X3941Y47518D01*
X3966Y47472D01*
X4018Y47423D01*
X4062Y47367D01*
X4106Y47339D01*
X4144Y47303D01*
X4209Y47273D01*
X4269Y47234D01*
X4320Y47221D01*
X4367Y47199D01*
X4438Y47191D01*
X4508Y47174D01*
X4560Y47178D01*
X4611Y47172D01*
X4682Y47187D01*
X4753Y47193D01*
X4801Y47213D01*
X4852Y47224D01*
X4913Y47261D01*
X4979Y47289D01*
X5035Y47334D01*
X5063Y47351D01*
X5078Y47368D01*
X5110Y47394D01*
X6192Y48476D01*
X7713Y49581D01*
X9387Y50434D01*
X11174Y51015D01*
X12447Y51216D01*
X12447Y40132D01*
X12450Y40112D01*
X12448Y40093D01*
X12470Y39991D01*
X12487Y39889D01*
X12496Y39872D01*
X12500Y39852D01*
X12553Y39763D01*
X12602Y39672D01*
X12616Y39658D01*
X12626Y39641D01*
X12705Y39574D01*
X12780Y39503D01*
X12798Y39494D01*
X12813Y39481D01*
X12909Y39443D01*
X13003Y39399D01*
X13023Y39397D01*
X13041Y39389D01*
X13208Y39371D01*
X13971Y39371D01*
X13971Y39369D01*
X13208Y39369D01*
X13188Y39366D01*
X13169Y39368D01*
X13067Y39346D01*
X12965Y39329D01*
X12948Y39320D01*
X12928Y39316D01*
X12839Y39263D01*
X12748Y39214D01*
X12734Y39200D01*
X12717Y39190D01*
X12650Y39111D01*
X12579Y39036D01*
X12570Y39018D01*
X12557Y39003D01*
X12518Y38907D01*
X12475Y38813D01*
X12473Y38793D01*
X12465Y38775D01*
X12447Y38608D01*
X12447Y27524D01*
X11174Y27725D01*
X9387Y28306D01*
X7713Y29159D01*
X6192Y30264D01*
X5110Y31346D01*
X5052Y31388D01*
X5000Y31437D01*
X4953Y31459D01*
X4911Y31489D01*
X4842Y31510D01*
X4777Y31541D01*
X4725Y31546D01*
X4675Y31562D01*
X4604Y31560D01*
X4533Y31568D01*
X4482Y31557D01*
X4430Y31555D01*
X4362Y31531D01*
X4292Y31516D01*
X4247Y31489D01*
X4199Y31471D01*
X4143Y31426D01*
X4081Y31389D01*
X4047Y31350D01*
X4007Y31317D01*
X3968Y31257D01*
X3921Y31202D01*
X3902Y31154D01*
X3874Y31110D01*
X3856Y31041D01*
X3829Y30974D01*
X3821Y30903D01*
X3813Y30872D01*
X3815Y30848D01*
X3811Y30808D01*
X3811Y26670D01*
X3814Y26650D01*
X3812Y26631D01*
X3834Y26529D01*
X3850Y26427D01*
X3860Y26410D01*
X3864Y26390D01*
X3917Y26301D01*
X3966Y26210D01*
X3980Y26196D01*
X3990Y26179D01*
X4069Y26112D01*
X4144Y26040D01*
X4162Y26032D01*
X4177Y26019D01*
X4273Y25980D01*
X4367Y25937D01*
X4387Y25935D01*
X4405Y25927D01*
X4572Y25909D01*
X24420Y25909D01*
X25909Y24420D01*
X25909Y4572D01*
X25912Y4552D01*
X25910Y4533D01*
X25932Y4431D01*
X25948Y4329D01*
X25958Y4312D01*
X25962Y4292D01*
X26015Y4203D01*
X26064Y4112D01*
X26078Y4098D01*
X26088Y4081D01*
X26167Y4014D01*
X26242Y3942D01*
X26260Y3934D01*
X26275Y3921D01*
X26371Y3882D01*
X26465Y3839D01*
X26485Y3837D01*
X26503Y3829D01*
X26670Y3811D01*
X116438Y3811D01*
X116508Y3822D01*
G37*
%LPC*%
G36*
X54938Y19240D02*
X54938Y19240D01*
X52260Y21918D01*
X52260Y27813D01*
X52257Y27833D01*
X52259Y27852D01*
X52237Y27954D01*
X52220Y28056D01*
X52211Y28073D01*
X52206Y28093D01*
X52153Y28182D01*
X52105Y28273D01*
X52091Y28287D01*
X52080Y28304D01*
X52002Y28371D01*
X51927Y28443D01*
X51909Y28451D01*
X51893Y28464D01*
X51797Y28503D01*
X51704Y28546D01*
X51684Y28548D01*
X51665Y28556D01*
X51499Y28574D01*
X49961Y28574D01*
X45719Y32816D01*
X45719Y34354D01*
X45716Y34373D01*
X45718Y34393D01*
X45696Y34494D01*
X45680Y34596D01*
X45670Y34614D01*
X45666Y34633D01*
X45613Y34722D01*
X45564Y34814D01*
X45550Y34827D01*
X45540Y34844D01*
X45461Y34912D01*
X45386Y34983D01*
X45368Y34991D01*
X45353Y35004D01*
X45257Y35043D01*
X45163Y35087D01*
X45143Y35089D01*
X45125Y35096D01*
X44958Y35115D01*
X39063Y35115D01*
X36385Y37793D01*
X36385Y41582D01*
X37524Y42721D01*
X37536Y42737D01*
X37551Y42750D01*
X37608Y42837D01*
X37668Y42921D01*
X37674Y42940D01*
X37684Y42957D01*
X37710Y43057D01*
X37740Y43156D01*
X37740Y43176D01*
X37745Y43195D01*
X37736Y43298D01*
X37734Y43402D01*
X37727Y43421D01*
X37725Y43440D01*
X37685Y43535D01*
X37649Y43633D01*
X37637Y43648D01*
X37629Y43667D01*
X37524Y43798D01*
X36385Y44937D01*
X36385Y48725D01*
X37524Y49865D01*
X37536Y49881D01*
X37551Y49893D01*
X37608Y49981D01*
X37668Y50065D01*
X37674Y50084D01*
X37684Y50100D01*
X37710Y50201D01*
X37740Y50300D01*
X37740Y50320D01*
X37745Y50339D01*
X37736Y50442D01*
X37734Y50546D01*
X37727Y50564D01*
X37725Y50584D01*
X37685Y50679D01*
X37649Y50777D01*
X37637Y50792D01*
X37629Y50810D01*
X37524Y50941D01*
X36385Y52081D01*
X36385Y55869D01*
X37524Y57009D01*
X37536Y57025D01*
X37551Y57037D01*
X37608Y57124D01*
X37668Y57208D01*
X37674Y57227D01*
X37684Y57244D01*
X37710Y57345D01*
X37740Y57443D01*
X37740Y57463D01*
X37745Y57483D01*
X37736Y57586D01*
X37734Y57689D01*
X37727Y57708D01*
X37725Y57728D01*
X37685Y57823D01*
X37649Y57920D01*
X37637Y57936D01*
X37629Y57954D01*
X37524Y58085D01*
X36385Y59225D01*
X36385Y63013D01*
X37524Y64152D01*
X37536Y64168D01*
X37551Y64181D01*
X37608Y64268D01*
X37668Y64352D01*
X37674Y64371D01*
X37684Y64388D01*
X37710Y64488D01*
X37740Y64587D01*
X37740Y64607D01*
X37745Y64626D01*
X37736Y64729D01*
X37734Y64833D01*
X37727Y64852D01*
X37725Y64872D01*
X37685Y64966D01*
X37649Y65064D01*
X37637Y65080D01*
X37629Y65098D01*
X37552Y65194D01*
X37548Y65202D01*
X37543Y65206D01*
X37524Y65229D01*
X36385Y66368D01*
X36385Y70157D01*
X39063Y72835D01*
X44958Y72835D01*
X44978Y72838D01*
X44997Y72836D01*
X45099Y72858D01*
X45201Y72875D01*
X45218Y72884D01*
X45238Y72889D01*
X45327Y72942D01*
X45418Y72990D01*
X45432Y73004D01*
X45449Y73015D01*
X45516Y73093D01*
X45588Y73168D01*
X45596Y73186D01*
X45609Y73202D01*
X45648Y73298D01*
X45691Y73391D01*
X45693Y73411D01*
X45701Y73430D01*
X45719Y73596D01*
X45719Y75134D01*
X47802Y77217D01*
X47803Y77217D01*
X47878Y77292D01*
X47878Y77293D01*
X49961Y79376D01*
X51499Y79376D01*
X51518Y79379D01*
X51538Y79377D01*
X51639Y79399D01*
X51741Y79415D01*
X51759Y79425D01*
X51778Y79429D01*
X51867Y79482D01*
X51959Y79531D01*
X51972Y79545D01*
X51989Y79555D01*
X52057Y79634D01*
X52128Y79709D01*
X52136Y79727D01*
X52149Y79742D01*
X52188Y79838D01*
X52232Y79932D01*
X52234Y79952D01*
X52241Y79970D01*
X52260Y80137D01*
X52260Y86032D01*
X54938Y88710D01*
X58727Y88710D01*
X59866Y87571D01*
X59882Y87559D01*
X59895Y87544D01*
X59982Y87487D01*
X60066Y87427D01*
X60085Y87421D01*
X60102Y87411D01*
X60202Y87385D01*
X60301Y87355D01*
X60321Y87355D01*
X60340Y87350D01*
X60443Y87359D01*
X60547Y87361D01*
X60566Y87368D01*
X60585Y87370D01*
X60680Y87410D01*
X60778Y87446D01*
X60793Y87458D01*
X60812Y87466D01*
X60943Y87571D01*
X62082Y88710D01*
X65870Y88710D01*
X67010Y87571D01*
X67026Y87559D01*
X67038Y87544D01*
X67126Y87487D01*
X67210Y87427D01*
X67229Y87421D01*
X67245Y87411D01*
X67346Y87385D01*
X67445Y87355D01*
X67465Y87355D01*
X67484Y87350D01*
X67587Y87359D01*
X67691Y87361D01*
X67709Y87368D01*
X67729Y87370D01*
X67824Y87410D01*
X67922Y87446D01*
X67937Y87458D01*
X67955Y87466D01*
X68086Y87571D01*
X69226Y88710D01*
X73014Y88710D01*
X74154Y87571D01*
X74170Y87559D01*
X74182Y87544D01*
X74269Y87487D01*
X74353Y87427D01*
X74372Y87421D01*
X74389Y87411D01*
X74490Y87385D01*
X74588Y87355D01*
X74608Y87355D01*
X74628Y87350D01*
X74731Y87359D01*
X74834Y87361D01*
X74853Y87368D01*
X74873Y87370D01*
X74968Y87410D01*
X75065Y87446D01*
X75081Y87458D01*
X75099Y87466D01*
X75230Y87571D01*
X76370Y88710D01*
X80158Y88710D01*
X81297Y87571D01*
X81314Y87559D01*
X81326Y87544D01*
X81413Y87487D01*
X81497Y87427D01*
X81516Y87421D01*
X81533Y87411D01*
X81633Y87385D01*
X81732Y87355D01*
X81752Y87355D01*
X81771Y87350D01*
X81874Y87359D01*
X81978Y87361D01*
X81997Y87368D01*
X82017Y87370D01*
X82111Y87410D01*
X82209Y87446D01*
X82225Y87458D01*
X82243Y87466D01*
X82374Y87571D01*
X83513Y88710D01*
X87302Y88710D01*
X89980Y86032D01*
X89980Y80137D01*
X89983Y80117D01*
X89981Y80098D01*
X90003Y79996D01*
X90020Y79894D01*
X90029Y79877D01*
X90034Y79857D01*
X90087Y79768D01*
X90135Y79677D01*
X90149Y79663D01*
X90160Y79646D01*
X90238Y79579D01*
X90313Y79507D01*
X90331Y79499D01*
X90347Y79486D01*
X90443Y79447D01*
X90536Y79404D01*
X90556Y79402D01*
X90575Y79394D01*
X90741Y79376D01*
X92279Y79376D01*
X96521Y75134D01*
X96521Y73596D01*
X96524Y73577D01*
X96522Y73557D01*
X96544Y73456D01*
X96560Y73354D01*
X96570Y73336D01*
X96574Y73317D01*
X96627Y73228D01*
X96676Y73136D01*
X96690Y73123D01*
X96700Y73106D01*
X96779Y73038D01*
X96854Y72967D01*
X96872Y72959D01*
X96887Y72946D01*
X96983Y72907D01*
X97077Y72863D01*
X97097Y72861D01*
X97115Y72854D01*
X97282Y72835D01*
X103177Y72835D01*
X105855Y70157D01*
X105855Y66368D01*
X104716Y65229D01*
X104704Y65213D01*
X104689Y65200D01*
X104658Y65153D01*
X104645Y65139D01*
X104633Y65114D01*
X104632Y65113D01*
X104572Y65029D01*
X104566Y65010D01*
X104556Y64993D01*
X104530Y64893D01*
X104500Y64794D01*
X104500Y64774D01*
X104495Y64755D01*
X104504Y64652D01*
X104506Y64548D01*
X104513Y64529D01*
X104515Y64510D01*
X104555Y64415D01*
X104591Y64317D01*
X104603Y64302D01*
X104611Y64283D01*
X104716Y64152D01*
X105855Y63013D01*
X105855Y59225D01*
X104716Y58085D01*
X104704Y58069D01*
X104689Y58057D01*
X104632Y57969D01*
X104572Y57885D01*
X104566Y57866D01*
X104556Y57850D01*
X104530Y57749D01*
X104500Y57650D01*
X104500Y57630D01*
X104495Y57611D01*
X104504Y57508D01*
X104506Y57404D01*
X104513Y57386D01*
X104515Y57366D01*
X104555Y57271D01*
X104591Y57173D01*
X104603Y57158D01*
X104611Y57140D01*
X104716Y57009D01*
X105855Y55869D01*
X105855Y52081D01*
X104716Y50941D01*
X104704Y50925D01*
X104689Y50913D01*
X104632Y50826D01*
X104572Y50742D01*
X104566Y50723D01*
X104556Y50706D01*
X104530Y50605D01*
X104500Y50507D01*
X104500Y50487D01*
X104495Y50467D01*
X104504Y50364D01*
X104506Y50261D01*
X104513Y50242D01*
X104515Y50222D01*
X104555Y50127D01*
X104591Y50030D01*
X104603Y50014D01*
X104611Y49996D01*
X104716Y49865D01*
X105855Y48725D01*
X105855Y44937D01*
X104716Y43798D01*
X104704Y43781D01*
X104689Y43769D01*
X104632Y43682D01*
X104572Y43598D01*
X104566Y43579D01*
X104556Y43562D01*
X104530Y43462D01*
X104500Y43363D01*
X104500Y43343D01*
X104495Y43324D01*
X104504Y43221D01*
X104506Y43117D01*
X104513Y43098D01*
X104515Y43078D01*
X104555Y42984D01*
X104591Y42886D01*
X104603Y42870D01*
X104611Y42852D01*
X104716Y42721D01*
X105855Y41582D01*
X105855Y37793D01*
X103177Y35115D01*
X97282Y35115D01*
X97262Y35112D01*
X97243Y35114D01*
X97141Y35092D01*
X97039Y35075D01*
X97022Y35066D01*
X97002Y35061D01*
X96913Y35008D01*
X96822Y34960D01*
X96808Y34946D01*
X96791Y34935D01*
X96724Y34857D01*
X96652Y34782D01*
X96644Y34764D01*
X96631Y34748D01*
X96592Y34652D01*
X96549Y34559D01*
X96547Y34539D01*
X96539Y34520D01*
X96521Y34354D01*
X96521Y32816D01*
X92279Y28574D01*
X90741Y28574D01*
X90722Y28571D01*
X90702Y28573D01*
X90601Y28551D01*
X90499Y28535D01*
X90481Y28525D01*
X90462Y28521D01*
X90373Y28468D01*
X90281Y28419D01*
X90268Y28405D01*
X90251Y28395D01*
X90183Y28316D01*
X90112Y28241D01*
X90104Y28223D01*
X90091Y28208D01*
X90052Y28112D01*
X90008Y28018D01*
X90006Y27998D01*
X89999Y27980D01*
X89980Y27813D01*
X89980Y21918D01*
X87302Y19240D01*
X83513Y19240D01*
X82374Y20379D01*
X82358Y20391D01*
X82345Y20406D01*
X82258Y20463D01*
X82174Y20523D01*
X82155Y20529D01*
X82138Y20539D01*
X82038Y20565D01*
X81939Y20595D01*
X81919Y20595D01*
X81900Y20600D01*
X81797Y20591D01*
X81693Y20589D01*
X81674Y20582D01*
X81655Y20580D01*
X81560Y20540D01*
X81462Y20504D01*
X81447Y20492D01*
X81428Y20484D01*
X81297Y20379D01*
X80158Y19240D01*
X76370Y19240D01*
X75230Y20379D01*
X75214Y20391D01*
X75202Y20406D01*
X75114Y20463D01*
X75030Y20523D01*
X75011Y20529D01*
X74995Y20539D01*
X74894Y20565D01*
X74795Y20595D01*
X74775Y20595D01*
X74756Y20600D01*
X74653Y20591D01*
X74549Y20589D01*
X74531Y20582D01*
X74511Y20580D01*
X74416Y20540D01*
X74318Y20504D01*
X74303Y20492D01*
X74285Y20484D01*
X74154Y20379D01*
X73014Y19240D01*
X69226Y19240D01*
X68086Y20379D01*
X68070Y20391D01*
X68058Y20406D01*
X67971Y20463D01*
X67887Y20523D01*
X67868Y20529D01*
X67851Y20539D01*
X67750Y20565D01*
X67652Y20595D01*
X67632Y20595D01*
X67612Y20600D01*
X67509Y20591D01*
X67406Y20589D01*
X67387Y20582D01*
X67367Y20580D01*
X67272Y20540D01*
X67175Y20504D01*
X67159Y20492D01*
X67141Y20484D01*
X67010Y20379D01*
X65870Y19240D01*
X62082Y19240D01*
X60943Y20379D01*
X60927Y20391D01*
X60914Y20406D01*
X60827Y20463D01*
X60743Y20523D01*
X60724Y20529D01*
X60707Y20539D01*
X60607Y20565D01*
X60508Y20595D01*
X60488Y20595D01*
X60469Y20600D01*
X60366Y20591D01*
X60262Y20589D01*
X60243Y20582D01*
X60223Y20580D01*
X60129Y20540D01*
X60031Y20504D01*
X60015Y20492D01*
X59997Y20484D01*
X59866Y20379D01*
X58727Y19240D01*
X54938Y19240D01*
G37*
%LPD*%
G36*
X91006Y31123D02*
X91006Y31123D01*
X91048Y31121D01*
X91115Y31143D01*
X91185Y31155D01*
X91221Y31177D01*
X91262Y31190D01*
X91334Y31244D01*
X91378Y31270D01*
X91391Y31286D01*
X91412Y31302D01*
X93793Y33683D01*
X93818Y33718D01*
X93849Y33746D01*
X93881Y33809D01*
X93922Y33867D01*
X93932Y33908D01*
X93952Y33946D01*
X93965Y34036D01*
X93978Y34084D01*
X93975Y34105D01*
X93979Y34131D01*
X93979Y73819D01*
X93972Y73861D01*
X93974Y73903D01*
X93952Y73970D01*
X93940Y74040D01*
X93918Y74076D01*
X93905Y74117D01*
X93851Y74189D01*
X93825Y74233D01*
X93809Y74246D01*
X93793Y74267D01*
X91412Y76648D01*
X91377Y76673D01*
X91349Y76704D01*
X91286Y76736D01*
X91228Y76777D01*
X91187Y76787D01*
X91149Y76807D01*
X91060Y76820D01*
X91011Y76833D01*
X90990Y76830D01*
X90964Y76834D01*
X51276Y76834D01*
X51234Y76827D01*
X51192Y76829D01*
X51125Y76807D01*
X51055Y76795D01*
X51019Y76773D01*
X50978Y76760D01*
X50906Y76706D01*
X50862Y76680D01*
X50849Y76664D01*
X50828Y76648D01*
X48447Y74267D01*
X48422Y74232D01*
X48391Y74204D01*
X48359Y74141D01*
X48318Y74083D01*
X48308Y74042D01*
X48288Y74004D01*
X48275Y73915D01*
X48263Y73866D01*
X48265Y73845D01*
X48261Y73819D01*
X48261Y34131D01*
X48268Y34089D01*
X48266Y34047D01*
X48288Y33980D01*
X48300Y33910D01*
X48322Y33874D01*
X48335Y33833D01*
X48389Y33761D01*
X48415Y33717D01*
X48431Y33704D01*
X48447Y33683D01*
X50828Y31302D01*
X50863Y31277D01*
X50891Y31246D01*
X50954Y31214D01*
X51012Y31173D01*
X51053Y31163D01*
X51091Y31143D01*
X51181Y31130D01*
X51229Y31118D01*
X51250Y31120D01*
X51276Y31116D01*
X90964Y31116D01*
X91006Y31123D01*
G37*
%LPC*%
G36*
X56687Y58578D02*
X56687Y58578D01*
X55667Y58748D01*
X54844Y59241D01*
X54179Y59907D01*
X53672Y60920D01*
X53498Y61965D01*
X53498Y66630D01*
X53672Y67848D01*
X54161Y68663D01*
X54844Y69346D01*
X55667Y69839D01*
X56687Y70010D01*
X62548Y70010D01*
X62548Y58578D01*
X56687Y58578D01*
G37*
%LPD*%
%LPC*%
G36*
X63830Y40322D02*
X63830Y40322D01*
X62810Y40492D01*
X61988Y40985D01*
X61305Y41668D01*
X60816Y42484D01*
X60642Y43701D01*
X60642Y48366D01*
X60816Y49411D01*
X61323Y50424D01*
X61988Y51090D01*
X62810Y51583D01*
X63830Y51753D01*
X69692Y51753D01*
X69692Y40322D01*
X63830Y40322D01*
G37*
%LPD*%
%LPC*%
G36*
X64904Y58578D02*
X64904Y58578D01*
X64904Y70010D01*
X68299Y70010D01*
X70526Y64071D01*
X70582Y63977D01*
X70638Y63881D01*
X70640Y63880D01*
X70641Y63878D01*
X70727Y63809D01*
X70812Y63739D01*
X70814Y63739D01*
X70816Y63737D01*
X70921Y63702D01*
X71024Y63667D01*
X71026Y63667D01*
X71028Y63666D01*
X71140Y63670D01*
X71249Y63673D01*
X71250Y63673D01*
X71253Y63674D01*
X71355Y63716D01*
X71457Y63756D01*
X71458Y63758D01*
X71460Y63758D01*
X71540Y63832D01*
X71623Y63907D01*
X71624Y63909D01*
X71625Y63910D01*
X71632Y63924D01*
X71714Y64071D01*
X73941Y70010D01*
X77336Y70010D01*
X77336Y58578D01*
X74929Y58578D01*
X74929Y64294D01*
X74927Y64305D01*
X74929Y64315D01*
X74917Y64371D01*
X74916Y64413D01*
X74902Y64448D01*
X74890Y64515D01*
X74884Y64524D01*
X74882Y64535D01*
X74840Y64601D01*
X74831Y64621D01*
X74818Y64635D01*
X74775Y64708D01*
X74767Y64715D01*
X74761Y64724D01*
X74684Y64782D01*
X74680Y64787D01*
X74676Y64789D01*
X74601Y64849D01*
X74591Y64853D01*
X74582Y64859D01*
X74485Y64889D01*
X74389Y64921D01*
X74378Y64921D01*
X74367Y64924D01*
X74266Y64917D01*
X74164Y64914D01*
X74154Y64910D01*
X74144Y64910D01*
X74050Y64868D01*
X73957Y64830D01*
X73949Y64823D01*
X73939Y64818D01*
X73889Y64770D01*
X73877Y64763D01*
X73860Y64742D01*
X73791Y64679D01*
X73786Y64669D01*
X73778Y64661D01*
X73750Y64607D01*
X73736Y64589D01*
X73725Y64557D01*
X73693Y64494D01*
X72250Y60166D01*
X69990Y60166D01*
X68547Y64494D01*
X68542Y64504D01*
X68540Y64515D01*
X68503Y64576D01*
X68485Y64621D01*
X68466Y64641D01*
X68439Y64691D01*
X68431Y64698D01*
X68425Y64708D01*
X68349Y64770D01*
X68334Y64787D01*
X68324Y64792D01*
X68270Y64838D01*
X68260Y64842D01*
X68251Y64849D01*
X68155Y64882D01*
X68060Y64918D01*
X68049Y64918D01*
X68039Y64921D01*
X67938Y64918D01*
X67836Y64919D01*
X67825Y64915D01*
X67814Y64914D01*
X67721Y64876D01*
X67625Y64841D01*
X67617Y64834D01*
X67607Y64830D01*
X67537Y64767D01*
X67531Y64763D01*
X67526Y64757D01*
X67454Y64696D01*
X67449Y64686D01*
X67441Y64679D01*
X67404Y64606D01*
X67390Y64589D01*
X67382Y64565D01*
X67345Y64500D01*
X67343Y64489D01*
X67338Y64479D01*
X67327Y64405D01*
X67318Y64376D01*
X67319Y64346D01*
X67311Y64294D01*
X67311Y58578D01*
X64904Y58578D01*
G37*
%LPD*%
%LPC*%
G36*
X15493Y40893D02*
X15493Y40893D01*
X15493Y51216D01*
X16766Y51015D01*
X18553Y50434D01*
X20227Y49581D01*
X21748Y48476D01*
X23076Y47148D01*
X24181Y45627D01*
X25034Y43953D01*
X25615Y42166D01*
X25816Y40893D01*
X15493Y40893D01*
G37*
%LPD*%
%LPC*%
G36*
X113154Y40893D02*
X113154Y40893D01*
X113355Y42166D01*
X113936Y43953D01*
X114789Y45627D01*
X115894Y47148D01*
X117222Y48476D01*
X118743Y49581D01*
X120417Y50434D01*
X122204Y51015D01*
X123477Y51216D01*
X123477Y40893D01*
X113154Y40893D01*
G37*
%LPD*%
%LPC*%
G36*
X15493Y37847D02*
X15493Y37847D01*
X25816Y37847D01*
X25615Y36574D01*
X25034Y34787D01*
X24181Y33113D01*
X23076Y31592D01*
X21748Y30264D01*
X20227Y29159D01*
X18553Y28306D01*
X16766Y27725D01*
X15493Y27524D01*
X15493Y37847D01*
G37*
%LPD*%
%LPC*%
G36*
X122204Y27725D02*
X122204Y27725D01*
X120417Y28306D01*
X118743Y29159D01*
X117222Y30264D01*
X115894Y31592D01*
X114789Y33113D01*
X113936Y34787D01*
X113355Y36574D01*
X113154Y37847D01*
X123477Y37847D01*
X123477Y27524D01*
X122204Y27725D01*
G37*
%LPD*%
%LPC*%
G36*
X75167Y40322D02*
X75167Y40322D01*
X74573Y40470D01*
X73918Y40962D01*
X73262Y41618D01*
X72548Y43759D01*
X72548Y48316D01*
X73262Y50457D01*
X73918Y51113D01*
X74573Y51605D01*
X75167Y51753D01*
X77392Y51753D01*
X77986Y51605D01*
X78641Y51113D01*
X79297Y50457D01*
X80011Y48316D01*
X80011Y43759D01*
X79297Y41618D01*
X78641Y40962D01*
X77986Y40470D01*
X77392Y40322D01*
X75167Y40322D01*
G37*
%LPD*%
%LPC*%
G36*
X82073Y40322D02*
X82073Y40322D01*
X82073Y42728D01*
X88583Y42728D01*
X88623Y42736D01*
X88683Y42736D01*
X89278Y42832D01*
X89340Y42853D01*
X89405Y42865D01*
X89445Y42890D01*
X89490Y42906D01*
X89541Y42948D01*
X89597Y42981D01*
X89626Y43019D01*
X89663Y43049D01*
X89695Y43106D01*
X89736Y43157D01*
X89755Y43209D01*
X89775Y43243D01*
X89781Y43282D01*
X89800Y43333D01*
X89998Y44326D01*
X89998Y44335D01*
X90001Y44341D01*
X90000Y44376D01*
X90011Y44450D01*
X90011Y47625D01*
X90002Y47673D01*
X89998Y47749D01*
X89800Y48742D01*
X89776Y48803D01*
X89761Y48867D01*
X89735Y48906D01*
X89718Y48950D01*
X89674Y48999D01*
X89638Y49054D01*
X89599Y49082D01*
X89568Y49117D01*
X89510Y49148D01*
X89457Y49187D01*
X89404Y49204D01*
X89369Y49222D01*
X89330Y49227D01*
X89278Y49243D01*
X88683Y49339D01*
X88641Y49338D01*
X88583Y49347D01*
X82073Y49347D01*
X82073Y51753D01*
X88728Y51753D01*
X89749Y51583D01*
X90571Y51090D01*
X91236Y50424D01*
X91743Y49411D01*
X91917Y48366D01*
X91917Y43701D01*
X91743Y42484D01*
X91254Y41668D01*
X90571Y40985D01*
X89749Y40492D01*
X88728Y40322D01*
X82073Y40322D01*
G37*
%LPD*%
%LPC*%
G36*
X79692Y58578D02*
X79692Y58578D01*
X79692Y60985D01*
X84908Y60985D01*
X84948Y60992D01*
X85008Y60992D01*
X85603Y61088D01*
X85665Y61110D01*
X85730Y61122D01*
X85770Y61146D01*
X85815Y61162D01*
X85866Y61204D01*
X85922Y61238D01*
X85951Y61275D01*
X85988Y61305D01*
X86020Y61362D01*
X86061Y61413D01*
X86080Y61465D01*
X86100Y61499D01*
X86106Y61538D01*
X86125Y61590D01*
X86323Y62582D01*
X86324Y62598D01*
X86329Y62613D01*
X86328Y62633D01*
X86333Y62653D01*
X86331Y62677D01*
X86336Y62706D01*
X86336Y65881D01*
X86327Y65929D01*
X86323Y66006D01*
X86125Y66998D01*
X86091Y67084D01*
X86063Y67171D01*
X86049Y67190D01*
X86043Y67207D01*
X86009Y67244D01*
X85951Y67322D01*
X85856Y67417D01*
X85821Y67441D01*
X85792Y67473D01*
X85730Y67505D01*
X85672Y67545D01*
X85631Y67556D01*
X85593Y67575D01*
X85503Y67589D01*
X85455Y67601D01*
X85434Y67599D01*
X85408Y67603D01*
X79692Y67603D01*
X79692Y70010D01*
X86052Y70010D01*
X87413Y69329D01*
X88079Y68663D01*
X88568Y67848D01*
X88742Y66630D01*
X88742Y61965D01*
X88568Y60920D01*
X88061Y59907D01*
X87413Y59259D01*
X86052Y58578D01*
X79692Y58578D01*
G37*
%LPD*%
%LPC*%
G36*
X50323Y40322D02*
X50323Y40322D01*
X50323Y42228D01*
X55245Y42228D01*
X55310Y42240D01*
X55376Y42242D01*
X55419Y42260D01*
X55466Y42268D01*
X55523Y42301D01*
X55583Y42326D01*
X55618Y42358D01*
X55659Y42382D01*
X55701Y42433D01*
X55749Y42478D01*
X55771Y42520D01*
X55800Y42556D01*
X55821Y42619D01*
X55852Y42677D01*
X55860Y42732D01*
X55872Y42769D01*
X55871Y42808D01*
X55879Y42863D01*
X55879Y44450D01*
X55868Y44515D01*
X55866Y44581D01*
X55848Y44624D01*
X55840Y44671D01*
X55806Y44728D01*
X55781Y44788D01*
X55750Y44823D01*
X55725Y44864D01*
X55674Y44906D01*
X55630Y44954D01*
X55588Y44976D01*
X55551Y45005D01*
X55489Y45026D01*
X55430Y45057D01*
X55376Y45065D01*
X55339Y45077D01*
X55299Y45076D01*
X55245Y45084D01*
X50323Y45084D01*
X50323Y46991D01*
X55245Y46991D01*
X55310Y47002D01*
X55376Y47004D01*
X55419Y47022D01*
X55466Y47030D01*
X55523Y47064D01*
X55583Y47089D01*
X55618Y47120D01*
X55659Y47145D01*
X55701Y47196D01*
X55749Y47240D01*
X55771Y47282D01*
X55800Y47319D01*
X55821Y47381D01*
X55852Y47440D01*
X55860Y47494D01*
X55872Y47531D01*
X55871Y47571D01*
X55879Y47625D01*
X55879Y49213D01*
X55868Y49277D01*
X55866Y49343D01*
X55848Y49387D01*
X55840Y49433D01*
X55806Y49490D01*
X55781Y49551D01*
X55750Y49586D01*
X55725Y49627D01*
X55674Y49668D01*
X55630Y49717D01*
X55588Y49738D01*
X55551Y49768D01*
X55489Y49789D01*
X55430Y49819D01*
X55376Y49827D01*
X55339Y49840D01*
X55299Y49839D01*
X55245Y49847D01*
X50323Y49847D01*
X50323Y51753D01*
X57786Y51753D01*
X57786Y40322D01*
X50323Y40322D01*
G37*
%LPD*%
G36*
X66716Y42240D02*
X66716Y42240D01*
X66782Y42242D01*
X66826Y42260D01*
X66872Y42268D01*
X66929Y42301D01*
X66990Y42326D01*
X67025Y42358D01*
X67065Y42382D01*
X67107Y42433D01*
X67155Y42478D01*
X67177Y42520D01*
X67207Y42556D01*
X67228Y42619D01*
X67258Y42677D01*
X67266Y42732D01*
X67279Y42769D01*
X67277Y42808D01*
X67286Y42863D01*
X67286Y49213D01*
X67274Y49277D01*
X67272Y49343D01*
X67254Y49387D01*
X67246Y49433D01*
X67212Y49490D01*
X67188Y49551D01*
X67156Y49586D01*
X67132Y49627D01*
X67081Y49668D01*
X67036Y49717D01*
X66994Y49738D01*
X66958Y49768D01*
X66895Y49789D01*
X66837Y49819D01*
X66782Y49827D01*
X66745Y49840D01*
X66706Y49839D01*
X66651Y49847D01*
X63976Y49847D01*
X63934Y49839D01*
X63892Y49841D01*
X63825Y49820D01*
X63755Y49807D01*
X63719Y49786D01*
X63678Y49773D01*
X63606Y49719D01*
X63562Y49693D01*
X63557Y49687D01*
X63555Y49685D01*
X63545Y49674D01*
X63528Y49661D01*
X62932Y49066D01*
X62880Y48990D01*
X62823Y48918D01*
X62815Y48896D01*
X62804Y48881D01*
X62792Y48833D01*
X62759Y48742D01*
X62561Y47749D01*
X62560Y47701D01*
X62548Y47625D01*
X62548Y44450D01*
X62557Y44402D01*
X62561Y44326D01*
X62759Y43333D01*
X62793Y43248D01*
X62821Y43160D01*
X62835Y43142D01*
X62841Y43125D01*
X62875Y43087D01*
X62932Y43009D01*
X63528Y42414D01*
X63563Y42390D01*
X63591Y42358D01*
X63654Y42326D01*
X63712Y42286D01*
X63753Y42275D01*
X63791Y42256D01*
X63881Y42243D01*
X63929Y42230D01*
X63950Y42232D01*
X63976Y42228D01*
X66651Y42228D01*
X66716Y42240D01*
G37*
G36*
X59572Y60496D02*
X59572Y60496D01*
X59638Y60498D01*
X59682Y60516D01*
X59728Y60524D01*
X59785Y60558D01*
X59846Y60582D01*
X59881Y60614D01*
X59922Y60638D01*
X59963Y60689D01*
X60012Y60734D01*
X60033Y60776D01*
X60063Y60813D01*
X60084Y60875D01*
X60114Y60933D01*
X60122Y60988D01*
X60135Y61025D01*
X60134Y61064D01*
X60142Y61119D01*
X60142Y67469D01*
X60130Y67534D01*
X60128Y67599D01*
X60110Y67643D01*
X60102Y67690D01*
X60069Y67746D01*
X60044Y67807D01*
X60012Y67842D01*
X59988Y67883D01*
X59937Y67924D01*
X59892Y67973D01*
X59850Y67994D01*
X59814Y68024D01*
X59752Y68045D01*
X59693Y68075D01*
X59638Y68083D01*
X59601Y68096D01*
X59562Y68095D01*
X59508Y68103D01*
X57333Y68103D01*
X57291Y68096D01*
X57248Y68097D01*
X57181Y68076D01*
X57112Y68063D01*
X57075Y68042D01*
X57035Y68029D01*
X56962Y67975D01*
X56918Y67949D01*
X56914Y67943D01*
X56911Y67942D01*
X56902Y67930D01*
X56884Y67917D01*
X56289Y67322D01*
X56264Y67286D01*
X56219Y67239D01*
X55520Y66246D01*
X55478Y66156D01*
X55432Y66067D01*
X55430Y66053D01*
X55425Y66043D01*
X55422Y65997D01*
X55405Y65881D01*
X55405Y62706D01*
X55413Y62659D01*
X55417Y62582D01*
X55615Y61590D01*
X55649Y61504D01*
X55677Y61416D01*
X55691Y61398D01*
X55697Y61381D01*
X55731Y61343D01*
X55789Y61266D01*
X56384Y60670D01*
X56419Y60646D01*
X56448Y60615D01*
X56510Y60582D01*
X56568Y60542D01*
X56609Y60532D01*
X56647Y60512D01*
X56737Y60499D01*
X56786Y60486D01*
X56806Y60488D01*
X56833Y60485D01*
X59508Y60485D01*
X59572Y60496D01*
G37*
G36*
X76708Y42234D02*
X76708Y42234D01*
X76739Y42231D01*
X76817Y42254D01*
X76897Y42268D01*
X76924Y42284D01*
X76955Y42293D01*
X77020Y42341D01*
X77090Y42382D01*
X77110Y42407D01*
X77136Y42425D01*
X77202Y42520D01*
X77232Y42556D01*
X77235Y42567D01*
X77244Y42579D01*
X78037Y44166D01*
X78052Y44217D01*
X78077Y44265D01*
X78087Y44337D01*
X78101Y44382D01*
X78098Y44411D01*
X78104Y44450D01*
X78104Y47625D01*
X78095Y47677D01*
X78095Y47730D01*
X78073Y47800D01*
X78065Y47846D01*
X78049Y47872D01*
X78037Y47909D01*
X77244Y49496D01*
X77226Y49520D01*
X77216Y49543D01*
X77215Y49545D01*
X77213Y49551D01*
X77158Y49611D01*
X77109Y49676D01*
X77083Y49693D01*
X77061Y49717D01*
X76989Y49754D01*
X76921Y49798D01*
X76890Y49805D01*
X76862Y49819D01*
X76748Y49836D01*
X76702Y49846D01*
X76690Y49845D01*
X76676Y49847D01*
X75883Y49847D01*
X75875Y49845D01*
X75867Y49847D01*
X75765Y49826D01*
X75662Y49807D01*
X75655Y49803D01*
X75647Y49802D01*
X75559Y49746D01*
X75468Y49693D01*
X75464Y49687D01*
X75457Y49683D01*
X75393Y49600D01*
X75327Y49519D01*
X75325Y49511D01*
X75320Y49505D01*
X75259Y49328D01*
X74965Y47740D01*
X74965Y47694D01*
X74955Y47625D01*
X74955Y44450D01*
X74963Y44405D01*
X74965Y44335D01*
X75259Y42747D01*
X75262Y42740D01*
X75262Y42732D01*
X75301Y42636D01*
X75338Y42537D01*
X75343Y42531D01*
X75346Y42524D01*
X75417Y42447D01*
X75485Y42368D01*
X75492Y42364D01*
X75498Y42358D01*
X75591Y42311D01*
X75682Y42261D01*
X75690Y42260D01*
X75697Y42256D01*
X75883Y42228D01*
X76676Y42228D01*
X76708Y42234D01*
G37*
D10*
X13970Y13970D03*
D11*
X13970Y39370D03*
X13970Y64770D03*
X13970Y90170D03*
D12*
X71120Y84138D02*
X71120Y76994D01*
X85408Y76994D02*
X85408Y84138D01*
X78264Y84138D02*
X78264Y76994D01*
X63976Y76994D02*
X63976Y84138D01*
X56833Y84138D02*
X56833Y76994D01*
X71120Y30956D02*
X71120Y23813D01*
X85408Y23813D02*
X85408Y30956D01*
X78264Y30956D02*
X78264Y23813D01*
X63976Y23813D02*
X63976Y30956D01*
X56833Y30956D02*
X56833Y23813D01*
X94139Y53975D02*
X101283Y53975D01*
X101283Y39688D02*
X94139Y39688D01*
X94139Y46831D02*
X101283Y46831D01*
X101283Y61119D02*
X94139Y61119D01*
X94139Y68263D02*
X101283Y68263D01*
X48101Y53975D02*
X40958Y53975D01*
X40958Y39688D02*
X48101Y39688D01*
X48101Y46831D02*
X40958Y46831D01*
X40958Y61119D02*
X48101Y61119D01*
X48101Y68263D02*
X40958Y68263D01*
D10*
X125000Y90170D03*
D11*
X125000Y64770D03*
X125000Y39370D03*
X125000Y13970D03*
M02*
