G04 EAGLE Gerber RS-274X export*
G75*
%MOMM*%
%FSLAX34Y34*%
%LPD*%
%INBottom Copper*%
%IPPOS*%
%AMOC8*
5,1,8,0,0,1.08239X$1,22.5*%
G01*
%ADD10C,0.076200*%
%ADD11R,1.879600X1.879600*%
%ADD12C,1.879600*%


D10*
X121694Y25781D02*
X123783Y25781D01*
X123860Y25783D01*
X123936Y25789D01*
X124013Y25798D01*
X124089Y25811D01*
X124164Y25828D01*
X124238Y25848D01*
X124311Y25873D01*
X124382Y25900D01*
X124453Y25931D01*
X124521Y25966D01*
X124588Y26004D01*
X124653Y26045D01*
X124716Y26089D01*
X124776Y26136D01*
X124835Y26187D01*
X124890Y26240D01*
X124943Y26295D01*
X124994Y26354D01*
X125041Y26414D01*
X125085Y26477D01*
X125126Y26542D01*
X125164Y26609D01*
X125199Y26677D01*
X125230Y26748D01*
X125257Y26819D01*
X125282Y26892D01*
X125302Y26966D01*
X125319Y27041D01*
X125332Y27117D01*
X125341Y27194D01*
X125347Y27270D01*
X125349Y27347D01*
X125349Y30480D01*
X125347Y30557D01*
X125341Y30633D01*
X125332Y30710D01*
X125319Y30786D01*
X125302Y30861D01*
X125282Y30935D01*
X125257Y31008D01*
X125230Y31079D01*
X125199Y31150D01*
X125164Y31218D01*
X125126Y31285D01*
X125085Y31350D01*
X125041Y31413D01*
X124994Y31473D01*
X124943Y31532D01*
X124890Y31587D01*
X124835Y31640D01*
X124776Y31691D01*
X124716Y31738D01*
X124653Y31782D01*
X124588Y31823D01*
X124521Y31861D01*
X124453Y31896D01*
X124382Y31927D01*
X124311Y31954D01*
X124238Y31979D01*
X124164Y31999D01*
X124089Y32016D01*
X124013Y32029D01*
X123936Y32038D01*
X123860Y32044D01*
X123783Y32046D01*
X121694Y32046D01*
X117869Y32046D02*
X117869Y25781D01*
X117869Y32046D02*
X113170Y32046D01*
X113093Y32044D01*
X113017Y32038D01*
X112940Y32029D01*
X112864Y32016D01*
X112789Y31999D01*
X112715Y31979D01*
X112642Y31954D01*
X112571Y31927D01*
X112500Y31896D01*
X112432Y31861D01*
X112365Y31823D01*
X112300Y31782D01*
X112237Y31738D01*
X112177Y31691D01*
X112118Y31640D01*
X112063Y31587D01*
X112010Y31532D01*
X111959Y31473D01*
X111912Y31413D01*
X111868Y31350D01*
X111827Y31285D01*
X111789Y31218D01*
X111754Y31150D01*
X111723Y31079D01*
X111696Y31008D01*
X111671Y30935D01*
X111651Y30861D01*
X111634Y30786D01*
X111621Y30710D01*
X111612Y30633D01*
X111606Y30557D01*
X111604Y30480D01*
X111604Y25781D01*
X114737Y25781D02*
X114737Y32046D01*
X103245Y35179D02*
X103245Y25781D01*
X105856Y25781D01*
X105933Y25783D01*
X106009Y25789D01*
X106086Y25798D01*
X106162Y25811D01*
X106237Y25828D01*
X106311Y25848D01*
X106384Y25873D01*
X106455Y25900D01*
X106526Y25931D01*
X106594Y25966D01*
X106661Y26004D01*
X106726Y26045D01*
X106789Y26089D01*
X106849Y26136D01*
X106908Y26187D01*
X106963Y26240D01*
X107016Y26295D01*
X107067Y26354D01*
X107114Y26414D01*
X107158Y26477D01*
X107199Y26542D01*
X107237Y26609D01*
X107272Y26677D01*
X107303Y26748D01*
X107330Y26819D01*
X107355Y26892D01*
X107375Y26966D01*
X107392Y27041D01*
X107405Y27117D01*
X107414Y27194D01*
X107420Y27270D01*
X107422Y27347D01*
X107422Y30480D01*
X107420Y30557D01*
X107414Y30633D01*
X107405Y30710D01*
X107392Y30786D01*
X107375Y30861D01*
X107355Y30935D01*
X107330Y31008D01*
X107303Y31079D01*
X107272Y31150D01*
X107237Y31218D01*
X107199Y31285D01*
X107158Y31350D01*
X107114Y31413D01*
X107067Y31473D01*
X107016Y31532D01*
X106963Y31587D01*
X106908Y31640D01*
X106849Y31691D01*
X106789Y31738D01*
X106726Y31782D01*
X106661Y31823D01*
X106594Y31861D01*
X106526Y31896D01*
X106455Y31927D01*
X106384Y31954D01*
X106311Y31979D01*
X106237Y31999D01*
X106162Y32016D01*
X106086Y32029D01*
X106009Y32038D01*
X105933Y32044D01*
X105856Y32046D01*
X103245Y32046D01*
X122964Y6731D02*
X125053Y6731D01*
X125130Y6733D01*
X125206Y6739D01*
X125283Y6748D01*
X125359Y6761D01*
X125434Y6778D01*
X125508Y6798D01*
X125581Y6823D01*
X125652Y6850D01*
X125723Y6881D01*
X125791Y6916D01*
X125858Y6954D01*
X125923Y6995D01*
X125986Y7039D01*
X126046Y7086D01*
X126105Y7137D01*
X126160Y7190D01*
X126213Y7245D01*
X126264Y7304D01*
X126311Y7364D01*
X126355Y7427D01*
X126396Y7492D01*
X126434Y7559D01*
X126469Y7627D01*
X126500Y7698D01*
X126527Y7769D01*
X126552Y7842D01*
X126572Y7916D01*
X126589Y7991D01*
X126602Y8067D01*
X126611Y8144D01*
X126617Y8220D01*
X126619Y8297D01*
X126619Y11430D01*
X126617Y11507D01*
X126611Y11583D01*
X126602Y11660D01*
X126589Y11736D01*
X126572Y11811D01*
X126552Y11885D01*
X126527Y11958D01*
X126500Y12029D01*
X126469Y12100D01*
X126434Y12168D01*
X126396Y12235D01*
X126355Y12300D01*
X126311Y12363D01*
X126264Y12423D01*
X126213Y12482D01*
X126160Y12537D01*
X126105Y12590D01*
X126046Y12641D01*
X125986Y12688D01*
X125923Y12732D01*
X125858Y12773D01*
X125791Y12811D01*
X125723Y12846D01*
X125652Y12877D01*
X125581Y12904D01*
X125508Y12929D01*
X125434Y12949D01*
X125359Y12966D01*
X125283Y12979D01*
X125206Y12988D01*
X125130Y12994D01*
X125053Y12996D01*
X122964Y12996D01*
X119532Y11430D02*
X119530Y11615D01*
X119523Y11800D01*
X119512Y11984D01*
X119497Y12168D01*
X119477Y12352D01*
X119453Y12536D01*
X119424Y12718D01*
X119391Y12900D01*
X119354Y13081D01*
X119312Y13261D01*
X119266Y13441D01*
X119216Y13619D01*
X119162Y13795D01*
X119103Y13971D01*
X119041Y14145D01*
X118974Y14317D01*
X118903Y14488D01*
X118828Y14657D01*
X118749Y14824D01*
X118719Y14904D01*
X118686Y14983D01*
X118649Y15060D01*
X118609Y15136D01*
X118566Y15210D01*
X118520Y15282D01*
X118470Y15351D01*
X118418Y15419D01*
X118362Y15484D01*
X118304Y15547D01*
X118242Y15606D01*
X118179Y15664D01*
X118112Y15718D01*
X118044Y15769D01*
X117973Y15817D01*
X117900Y15862D01*
X117826Y15904D01*
X117749Y15942D01*
X117671Y15977D01*
X117592Y16009D01*
X117511Y16037D01*
X117429Y16061D01*
X117345Y16082D01*
X117262Y16099D01*
X117177Y16112D01*
X117092Y16121D01*
X117007Y16127D01*
X116921Y16129D01*
X116835Y16127D01*
X116750Y16121D01*
X116665Y16112D01*
X116580Y16099D01*
X116497Y16082D01*
X116413Y16061D01*
X116331Y16037D01*
X116251Y16009D01*
X116171Y15977D01*
X116093Y15942D01*
X116016Y15904D01*
X115942Y15862D01*
X115869Y15817D01*
X115798Y15769D01*
X115730Y15718D01*
X115663Y15664D01*
X115600Y15606D01*
X115539Y15547D01*
X115480Y15484D01*
X115425Y15419D01*
X115372Y15351D01*
X115322Y15282D01*
X115276Y15210D01*
X115233Y15136D01*
X115193Y15060D01*
X115156Y14983D01*
X115123Y14904D01*
X115093Y14824D01*
X115014Y14657D01*
X114939Y14488D01*
X114868Y14317D01*
X114801Y14145D01*
X114739Y13971D01*
X114680Y13795D01*
X114626Y13619D01*
X114576Y13441D01*
X114530Y13261D01*
X114488Y13081D01*
X114451Y12900D01*
X114418Y12718D01*
X114389Y12536D01*
X114365Y12352D01*
X114345Y12168D01*
X114330Y11984D01*
X114319Y11800D01*
X114312Y11615D01*
X114310Y11430D01*
X119532Y11430D02*
X119530Y11245D01*
X119523Y11060D01*
X119512Y10876D01*
X119497Y10692D01*
X119477Y10508D01*
X119453Y10324D01*
X119424Y10142D01*
X119391Y9960D01*
X119354Y9779D01*
X119312Y9599D01*
X119266Y9419D01*
X119216Y9241D01*
X119162Y9065D01*
X119103Y8889D01*
X119041Y8715D01*
X118974Y8543D01*
X118903Y8372D01*
X118828Y8203D01*
X118749Y8036D01*
X118719Y7956D01*
X118686Y7877D01*
X118649Y7800D01*
X118609Y7724D01*
X118566Y7650D01*
X118520Y7578D01*
X118470Y7509D01*
X118417Y7441D01*
X118362Y7376D01*
X118303Y7313D01*
X118242Y7254D01*
X118179Y7196D01*
X118112Y7142D01*
X118044Y7091D01*
X117973Y7043D01*
X117900Y6998D01*
X117826Y6956D01*
X117749Y6918D01*
X117671Y6883D01*
X117592Y6851D01*
X117511Y6823D01*
X117429Y6799D01*
X117345Y6778D01*
X117262Y6761D01*
X117177Y6748D01*
X117092Y6739D01*
X117007Y6733D01*
X116921Y6731D01*
X115093Y8036D02*
X115014Y8203D01*
X114939Y8372D01*
X114868Y8543D01*
X114801Y8715D01*
X114739Y8889D01*
X114680Y9065D01*
X114626Y9241D01*
X114576Y9419D01*
X114530Y9599D01*
X114488Y9779D01*
X114451Y9960D01*
X114418Y10142D01*
X114389Y10324D01*
X114365Y10508D01*
X114345Y10692D01*
X114330Y10876D01*
X114319Y11060D01*
X114312Y11245D01*
X114310Y11430D01*
X115093Y8036D02*
X115123Y7956D01*
X115156Y7877D01*
X115193Y7800D01*
X115233Y7724D01*
X115276Y7650D01*
X115322Y7578D01*
X115372Y7509D01*
X115425Y7441D01*
X115480Y7376D01*
X115539Y7313D01*
X115600Y7254D01*
X115663Y7196D01*
X115730Y7142D01*
X115798Y7091D01*
X115869Y7043D01*
X115942Y6998D01*
X116016Y6956D01*
X116093Y6918D01*
X116171Y6883D01*
X116251Y6851D01*
X116331Y6823D01*
X116413Y6799D01*
X116497Y6778D01*
X116580Y6761D01*
X116665Y6748D01*
X116750Y6739D01*
X116835Y6733D01*
X116921Y6731D01*
X119009Y8819D02*
X114832Y14041D01*
X106344Y16129D02*
X106344Y6731D01*
X108954Y6731D01*
X109031Y6733D01*
X109107Y6739D01*
X109184Y6748D01*
X109260Y6761D01*
X109335Y6778D01*
X109409Y6798D01*
X109482Y6823D01*
X109553Y6850D01*
X109624Y6881D01*
X109692Y6916D01*
X109759Y6954D01*
X109824Y6995D01*
X109887Y7039D01*
X109947Y7086D01*
X110006Y7137D01*
X110061Y7190D01*
X110114Y7245D01*
X110165Y7304D01*
X110212Y7364D01*
X110256Y7427D01*
X110297Y7492D01*
X110335Y7559D01*
X110370Y7627D01*
X110401Y7698D01*
X110428Y7769D01*
X110453Y7842D01*
X110473Y7916D01*
X110490Y7991D01*
X110503Y8067D01*
X110512Y8144D01*
X110518Y8220D01*
X110520Y8297D01*
X110521Y8297D02*
X110521Y11430D01*
X110520Y11430D02*
X110518Y11507D01*
X110512Y11583D01*
X110503Y11660D01*
X110490Y11736D01*
X110473Y11811D01*
X110453Y11885D01*
X110428Y11958D01*
X110401Y12029D01*
X110370Y12100D01*
X110335Y12168D01*
X110297Y12235D01*
X110256Y12300D01*
X110212Y12363D01*
X110165Y12423D01*
X110114Y12482D01*
X110061Y12537D01*
X110006Y12590D01*
X109947Y12641D01*
X109887Y12688D01*
X109824Y12732D01*
X109759Y12773D01*
X109692Y12811D01*
X109624Y12846D01*
X109553Y12877D01*
X109482Y12904D01*
X109409Y12929D01*
X109335Y12949D01*
X109260Y12966D01*
X109184Y12979D01*
X109107Y12988D01*
X109031Y12994D01*
X108954Y12996D01*
X106344Y12996D01*
X100679Y6731D02*
X98069Y6731D01*
X100679Y6731D02*
X100756Y6733D01*
X100832Y6739D01*
X100909Y6748D01*
X100985Y6761D01*
X101060Y6778D01*
X101134Y6798D01*
X101207Y6823D01*
X101278Y6850D01*
X101349Y6881D01*
X101417Y6916D01*
X101484Y6954D01*
X101549Y6995D01*
X101612Y7039D01*
X101672Y7086D01*
X101731Y7137D01*
X101786Y7190D01*
X101839Y7245D01*
X101890Y7304D01*
X101937Y7364D01*
X101981Y7427D01*
X102022Y7492D01*
X102060Y7559D01*
X102095Y7627D01*
X102126Y7698D01*
X102153Y7769D01*
X102178Y7842D01*
X102198Y7916D01*
X102215Y7991D01*
X102228Y8067D01*
X102237Y8144D01*
X102243Y8220D01*
X102245Y8297D01*
X102245Y10908D01*
X102243Y10998D01*
X102237Y11087D01*
X102228Y11177D01*
X102214Y11266D01*
X102197Y11354D01*
X102176Y11441D01*
X102151Y11528D01*
X102122Y11613D01*
X102090Y11697D01*
X102055Y11779D01*
X102015Y11860D01*
X101973Y11939D01*
X101927Y12016D01*
X101877Y12091D01*
X101825Y12164D01*
X101769Y12235D01*
X101711Y12303D01*
X101649Y12368D01*
X101585Y12431D01*
X101518Y12491D01*
X101449Y12548D01*
X101377Y12602D01*
X101303Y12653D01*
X101227Y12701D01*
X101149Y12745D01*
X101069Y12786D01*
X100987Y12824D01*
X100904Y12858D01*
X100819Y12888D01*
X100733Y12915D01*
X100647Y12938D01*
X100559Y12957D01*
X100470Y12972D01*
X100381Y12984D01*
X100292Y12992D01*
X100202Y12996D01*
X100112Y12996D01*
X100022Y12992D01*
X99933Y12984D01*
X99844Y12972D01*
X99755Y12957D01*
X99667Y12938D01*
X99581Y12915D01*
X99495Y12888D01*
X99410Y12858D01*
X99327Y12824D01*
X99245Y12786D01*
X99165Y12745D01*
X99087Y12701D01*
X99011Y12653D01*
X98937Y12602D01*
X98865Y12548D01*
X98796Y12491D01*
X98729Y12431D01*
X98665Y12368D01*
X98603Y12303D01*
X98545Y12235D01*
X98489Y12164D01*
X98437Y12091D01*
X98387Y12016D01*
X98341Y11939D01*
X98299Y11860D01*
X98259Y11779D01*
X98224Y11697D01*
X98192Y11613D01*
X98163Y11528D01*
X98138Y11441D01*
X98117Y11354D01*
X98100Y11266D01*
X98086Y11177D01*
X98077Y11087D01*
X98071Y10998D01*
X98069Y10908D01*
X98069Y9864D01*
X102245Y9864D01*
D11*
X13970Y13970D03*
D12*
X13970Y39370D03*
X13970Y64770D03*
X13970Y90170D03*
X116840Y82550D03*
X116840Y57150D03*
M02*
