G04 EAGLE Gerber RS-274X export*
G75*
%MOMM*%
%FSLAX34Y34*%
%LPD*%
%INSilkscreen Top*%
%IPPOS*%
%AMOC8*
5,1,8,0,0,1.08239X$1,22.5*%
G01*
%ADD10C,0.025400*%
%ADD11C,0.203200*%
%ADD12C,0.050800*%
%ADD13C,0.127000*%


D10*
X46349Y14449D02*
X45750Y15048D01*
X45750Y15047D02*
X45712Y15088D01*
X45677Y15130D01*
X45645Y15175D01*
X45615Y15223D01*
X45589Y15271D01*
X45566Y15322D01*
X45547Y15374D01*
X45531Y15427D01*
X45518Y15481D01*
X45509Y15535D01*
X45504Y15591D01*
X45502Y15646D01*
X45504Y15701D01*
X45509Y15757D01*
X45518Y15811D01*
X45531Y15865D01*
X45547Y15918D01*
X45566Y15970D01*
X45589Y16021D01*
X45615Y16070D01*
X45645Y16117D01*
X45677Y16162D01*
X45712Y16204D01*
X45750Y16245D01*
X47247Y17742D01*
X47288Y17780D01*
X47330Y17815D01*
X47375Y17847D01*
X47423Y17877D01*
X47471Y17903D01*
X47522Y17926D01*
X47574Y17945D01*
X47627Y17961D01*
X47681Y17974D01*
X47735Y17983D01*
X47791Y17988D01*
X47846Y17990D01*
X47901Y17988D01*
X47957Y17983D01*
X48011Y17974D01*
X48065Y17961D01*
X48118Y17945D01*
X48170Y17926D01*
X48221Y17903D01*
X48270Y17877D01*
X48317Y17847D01*
X48362Y17815D01*
X48404Y17780D01*
X48445Y17742D01*
X48444Y17742D02*
X49043Y17143D01*
X49409Y15580D02*
X50756Y15430D01*
X48062Y12736D01*
X48810Y11988D02*
X47313Y13484D01*
D11*
X1270Y83820D02*
X1270Y96520D01*
X7620Y102870D01*
X20320Y102870D02*
X26670Y96520D01*
X1270Y58420D02*
X7620Y52070D01*
X1270Y58420D02*
X1270Y71120D01*
X7620Y77470D01*
X20320Y77470D02*
X26670Y71120D01*
X26670Y58420D01*
X20320Y52070D01*
X7620Y77470D02*
X1270Y83820D01*
X20320Y77470D02*
X26670Y83820D01*
X26670Y96520D01*
X1270Y20320D02*
X1270Y7620D01*
X1270Y20320D02*
X7620Y26670D01*
X20320Y26670D02*
X26670Y20320D01*
X7620Y26670D02*
X1270Y33020D01*
X1270Y45720D01*
X7620Y52070D01*
X20320Y52070D02*
X26670Y45720D01*
X26670Y33020D01*
X20320Y26670D01*
X20320Y1270D02*
X7620Y1270D01*
X1270Y7620D01*
X20320Y1270D02*
X26670Y7620D01*
X26670Y20320D01*
X20320Y102870D02*
X7620Y102870D01*
D12*
X-1552Y26077D02*
X-4318Y26077D01*
X-1552Y26077D02*
X-1498Y26075D01*
X-1444Y26070D01*
X-1391Y26060D01*
X-1339Y26048D01*
X-1287Y26031D01*
X-1237Y26012D01*
X-1189Y25988D01*
X-1142Y25962D01*
X-1096Y25932D01*
X-1053Y25900D01*
X-1013Y25864D01*
X-975Y25826D01*
X-939Y25786D01*
X-907Y25743D01*
X-877Y25697D01*
X-851Y25650D01*
X-827Y25602D01*
X-808Y25552D01*
X-791Y25500D01*
X-779Y25448D01*
X-769Y25395D01*
X-764Y25341D01*
X-762Y25287D01*
X-762Y24892D01*
X-3528Y27862D02*
X-4318Y28850D01*
X-762Y28850D01*
X-762Y27862D02*
X-762Y29838D01*
D11*
X138430Y76200D02*
X138430Y88900D01*
X138430Y76200D02*
X132080Y69850D01*
X119380Y69850D02*
X113030Y76200D01*
X132080Y69850D02*
X138430Y63500D01*
X138430Y50800D01*
X132080Y44450D01*
X119380Y44450D02*
X113030Y50800D01*
X113030Y63500D01*
X119380Y69850D01*
X119380Y95250D02*
X132080Y95250D01*
X138430Y88900D01*
X119380Y95250D02*
X113030Y88900D01*
X113030Y76200D01*
X119380Y44450D02*
X132080Y44450D01*
D12*
X127988Y36118D02*
X125222Y36118D01*
X127988Y36117D02*
X128042Y36115D01*
X128096Y36110D01*
X128149Y36100D01*
X128201Y36088D01*
X128253Y36071D01*
X128303Y36052D01*
X128351Y36028D01*
X128398Y36002D01*
X128444Y35972D01*
X128487Y35940D01*
X128527Y35904D01*
X128565Y35866D01*
X128601Y35826D01*
X128633Y35783D01*
X128663Y35737D01*
X128689Y35690D01*
X128713Y35642D01*
X128732Y35592D01*
X128749Y35540D01*
X128761Y35488D01*
X128771Y35435D01*
X128776Y35381D01*
X128778Y35327D01*
X128778Y34932D01*
X125222Y38989D02*
X125224Y39047D01*
X125230Y39105D01*
X125239Y39162D01*
X125252Y39219D01*
X125269Y39275D01*
X125290Y39329D01*
X125314Y39382D01*
X125341Y39434D01*
X125372Y39483D01*
X125406Y39530D01*
X125443Y39575D01*
X125482Y39618D01*
X125525Y39657D01*
X125570Y39694D01*
X125617Y39728D01*
X125667Y39759D01*
X125718Y39786D01*
X125771Y39810D01*
X125825Y39831D01*
X125881Y39848D01*
X125938Y39861D01*
X125995Y39870D01*
X126053Y39876D01*
X126111Y39878D01*
X125222Y38989D02*
X125224Y38924D01*
X125229Y38859D01*
X125239Y38794D01*
X125252Y38730D01*
X125268Y38667D01*
X125289Y38605D01*
X125312Y38544D01*
X125339Y38485D01*
X125370Y38427D01*
X125404Y38371D01*
X125440Y38317D01*
X125480Y38266D01*
X125523Y38216D01*
X125569Y38170D01*
X125617Y38125D01*
X125667Y38084D01*
X125720Y38046D01*
X125775Y38011D01*
X125832Y37979D01*
X125891Y37950D01*
X125951Y37924D01*
X126012Y37903D01*
X126803Y39582D02*
X126760Y39623D01*
X126715Y39662D01*
X126668Y39699D01*
X126619Y39732D01*
X126567Y39762D01*
X126514Y39789D01*
X126460Y39812D01*
X126404Y39832D01*
X126346Y39849D01*
X126288Y39861D01*
X126230Y39871D01*
X126170Y39876D01*
X126111Y39878D01*
X126802Y39582D02*
X128778Y37902D01*
X128778Y39878D01*
D13*
X70080Y24645D02*
X34725Y60000D01*
X63009Y88284D01*
X70080Y95355D01*
X77151Y88284D01*
X105435Y60000D01*
X70080Y24645D01*
X77151Y88284D02*
X63009Y88284D01*
X66927Y99754D02*
X66929Y99829D01*
X66935Y99903D01*
X66945Y99977D01*
X66958Y100050D01*
X66976Y100123D01*
X66997Y100194D01*
X67022Y100265D01*
X67051Y100334D01*
X67084Y100401D01*
X67120Y100466D01*
X67159Y100530D01*
X67201Y100591D01*
X67247Y100650D01*
X67296Y100707D01*
X67348Y100760D01*
X67402Y100811D01*
X67459Y100860D01*
X67519Y100904D01*
X67581Y100946D01*
X67645Y100985D01*
X67711Y101020D01*
X67778Y101051D01*
X67848Y101079D01*
X67918Y101103D01*
X67990Y101124D01*
X68063Y101140D01*
X68136Y101153D01*
X68211Y101162D01*
X68285Y101167D01*
X68360Y101168D01*
X68434Y101165D01*
X68509Y101158D01*
X68582Y101147D01*
X68656Y101133D01*
X68728Y101114D01*
X68799Y101092D01*
X68869Y101066D01*
X68938Y101036D01*
X69004Y101003D01*
X69069Y100966D01*
X69132Y100926D01*
X69193Y100882D01*
X69251Y100836D01*
X69307Y100786D01*
X69360Y100734D01*
X69411Y100679D01*
X69458Y100621D01*
X69502Y100561D01*
X69543Y100498D01*
X69581Y100434D01*
X69615Y100368D01*
X69646Y100299D01*
X69673Y100230D01*
X69696Y100159D01*
X69715Y100087D01*
X69731Y100014D01*
X69743Y99940D01*
X69751Y99866D01*
X69755Y99791D01*
X69755Y99717D01*
X69751Y99642D01*
X69743Y99568D01*
X69731Y99494D01*
X69715Y99421D01*
X69696Y99349D01*
X69673Y99278D01*
X69646Y99209D01*
X69615Y99140D01*
X69581Y99074D01*
X69543Y99010D01*
X69502Y98947D01*
X69458Y98887D01*
X69411Y98829D01*
X69360Y98774D01*
X69307Y98722D01*
X69251Y98672D01*
X69193Y98626D01*
X69132Y98582D01*
X69069Y98542D01*
X69004Y98505D01*
X68938Y98472D01*
X68869Y98442D01*
X68799Y98416D01*
X68728Y98394D01*
X68656Y98375D01*
X68582Y98361D01*
X68509Y98350D01*
X68434Y98343D01*
X68360Y98340D01*
X68285Y98341D01*
X68211Y98346D01*
X68136Y98355D01*
X68063Y98368D01*
X67990Y98384D01*
X67918Y98405D01*
X67848Y98429D01*
X67778Y98457D01*
X67711Y98488D01*
X67645Y98523D01*
X67581Y98562D01*
X67519Y98604D01*
X67459Y98648D01*
X67402Y98697D01*
X67348Y98748D01*
X67296Y98801D01*
X67247Y98858D01*
X67201Y98917D01*
X67159Y98978D01*
X67120Y99042D01*
X67084Y99107D01*
X67051Y99174D01*
X67022Y99243D01*
X66997Y99314D01*
X66976Y99385D01*
X66958Y99458D01*
X66945Y99531D01*
X66935Y99605D01*
X66929Y99679D01*
X66927Y99754D01*
X49080Y60000D02*
X49086Y60515D01*
X49105Y61030D01*
X49137Y61545D01*
X49181Y62058D01*
X49238Y62571D01*
X49307Y63081D01*
X49389Y63590D01*
X49484Y64097D01*
X49590Y64601D01*
X49709Y65103D01*
X49841Y65601D01*
X49984Y66096D01*
X50140Y66587D01*
X50308Y67075D01*
X50487Y67558D01*
X50679Y68036D01*
X50882Y68510D01*
X51096Y68979D01*
X51322Y69442D01*
X51560Y69899D01*
X51808Y70351D01*
X52068Y70796D01*
X52338Y71235D01*
X52619Y71667D01*
X52911Y72092D01*
X53213Y72510D01*
X53525Y72920D01*
X53847Y73322D01*
X54179Y73717D01*
X54520Y74103D01*
X54871Y74480D01*
X55231Y74849D01*
X55600Y75209D01*
X55977Y75560D01*
X56363Y75901D01*
X56758Y76233D01*
X57160Y76555D01*
X57570Y76867D01*
X57988Y77169D01*
X58413Y77461D01*
X58845Y77742D01*
X59284Y78012D01*
X59729Y78272D01*
X60181Y78520D01*
X60638Y78758D01*
X61101Y78984D01*
X61570Y79198D01*
X62044Y79401D01*
X62522Y79593D01*
X63005Y79772D01*
X63493Y79940D01*
X63984Y80096D01*
X64479Y80239D01*
X64977Y80371D01*
X65479Y80490D01*
X65983Y80596D01*
X66490Y80691D01*
X66999Y80773D01*
X67509Y80842D01*
X68022Y80899D01*
X68535Y80943D01*
X69050Y80975D01*
X69565Y80994D01*
X70080Y81000D01*
X70595Y80994D01*
X71110Y80975D01*
X71625Y80943D01*
X72138Y80899D01*
X72651Y80842D01*
X73161Y80773D01*
X73670Y80691D01*
X74177Y80596D01*
X74681Y80490D01*
X75183Y80371D01*
X75681Y80239D01*
X76176Y80096D01*
X76667Y79940D01*
X77155Y79772D01*
X77638Y79593D01*
X78116Y79401D01*
X78590Y79198D01*
X79059Y78984D01*
X79522Y78758D01*
X79979Y78520D01*
X80431Y78272D01*
X80876Y78012D01*
X81315Y77742D01*
X81747Y77461D01*
X82172Y77169D01*
X82590Y76867D01*
X83000Y76555D01*
X83402Y76233D01*
X83797Y75901D01*
X84183Y75560D01*
X84560Y75209D01*
X84929Y74849D01*
X85289Y74480D01*
X85640Y74103D01*
X85981Y73717D01*
X86313Y73322D01*
X86635Y72920D01*
X86947Y72510D01*
X87249Y72092D01*
X87541Y71667D01*
X87822Y71235D01*
X88092Y70796D01*
X88352Y70351D01*
X88600Y69899D01*
X88838Y69442D01*
X89064Y68979D01*
X89278Y68510D01*
X89481Y68036D01*
X89673Y67558D01*
X89852Y67075D01*
X90020Y66587D01*
X90176Y66096D01*
X90319Y65601D01*
X90451Y65103D01*
X90570Y64601D01*
X90676Y64097D01*
X90771Y63590D01*
X90853Y63081D01*
X90922Y62571D01*
X90979Y62058D01*
X91023Y61545D01*
X91055Y61030D01*
X91074Y60515D01*
X91080Y60000D01*
X91074Y59485D01*
X91055Y58970D01*
X91023Y58455D01*
X90979Y57942D01*
X90922Y57429D01*
X90853Y56919D01*
X90771Y56410D01*
X90676Y55903D01*
X90570Y55399D01*
X90451Y54897D01*
X90319Y54399D01*
X90176Y53904D01*
X90020Y53413D01*
X89852Y52925D01*
X89673Y52442D01*
X89481Y51964D01*
X89278Y51490D01*
X89064Y51021D01*
X88838Y50558D01*
X88600Y50101D01*
X88352Y49649D01*
X88092Y49204D01*
X87822Y48765D01*
X87541Y48333D01*
X87249Y47908D01*
X86947Y47490D01*
X86635Y47080D01*
X86313Y46678D01*
X85981Y46283D01*
X85640Y45897D01*
X85289Y45520D01*
X84929Y45151D01*
X84560Y44791D01*
X84183Y44440D01*
X83797Y44099D01*
X83402Y43767D01*
X83000Y43445D01*
X82590Y43133D01*
X82172Y42831D01*
X81747Y42539D01*
X81315Y42258D01*
X80876Y41988D01*
X80431Y41728D01*
X79979Y41480D01*
X79522Y41242D01*
X79059Y41016D01*
X78590Y40802D01*
X78116Y40599D01*
X77638Y40407D01*
X77155Y40228D01*
X76667Y40060D01*
X76176Y39904D01*
X75681Y39761D01*
X75183Y39629D01*
X74681Y39510D01*
X74177Y39404D01*
X73670Y39309D01*
X73161Y39227D01*
X72651Y39158D01*
X72138Y39101D01*
X71625Y39057D01*
X71110Y39025D01*
X70595Y39006D01*
X70080Y39000D01*
X69565Y39006D01*
X69050Y39025D01*
X68535Y39057D01*
X68022Y39101D01*
X67509Y39158D01*
X66999Y39227D01*
X66490Y39309D01*
X65983Y39404D01*
X65479Y39510D01*
X64977Y39629D01*
X64479Y39761D01*
X63984Y39904D01*
X63493Y40060D01*
X63005Y40228D01*
X62522Y40407D01*
X62044Y40599D01*
X61570Y40802D01*
X61101Y41016D01*
X60638Y41242D01*
X60181Y41480D01*
X59729Y41728D01*
X59284Y41988D01*
X58845Y42258D01*
X58413Y42539D01*
X57988Y42831D01*
X57570Y43133D01*
X57160Y43445D01*
X56758Y43767D01*
X56363Y44099D01*
X55977Y44440D01*
X55600Y44791D01*
X55231Y45151D01*
X54871Y45520D01*
X54520Y45897D01*
X54179Y46283D01*
X53847Y46678D01*
X53525Y47080D01*
X53213Y47490D01*
X52911Y47908D01*
X52619Y48333D01*
X52338Y48765D01*
X52068Y49204D01*
X51808Y49649D01*
X51560Y50101D01*
X51322Y50558D01*
X51096Y51021D01*
X50882Y51490D01*
X50679Y51964D01*
X50487Y52442D01*
X50308Y52925D01*
X50140Y53413D01*
X49984Y53904D01*
X49841Y54399D01*
X49709Y54897D01*
X49590Y55399D01*
X49484Y55903D01*
X49389Y56410D01*
X49307Y56919D01*
X49238Y57429D01*
X49181Y57942D01*
X49137Y58455D01*
X49105Y58970D01*
X49086Y59485D01*
X49080Y60000D01*
D10*
X88527Y84858D02*
X90473Y86804D01*
X88527Y84857D02*
X88483Y84811D01*
X88442Y84761D01*
X88404Y84710D01*
X88370Y84656D01*
X88338Y84601D01*
X88310Y84543D01*
X88286Y84484D01*
X88265Y84424D01*
X88248Y84362D01*
X88234Y84300D01*
X88225Y84237D01*
X88219Y84173D01*
X88217Y84109D01*
X88219Y84045D01*
X88225Y83981D01*
X88234Y83918D01*
X88248Y83856D01*
X88265Y83794D01*
X88286Y83734D01*
X88310Y83675D01*
X88338Y83617D01*
X88370Y83562D01*
X88404Y83508D01*
X88442Y83457D01*
X88483Y83407D01*
X88527Y83361D01*
X88573Y83317D01*
X88623Y83276D01*
X88674Y83238D01*
X88728Y83204D01*
X88783Y83172D01*
X88841Y83144D01*
X88900Y83120D01*
X88960Y83099D01*
X89022Y83082D01*
X89084Y83068D01*
X89147Y83059D01*
X89211Y83053D01*
X89275Y83051D01*
X89339Y83053D01*
X89403Y83059D01*
X89466Y83068D01*
X89528Y83082D01*
X89590Y83099D01*
X89650Y83120D01*
X89709Y83144D01*
X89767Y83172D01*
X89822Y83204D01*
X89876Y83238D01*
X89928Y83276D01*
X89977Y83317D01*
X90023Y83361D01*
X90024Y83361D02*
X91970Y85307D01*
X93721Y83555D02*
X91027Y80861D01*
X92374Y82208D02*
X92225Y82807D01*
X92215Y82855D01*
X92208Y82904D01*
X92206Y82953D01*
X92207Y83003D01*
X92213Y83052D01*
X92222Y83100D01*
X92235Y83148D01*
X92251Y83194D01*
X92271Y83239D01*
X92295Y83283D01*
X92321Y83324D01*
X92351Y83363D01*
X92384Y83400D01*
X92420Y83434D01*
X92458Y83465D01*
X92499Y83493D01*
X92541Y83518D01*
X92586Y83540D01*
X92632Y83557D01*
X92679Y83572D01*
X92727Y83582D01*
X92776Y83589D01*
X92825Y83592D01*
X92875Y83591D01*
X92924Y83586D01*
X92972Y83578D01*
X93020Y83565D01*
X93067Y83549D01*
X93112Y83529D01*
X93156Y83506D01*
X93197Y83480D01*
X93197Y83481D02*
X93263Y83433D01*
X93325Y83383D01*
X93386Y83329D01*
X93443Y83273D01*
X93498Y83214D01*
X93550Y83152D01*
X93599Y83088D01*
X93645Y83022D01*
X93688Y82954D01*
X93727Y82883D01*
X93763Y82811D01*
X93796Y82737D01*
X93824Y82662D01*
X93849Y82586D01*
X93871Y82508D01*
X92374Y82208D02*
X92524Y81609D01*
X92523Y81609D02*
X92533Y81561D01*
X92540Y81512D01*
X92542Y81463D01*
X92541Y81413D01*
X92535Y81364D01*
X92526Y81316D01*
X92513Y81268D01*
X92497Y81222D01*
X92477Y81177D01*
X92453Y81133D01*
X92427Y81092D01*
X92397Y81053D01*
X92364Y81016D01*
X92328Y80982D01*
X92290Y80951D01*
X92249Y80923D01*
X92207Y80898D01*
X92162Y80876D01*
X92116Y80859D01*
X92069Y80844D01*
X92021Y80834D01*
X91972Y80827D01*
X91923Y80824D01*
X91873Y80825D01*
X91824Y80830D01*
X91776Y80838D01*
X91728Y80851D01*
X91681Y80867D01*
X91636Y80887D01*
X91592Y80910D01*
X91551Y80936D01*
X91551Y80935D02*
X91485Y80983D01*
X91423Y81033D01*
X91362Y81087D01*
X91304Y81143D01*
X91250Y81202D01*
X91198Y81264D01*
X91148Y81328D01*
X91103Y81394D01*
X91060Y81462D01*
X91021Y81533D01*
X90985Y81605D01*
X90952Y81679D01*
X90924Y81754D01*
X90898Y81831D01*
X90877Y81908D01*
X94788Y81291D02*
X96135Y81141D01*
X93441Y78447D01*
X94189Y77699D02*
X92693Y79196D01*
M02*
