G04 EAGLE Gerber RS-274X export*
G75*
%MOMM*%
%FSLAX34Y34*%
%LPD*%
%INSilkscreen Top*%
%IPPOS*%
%AMOC8*
5,1,8,0,0,1.08239X$1,22.5*%
G01*
%ADD10C,0.025400*%
%ADD11C,0.203200*%
%ADD12C,0.050800*%
%ADD13C,0.127000*%


D10*
X88942Y16523D02*
X88096Y16523D01*
X88041Y16525D01*
X87985Y16530D01*
X87931Y16539D01*
X87877Y16552D01*
X87824Y16568D01*
X87772Y16587D01*
X87721Y16610D01*
X87673Y16636D01*
X87625Y16666D01*
X87580Y16698D01*
X87538Y16733D01*
X87497Y16771D01*
X87459Y16812D01*
X87424Y16854D01*
X87392Y16899D01*
X87362Y16947D01*
X87336Y16995D01*
X87313Y17046D01*
X87294Y17098D01*
X87278Y17151D01*
X87265Y17205D01*
X87256Y17259D01*
X87251Y17315D01*
X87249Y17370D01*
X87249Y19486D01*
X87251Y19544D01*
X87257Y19601D01*
X87267Y19658D01*
X87280Y19715D01*
X87298Y19770D01*
X87319Y19823D01*
X87344Y19876D01*
X87372Y19926D01*
X87404Y19974D01*
X87439Y20021D01*
X87477Y20064D01*
X87518Y20105D01*
X87561Y20143D01*
X87608Y20178D01*
X87656Y20210D01*
X87706Y20238D01*
X87759Y20263D01*
X87812Y20284D01*
X87867Y20302D01*
X87924Y20315D01*
X87981Y20325D01*
X88038Y20331D01*
X88096Y20333D01*
X88942Y20333D01*
X90306Y19486D02*
X91365Y20333D01*
X91365Y16523D01*
X92423Y16523D02*
X90306Y16523D01*
D11*
X8890Y90170D02*
X8890Y102870D01*
X15240Y109220D01*
X27940Y109220D02*
X34290Y102870D01*
X8890Y64770D02*
X15240Y58420D01*
X8890Y64770D02*
X8890Y77470D01*
X15240Y83820D01*
X27940Y83820D02*
X34290Y77470D01*
X34290Y64770D01*
X27940Y58420D01*
X15240Y83820D02*
X8890Y90170D01*
X27940Y83820D02*
X34290Y90170D01*
X34290Y102870D01*
X8890Y26670D02*
X8890Y13970D01*
X8890Y26670D02*
X15240Y33020D01*
X27940Y33020D02*
X34290Y26670D01*
X15240Y33020D02*
X8890Y39370D01*
X8890Y52070D01*
X15240Y58420D01*
X27940Y58420D02*
X34290Y52070D01*
X34290Y39370D01*
X27940Y33020D01*
X27940Y7620D02*
X15240Y7620D01*
X8890Y13970D01*
X27940Y7620D02*
X34290Y13970D01*
X34290Y26670D01*
X27940Y109220D02*
X15240Y109220D01*
D12*
X6068Y32427D02*
X3302Y32427D01*
X6068Y32427D02*
X6122Y32425D01*
X6176Y32420D01*
X6229Y32410D01*
X6281Y32398D01*
X6333Y32381D01*
X6383Y32362D01*
X6431Y32338D01*
X6478Y32312D01*
X6524Y32282D01*
X6567Y32250D01*
X6607Y32214D01*
X6645Y32176D01*
X6681Y32136D01*
X6713Y32093D01*
X6743Y32047D01*
X6769Y32000D01*
X6793Y31952D01*
X6812Y31902D01*
X6829Y31850D01*
X6841Y31798D01*
X6851Y31745D01*
X6856Y31691D01*
X6858Y31637D01*
X6858Y31242D01*
X4092Y34212D02*
X3302Y35200D01*
X6858Y35200D01*
X6858Y34212D02*
X6858Y36188D01*
D11*
X137160Y82550D02*
X137160Y95250D01*
X137160Y82550D02*
X130810Y76200D01*
X118110Y76200D02*
X111760Y82550D01*
X130810Y76200D02*
X137160Y69850D01*
X137160Y57150D01*
X130810Y50800D01*
X118110Y50800D02*
X111760Y57150D01*
X111760Y69850D01*
X118110Y76200D01*
X118110Y101600D02*
X130810Y101600D01*
X137160Y95250D01*
X118110Y101600D02*
X111760Y95250D01*
X111760Y82550D01*
X118110Y50800D02*
X130810Y50800D01*
D12*
X126718Y42468D02*
X123952Y42468D01*
X126718Y42467D02*
X126772Y42465D01*
X126826Y42460D01*
X126879Y42450D01*
X126931Y42438D01*
X126983Y42421D01*
X127033Y42402D01*
X127081Y42378D01*
X127128Y42352D01*
X127174Y42322D01*
X127217Y42290D01*
X127257Y42254D01*
X127295Y42216D01*
X127331Y42176D01*
X127363Y42133D01*
X127393Y42087D01*
X127419Y42040D01*
X127443Y41992D01*
X127462Y41942D01*
X127479Y41890D01*
X127491Y41838D01*
X127501Y41785D01*
X127506Y41731D01*
X127508Y41677D01*
X127508Y41282D01*
X123952Y45339D02*
X123954Y45397D01*
X123960Y45455D01*
X123969Y45512D01*
X123982Y45569D01*
X123999Y45625D01*
X124020Y45679D01*
X124044Y45732D01*
X124071Y45784D01*
X124102Y45833D01*
X124136Y45880D01*
X124173Y45925D01*
X124212Y45968D01*
X124255Y46007D01*
X124300Y46044D01*
X124347Y46078D01*
X124397Y46109D01*
X124448Y46136D01*
X124501Y46160D01*
X124555Y46181D01*
X124611Y46198D01*
X124668Y46211D01*
X124725Y46220D01*
X124783Y46226D01*
X124841Y46228D01*
X123952Y45339D02*
X123954Y45274D01*
X123959Y45209D01*
X123969Y45144D01*
X123982Y45080D01*
X123998Y45017D01*
X124019Y44955D01*
X124042Y44894D01*
X124069Y44835D01*
X124100Y44777D01*
X124134Y44721D01*
X124170Y44667D01*
X124210Y44616D01*
X124253Y44566D01*
X124299Y44520D01*
X124347Y44475D01*
X124397Y44434D01*
X124450Y44396D01*
X124505Y44361D01*
X124562Y44329D01*
X124621Y44300D01*
X124681Y44274D01*
X124742Y44253D01*
X125533Y45932D02*
X125490Y45973D01*
X125445Y46012D01*
X125398Y46049D01*
X125349Y46082D01*
X125297Y46112D01*
X125244Y46139D01*
X125190Y46162D01*
X125134Y46182D01*
X125076Y46199D01*
X125018Y46211D01*
X124960Y46221D01*
X124900Y46226D01*
X124841Y46228D01*
X125532Y45932D02*
X127508Y44252D01*
X127508Y46228D01*
D13*
X97390Y41040D02*
X47390Y41040D01*
X47390Y81040D01*
X47390Y91040D01*
X57390Y91040D01*
X97390Y91040D01*
X97390Y41040D01*
X57390Y91040D02*
X47390Y81040D01*
X41636Y92920D02*
X41638Y92995D01*
X41644Y93069D01*
X41654Y93143D01*
X41667Y93216D01*
X41685Y93289D01*
X41706Y93360D01*
X41731Y93431D01*
X41760Y93500D01*
X41793Y93567D01*
X41829Y93632D01*
X41868Y93696D01*
X41910Y93757D01*
X41956Y93816D01*
X42005Y93873D01*
X42057Y93926D01*
X42111Y93977D01*
X42168Y94026D01*
X42228Y94070D01*
X42290Y94112D01*
X42354Y94151D01*
X42420Y94186D01*
X42487Y94217D01*
X42557Y94245D01*
X42627Y94269D01*
X42699Y94290D01*
X42772Y94306D01*
X42845Y94319D01*
X42920Y94328D01*
X42994Y94333D01*
X43069Y94334D01*
X43143Y94331D01*
X43218Y94324D01*
X43291Y94313D01*
X43365Y94299D01*
X43437Y94280D01*
X43508Y94258D01*
X43578Y94232D01*
X43647Y94202D01*
X43713Y94169D01*
X43778Y94132D01*
X43841Y94092D01*
X43902Y94048D01*
X43960Y94002D01*
X44016Y93952D01*
X44069Y93900D01*
X44120Y93845D01*
X44167Y93787D01*
X44211Y93727D01*
X44252Y93664D01*
X44290Y93600D01*
X44324Y93534D01*
X44355Y93465D01*
X44382Y93396D01*
X44405Y93325D01*
X44424Y93253D01*
X44440Y93180D01*
X44452Y93106D01*
X44460Y93032D01*
X44464Y92957D01*
X44464Y92883D01*
X44460Y92808D01*
X44452Y92734D01*
X44440Y92660D01*
X44424Y92587D01*
X44405Y92515D01*
X44382Y92444D01*
X44355Y92375D01*
X44324Y92306D01*
X44290Y92240D01*
X44252Y92176D01*
X44211Y92113D01*
X44167Y92053D01*
X44120Y91995D01*
X44069Y91940D01*
X44016Y91888D01*
X43960Y91838D01*
X43902Y91792D01*
X43841Y91748D01*
X43778Y91708D01*
X43713Y91671D01*
X43647Y91638D01*
X43578Y91608D01*
X43508Y91582D01*
X43437Y91560D01*
X43365Y91541D01*
X43291Y91527D01*
X43218Y91516D01*
X43143Y91509D01*
X43069Y91506D01*
X42994Y91507D01*
X42920Y91512D01*
X42845Y91521D01*
X42772Y91534D01*
X42699Y91550D01*
X42627Y91571D01*
X42557Y91595D01*
X42487Y91623D01*
X42420Y91654D01*
X42354Y91689D01*
X42290Y91728D01*
X42228Y91770D01*
X42168Y91814D01*
X42111Y91863D01*
X42057Y91914D01*
X42005Y91967D01*
X41956Y92024D01*
X41910Y92083D01*
X41868Y92144D01*
X41829Y92208D01*
X41793Y92273D01*
X41760Y92340D01*
X41731Y92409D01*
X41706Y92480D01*
X41685Y92551D01*
X41667Y92624D01*
X41654Y92697D01*
X41644Y92771D01*
X41638Y92845D01*
X41636Y92920D01*
X51390Y66040D02*
X51396Y66555D01*
X51415Y67070D01*
X51447Y67585D01*
X51491Y68098D01*
X51548Y68611D01*
X51617Y69121D01*
X51699Y69630D01*
X51794Y70137D01*
X51900Y70641D01*
X52019Y71143D01*
X52151Y71641D01*
X52294Y72136D01*
X52450Y72627D01*
X52618Y73115D01*
X52797Y73598D01*
X52989Y74076D01*
X53192Y74550D01*
X53406Y75019D01*
X53632Y75482D01*
X53870Y75939D01*
X54118Y76391D01*
X54378Y76836D01*
X54648Y77275D01*
X54929Y77707D01*
X55221Y78132D01*
X55523Y78550D01*
X55835Y78960D01*
X56157Y79362D01*
X56489Y79757D01*
X56830Y80143D01*
X57181Y80520D01*
X57541Y80889D01*
X57910Y81249D01*
X58287Y81600D01*
X58673Y81941D01*
X59068Y82273D01*
X59470Y82595D01*
X59880Y82907D01*
X60298Y83209D01*
X60723Y83501D01*
X61155Y83782D01*
X61594Y84052D01*
X62039Y84312D01*
X62491Y84560D01*
X62948Y84798D01*
X63411Y85024D01*
X63880Y85238D01*
X64354Y85441D01*
X64832Y85633D01*
X65315Y85812D01*
X65803Y85980D01*
X66294Y86136D01*
X66789Y86279D01*
X67287Y86411D01*
X67789Y86530D01*
X68293Y86636D01*
X68800Y86731D01*
X69309Y86813D01*
X69819Y86882D01*
X70332Y86939D01*
X70845Y86983D01*
X71360Y87015D01*
X71875Y87034D01*
X72390Y87040D01*
X72905Y87034D01*
X73420Y87015D01*
X73935Y86983D01*
X74448Y86939D01*
X74961Y86882D01*
X75471Y86813D01*
X75980Y86731D01*
X76487Y86636D01*
X76991Y86530D01*
X77493Y86411D01*
X77991Y86279D01*
X78486Y86136D01*
X78977Y85980D01*
X79465Y85812D01*
X79948Y85633D01*
X80426Y85441D01*
X80900Y85238D01*
X81369Y85024D01*
X81832Y84798D01*
X82289Y84560D01*
X82741Y84312D01*
X83186Y84052D01*
X83625Y83782D01*
X84057Y83501D01*
X84482Y83209D01*
X84900Y82907D01*
X85310Y82595D01*
X85712Y82273D01*
X86107Y81941D01*
X86493Y81600D01*
X86870Y81249D01*
X87239Y80889D01*
X87599Y80520D01*
X87950Y80143D01*
X88291Y79757D01*
X88623Y79362D01*
X88945Y78960D01*
X89257Y78550D01*
X89559Y78132D01*
X89851Y77707D01*
X90132Y77275D01*
X90402Y76836D01*
X90662Y76391D01*
X90910Y75939D01*
X91148Y75482D01*
X91374Y75019D01*
X91588Y74550D01*
X91791Y74076D01*
X91983Y73598D01*
X92162Y73115D01*
X92330Y72627D01*
X92486Y72136D01*
X92629Y71641D01*
X92761Y71143D01*
X92880Y70641D01*
X92986Y70137D01*
X93081Y69630D01*
X93163Y69121D01*
X93232Y68611D01*
X93289Y68098D01*
X93333Y67585D01*
X93365Y67070D01*
X93384Y66555D01*
X93390Y66040D01*
X93384Y65525D01*
X93365Y65010D01*
X93333Y64495D01*
X93289Y63982D01*
X93232Y63469D01*
X93163Y62959D01*
X93081Y62450D01*
X92986Y61943D01*
X92880Y61439D01*
X92761Y60937D01*
X92629Y60439D01*
X92486Y59944D01*
X92330Y59453D01*
X92162Y58965D01*
X91983Y58482D01*
X91791Y58004D01*
X91588Y57530D01*
X91374Y57061D01*
X91148Y56598D01*
X90910Y56141D01*
X90662Y55689D01*
X90402Y55244D01*
X90132Y54805D01*
X89851Y54373D01*
X89559Y53948D01*
X89257Y53530D01*
X88945Y53120D01*
X88623Y52718D01*
X88291Y52323D01*
X87950Y51937D01*
X87599Y51560D01*
X87239Y51191D01*
X86870Y50831D01*
X86493Y50480D01*
X86107Y50139D01*
X85712Y49807D01*
X85310Y49485D01*
X84900Y49173D01*
X84482Y48871D01*
X84057Y48579D01*
X83625Y48298D01*
X83186Y48028D01*
X82741Y47768D01*
X82289Y47520D01*
X81832Y47282D01*
X81369Y47056D01*
X80900Y46842D01*
X80426Y46639D01*
X79948Y46447D01*
X79465Y46268D01*
X78977Y46100D01*
X78486Y45944D01*
X77991Y45801D01*
X77493Y45669D01*
X76991Y45550D01*
X76487Y45444D01*
X75980Y45349D01*
X75471Y45267D01*
X74961Y45198D01*
X74448Y45141D01*
X73935Y45097D01*
X73420Y45065D01*
X72905Y45046D01*
X72390Y45040D01*
X71875Y45046D01*
X71360Y45065D01*
X70845Y45097D01*
X70332Y45141D01*
X69819Y45198D01*
X69309Y45267D01*
X68800Y45349D01*
X68293Y45444D01*
X67789Y45550D01*
X67287Y45669D01*
X66789Y45801D01*
X66294Y45944D01*
X65803Y46100D01*
X65315Y46268D01*
X64832Y46447D01*
X64354Y46639D01*
X63880Y46842D01*
X63411Y47056D01*
X62948Y47282D01*
X62491Y47520D01*
X62039Y47768D01*
X61594Y48028D01*
X61155Y48298D01*
X60723Y48579D01*
X60298Y48871D01*
X59880Y49173D01*
X59470Y49485D01*
X59068Y49807D01*
X58673Y50139D01*
X58287Y50480D01*
X57910Y50831D01*
X57541Y51191D01*
X57181Y51560D01*
X56830Y51937D01*
X56489Y52323D01*
X56157Y52718D01*
X55835Y53120D01*
X55523Y53530D01*
X55221Y53948D01*
X54929Y54373D01*
X54648Y54805D01*
X54378Y55244D01*
X54118Y55689D01*
X53870Y56141D01*
X53632Y56598D01*
X53406Y57061D01*
X53192Y57530D01*
X52989Y58004D01*
X52797Y58482D01*
X52618Y58965D01*
X52450Y59453D01*
X52294Y59944D01*
X52151Y60439D01*
X52019Y60937D01*
X51900Y61439D01*
X51794Y61943D01*
X51699Y62450D01*
X51617Y62959D01*
X51548Y63469D01*
X51491Y63982D01*
X51447Y64495D01*
X51415Y65010D01*
X51396Y65525D01*
X51390Y66040D01*
D10*
X67857Y96661D02*
X67857Y99413D01*
X67857Y96661D02*
X67859Y96597D01*
X67865Y96533D01*
X67874Y96470D01*
X67888Y96408D01*
X67905Y96346D01*
X67926Y96286D01*
X67950Y96227D01*
X67978Y96169D01*
X68010Y96114D01*
X68044Y96060D01*
X68082Y96009D01*
X68123Y95959D01*
X68167Y95913D01*
X68213Y95869D01*
X68263Y95828D01*
X68314Y95790D01*
X68368Y95756D01*
X68423Y95724D01*
X68481Y95696D01*
X68540Y95672D01*
X68600Y95651D01*
X68662Y95634D01*
X68724Y95620D01*
X68787Y95611D01*
X68851Y95605D01*
X68915Y95603D01*
X68979Y95605D01*
X69043Y95611D01*
X69106Y95620D01*
X69168Y95634D01*
X69230Y95651D01*
X69290Y95672D01*
X69349Y95696D01*
X69407Y95724D01*
X69462Y95756D01*
X69516Y95790D01*
X69567Y95828D01*
X69617Y95869D01*
X69663Y95913D01*
X69707Y95959D01*
X69748Y96009D01*
X69786Y96060D01*
X69820Y96114D01*
X69852Y96169D01*
X69880Y96227D01*
X69904Y96286D01*
X69925Y96346D01*
X69942Y96408D01*
X69956Y96470D01*
X69965Y96533D01*
X69971Y96597D01*
X69973Y96661D01*
X69974Y96661D02*
X69974Y99413D01*
X72451Y99413D02*
X72451Y95603D01*
X72451Y97508D02*
X71922Y97826D01*
X71881Y97853D01*
X71841Y97883D01*
X71805Y97916D01*
X71771Y97952D01*
X71740Y97991D01*
X71712Y98031D01*
X71688Y98074D01*
X71666Y98119D01*
X71649Y98165D01*
X71635Y98212D01*
X71624Y98260D01*
X71618Y98309D01*
X71615Y98358D01*
X71616Y98408D01*
X71621Y98457D01*
X71630Y98505D01*
X71643Y98553D01*
X71659Y98600D01*
X71679Y98645D01*
X71702Y98688D01*
X71729Y98730D01*
X71759Y98769D01*
X71791Y98806D01*
X71827Y98840D01*
X71865Y98871D01*
X71905Y98900D01*
X71948Y98925D01*
X71992Y98946D01*
X72038Y98964D01*
X72085Y98979D01*
X72133Y98990D01*
X72134Y98990D02*
X72213Y99002D01*
X72293Y99011D01*
X72374Y99016D01*
X72454Y99017D01*
X72535Y99014D01*
X72615Y99007D01*
X72695Y98997D01*
X72775Y98982D01*
X72853Y98964D01*
X72931Y98942D01*
X73007Y98916D01*
X73082Y98887D01*
X73156Y98854D01*
X73228Y98818D01*
X73298Y98778D01*
X72451Y97508D02*
X72980Y97191D01*
X72980Y97190D02*
X73021Y97163D01*
X73060Y97133D01*
X73097Y97100D01*
X73131Y97064D01*
X73162Y97025D01*
X73190Y96985D01*
X73214Y96942D01*
X73236Y96897D01*
X73253Y96851D01*
X73267Y96804D01*
X73278Y96756D01*
X73284Y96707D01*
X73287Y96658D01*
X73286Y96608D01*
X73281Y96559D01*
X73272Y96511D01*
X73259Y96463D01*
X73243Y96416D01*
X73223Y96371D01*
X73200Y96328D01*
X73173Y96286D01*
X73143Y96247D01*
X73111Y96210D01*
X73075Y96176D01*
X73037Y96145D01*
X72997Y96116D01*
X72954Y96091D01*
X72910Y96070D01*
X72864Y96052D01*
X72817Y96037D01*
X72769Y96026D01*
X72768Y96026D02*
X72689Y96014D01*
X72609Y96005D01*
X72528Y96000D01*
X72448Y95999D01*
X72367Y96002D01*
X72287Y96009D01*
X72207Y96019D01*
X72127Y96034D01*
X72049Y96052D01*
X71971Y96074D01*
X71895Y96100D01*
X71820Y96129D01*
X71746Y96162D01*
X71674Y96198D01*
X71604Y96238D01*
X74806Y98566D02*
X75865Y99413D01*
X75865Y95603D01*
X76923Y95603D02*
X74806Y95603D01*
M02*
