G04 EAGLE Gerber RS-274X export*
G75*
%MOMM*%
%FSLAX34Y34*%
%LPD*%
%INSoldermask Top*%
%IPPOS*%
%AMOC8*
5,1,8,0,0,1.08239X$1,22.5*%
G01*
%ADD10C,0.238272*%
%ADD11R,1.981200X1.981200*%
%ADD12C,1.981200*%
%ADD13C,0.216288*%


D10*
X79113Y30177D02*
X90747Y30177D01*
X90747Y15543D01*
X79113Y15543D01*
X79113Y30177D01*
X79113Y17807D02*
X90747Y17807D01*
X90747Y20071D02*
X79113Y20071D01*
X79113Y22335D02*
X90747Y22335D01*
X90747Y24599D02*
X79113Y24599D01*
X79113Y26863D02*
X90747Y26863D01*
X90747Y29127D02*
X79113Y29127D01*
X70747Y30177D02*
X59113Y30177D01*
X70747Y30177D02*
X70747Y15543D01*
X59113Y15543D01*
X59113Y30177D01*
X59113Y17807D02*
X70747Y17807D01*
X70747Y20071D02*
X59113Y20071D01*
X59113Y22335D02*
X70747Y22335D01*
X70747Y24599D02*
X59113Y24599D01*
X59113Y26863D02*
X70747Y26863D01*
X70747Y29127D02*
X59113Y29127D01*
D11*
X13970Y13970D03*
D12*
X13970Y39370D03*
X13970Y64770D03*
X13970Y90170D03*
X116840Y82550D03*
X116840Y57150D03*
D13*
X94197Y47617D02*
X75343Y47617D01*
X94197Y47617D02*
X94197Y37763D01*
X75343Y37763D01*
X75343Y47617D01*
X75343Y39818D02*
X94197Y39818D01*
X94197Y41873D02*
X75343Y41873D01*
X75343Y43928D02*
X94197Y43928D01*
X94197Y45983D02*
X75343Y45983D01*
X75343Y64617D02*
X94197Y64617D01*
X94197Y54763D01*
X75343Y54763D01*
X75343Y64617D01*
X75343Y56818D02*
X94197Y56818D01*
X94197Y58873D02*
X75343Y58873D01*
X75343Y60928D02*
X94197Y60928D01*
X94197Y62983D02*
X75343Y62983D01*
X75343Y81617D02*
X94197Y81617D01*
X94197Y71763D01*
X75343Y71763D01*
X75343Y81617D01*
X75343Y73818D02*
X94197Y73818D01*
X94197Y75873D02*
X75343Y75873D01*
X75343Y77928D02*
X94197Y77928D01*
X94197Y79983D02*
X75343Y79983D01*
X54197Y81617D02*
X35343Y81617D01*
X54197Y81617D02*
X54197Y71763D01*
X35343Y71763D01*
X35343Y81617D01*
X35343Y73818D02*
X54197Y73818D01*
X54197Y75873D02*
X35343Y75873D01*
X35343Y77928D02*
X54197Y77928D01*
X54197Y79983D02*
X35343Y79983D01*
X35343Y64617D02*
X54197Y64617D01*
X54197Y54763D01*
X35343Y54763D01*
X35343Y64617D01*
X35343Y56818D02*
X54197Y56818D01*
X54197Y58873D02*
X35343Y58873D01*
X35343Y60928D02*
X54197Y60928D01*
X54197Y62983D02*
X35343Y62983D01*
X35343Y47617D02*
X54197Y47617D01*
X54197Y37763D01*
X35343Y37763D01*
X35343Y47617D01*
X35343Y39818D02*
X54197Y39818D01*
X54197Y41873D02*
X35343Y41873D01*
X35343Y43928D02*
X54197Y43928D01*
X54197Y45983D02*
X35343Y45983D01*
M02*
