G75*
%MOIN*%
%OFA0B0*%
%FSLAX25Y25*%
%IPPOS*%
%LPD*%
%AMOC8*
5,1,8,0,0,1.08239X$1,22.5*
%
%ADD10C,0.00000*%
%ADD11C,0.00200*%
%ADD12C,0.00500*%
D10*
X0001000Y0001000D02*
X0001700Y0298001D01*
X0199821Y0298101D01*
X0199421Y0001700D01*
X0001000Y0001000D01*
D11*
X0166928Y0220652D02*
X0169128Y0220652D01*
X0169128Y0221263D01*
X0169126Y0221311D01*
X0169120Y0221359D01*
X0169111Y0221406D01*
X0169098Y0221452D01*
X0169081Y0221497D01*
X0169061Y0221540D01*
X0169038Y0221582D01*
X0169011Y0221622D01*
X0168982Y0221660D01*
X0168949Y0221695D01*
X0168914Y0221728D01*
X0168876Y0221757D01*
X0168836Y0221784D01*
X0168794Y0221807D01*
X0168751Y0221827D01*
X0168706Y0221844D01*
X0168660Y0221857D01*
X0168613Y0221866D01*
X0168565Y0221872D01*
X0168517Y0221874D01*
X0168469Y0221872D01*
X0168421Y0221866D01*
X0168374Y0221857D01*
X0168328Y0221844D01*
X0168283Y0221827D01*
X0168240Y0221807D01*
X0168198Y0221784D01*
X0168158Y0221757D01*
X0168120Y0221728D01*
X0168085Y0221695D01*
X0168052Y0221660D01*
X0168023Y0221622D01*
X0167996Y0221582D01*
X0167973Y0221540D01*
X0167953Y0221497D01*
X0167936Y0221452D01*
X0167923Y0221406D01*
X0167914Y0221359D01*
X0167908Y0221311D01*
X0167906Y0221263D01*
X0167906Y0220652D01*
X0167906Y0221385D02*
X0166928Y0221874D01*
X0166928Y0222874D02*
X0169128Y0222874D01*
X0169128Y0223852D01*
X0168150Y0223607D02*
X0168150Y0222874D01*
X0166928Y0222874D02*
X0166928Y0223852D01*
X0167845Y0225575D02*
X0167822Y0225611D01*
X0167795Y0225645D01*
X0167766Y0225677D01*
X0167734Y0225706D01*
X0167700Y0225732D01*
X0167664Y0225755D01*
X0167625Y0225774D01*
X0167586Y0225791D01*
X0167545Y0225803D01*
X0167503Y0225813D01*
X0167460Y0225818D01*
X0167417Y0225820D01*
X0167374Y0225818D01*
X0167332Y0225813D01*
X0167290Y0225803D01*
X0167250Y0225791D01*
X0167210Y0225774D01*
X0167173Y0225754D01*
X0167137Y0225732D01*
X0167103Y0225706D01*
X0167071Y0225677D01*
X0167042Y0225645D01*
X0167016Y0225611D01*
X0166994Y0225576D01*
X0166974Y0225538D01*
X0166957Y0225498D01*
X0166945Y0225458D01*
X0166935Y0225416D01*
X0166930Y0225374D01*
X0166928Y0225331D01*
X0167845Y0225575D02*
X0168211Y0224903D01*
X0169128Y0225147D02*
X0169126Y0225206D01*
X0169120Y0225265D01*
X0169111Y0225323D01*
X0169098Y0225380D01*
X0169081Y0225437D01*
X0169060Y0225492D01*
X0169037Y0225546D01*
X0169009Y0225598D01*
X0168978Y0225649D01*
X0168945Y0225697D01*
X0168211Y0224903D02*
X0168234Y0224867D01*
X0168261Y0224833D01*
X0168290Y0224801D01*
X0168322Y0224772D01*
X0168356Y0224746D01*
X0168392Y0224723D01*
X0168431Y0224704D01*
X0168470Y0224687D01*
X0168511Y0224675D01*
X0168553Y0224665D01*
X0168596Y0224660D01*
X0168639Y0224658D01*
X0168682Y0224660D01*
X0168724Y0224665D01*
X0168766Y0224675D01*
X0168806Y0224687D01*
X0168846Y0224704D01*
X0168884Y0224724D01*
X0168919Y0224746D01*
X0168953Y0224772D01*
X0168985Y0224801D01*
X0169014Y0224833D01*
X0169040Y0224867D01*
X0169062Y0224903D01*
X0169082Y0224940D01*
X0169099Y0224980D01*
X0169111Y0225020D01*
X0169121Y0225062D01*
X0169126Y0225104D01*
X0169128Y0225147D01*
X0167234Y0224598D02*
X0167190Y0224643D01*
X0167150Y0224691D01*
X0167113Y0224741D01*
X0167079Y0224794D01*
X0167048Y0224849D01*
X0167020Y0224905D01*
X0166996Y0224963D01*
X0166975Y0225022D01*
X0166958Y0225083D01*
X0166945Y0225144D01*
X0166936Y0225206D01*
X0166930Y0225268D01*
X0166928Y0225331D01*
X0166928Y0226762D02*
X0169128Y0226762D01*
X0169128Y0227740D01*
X0169128Y0228413D02*
X0169128Y0229636D01*
X0169128Y0229025D02*
X0166928Y0229025D01*
X0166928Y0227740D02*
X0166928Y0226762D01*
X0168150Y0226762D02*
X0168150Y0227495D01*
D12*
X0161828Y0225552D02*
X0161828Y0237552D01*
X0155828Y0237552D01*
X0155828Y0225552D01*
X0161828Y0225552D01*
M02*
